<svg xmlns="http://www.w3.org/2000/svg" viewBox="0 0 3018.2 1735.4"><defs><style>.cls-1{fill:#32afd7;fill-rule:evenodd;}</style></defs><title>アセット 5</title><g id="レイヤー_2" data-name="レイヤー 2"><g id="レイヤー_1-2" data-name="レイヤー 1"><path class="cls-1" d="M1418.6,600c1.6,11.6,17.6,15.6,23.9,3.1C1442.7,591.3,1424.4,581.6,1418.6,600Z"/><path class="cls-1" d="M1399.4,659.4c-11.7-1.4-25.9-12-36.7-10.4C1370.4,655.9,1391.1,667.6,1399.4,659.4Z"/><path class="cls-1" d="M1190.2,577.5l-6.4-3.7C1178.9,579.3,1187.9,584.4,1190.2,577.5Z"/><path class="cls-1" d="M473.8,192.9c-2-5.4-14.1-5.7-18.1-1.9A35,35,0,0,0,473.8,192.9Z"/><path class="cls-1" d="M490.9,211.4c-2.3-.5-4.4.1-5.9,2.9,6.7,5,14,15.5,23.1,15.5C507.6,222.2,494,218.2,490.9,211.4Z"/><path class="cls-1" d="M470.5,276.5c-10.9-.3-22.2-2.1-31,5.6C451.7,286.9,460.5,279.4,470.5,276.5Z"/><path class="cls-1" d="M498,303c-1.6,4.2-4.9,1.8-6.2,7.1,1,3.7,9.2,8.4,12.8,7.4l1.9-3.2C509.7,308.9,503.3,306.1,498,303Z"/><path class="cls-1" d="M1075.2,643.7c-.1,6.4,8.5,10.4,14.8,15,1.6-1,3.1-2,5.1-1.4C1096.8,650.9,1080.3,644,1075.2,643.7Z"/><path class="cls-1" d="M457.6,313.9c-2-6.8-12.9-4.3-15.9,1.5C448.5,320.6,452.3,314.4,457.6,313.9Z"/><path class="cls-1" d="M538,370.9l3.7-6.5c-4.3-1.5-1.8-4.9-7.1-6.2-2.4,1.1-4.6,3.1-6.2,7.1C529.2,368.7,534.7,371.9,538,370.9Z"/><path class="cls-1" d="M468.3,343.6c-1.7-7.4-11.6-3.1-13.6,5C461,353.4,463.6,344.7,468.3,343.6Z"/><path class="cls-1" d="M575.4,439.4c9,5.6,21.8-11.8,15.2-19C579.8,416.4,569.1,429.9,575.4,439.4Z"/><path class="cls-1" d="M563.3,419.6c-2.3-1.9-3.6,0-5.7-1.1-6.4,2.7-9.5,13.5-6,17.8C558.3,438.4,562.2,424.3,563.3,419.6Z"/><path class="cls-1" d="M487.7,380.3c-3.7-1.7-5.8,2.1-7.9,6.2C484.7,390.8,488.8,384.2,487.7,380.3Z"/><path class="cls-1" d="M577.7,442.9c-10.6-6.3-22.5-.7-23.9,11.8C565.2,464.1,574.8,449.6,577.7,442.9Z"/><path class="cls-1" d="M639.1,484.6c-4.6,11.2-15.4,24.1-.1,29.9C650.9,507.1,659.4,479.2,639.1,484.6Z"/><path class="cls-1" d="M474.8,387.9l-6.4-3.7c-3.9,2.5-8,4.2-10.6,11C464.7,397.3,470.3,394.8,474.8,387.9Z"/><path class="cls-1" d="M1019.1,722.6c-9.4-6.5-17.5-8-25.9-10.7C993.4,719.9,1014.2,729.3,1019.1,722.6Z"/><path class="cls-1" d="M294.9,329.2c-.8,4.4,9.1,7.3,9.9,1.4C303.3,324.6,299.1,330.7,294.9,329.2Z"/><path class="cls-1" d="M478.5,452c-5.8-3.1-9.5,1.6-12.9,7.5C472.6,467.2,475,457.6,478.5,452Z"/><path class="cls-1" d="M803.3,656c-9.7,1.2-16.9,11.4-25.2,17.6C787.2,670.2,795.9,665.6,803.3,656Z"/><path class="cls-1" d="M387.3,450.8c-10.6-4.2-17.8,4.2-24.8,13.4C374.4,473.4,379.4,456.6,387.3,450.8Z"/><path class="cls-1" d="M614.5,649.9l-4.8-2.8c-4.1,1.5-10,11.7-9.2,16.1C611.3,669.6,613,657.4,614.5,649.9Z"/><path class="cls-1" d="M433.6,552.2c-.8,10.8,19.2,16.2,28,18.2C461.5,560.9,444.5,553.9,433.6,552.2Z"/><path class="cls-1" d="M446.2,578.6c-2.7,6.6,6.9,9.9,13.3,14.1C462.1,586.1,452.6,582.8,446.2,578.6Z"/><path class="cls-1" d="M1149.8,996.5l-3.2-1.9c-.4,1.5-1.5,1.2-2.5.7l-1.8,3.2c1.5.5,1.1,1.5.6,2.5l3.3,1.9c.4-1.5,1.4-1.2,2.5-.7l1.8-3.2C1149,998.5,1149.4,997.5,1149.8,996.5Z"/><path class="cls-1" d="M893.8,201.8c5.3-16.7,17.3-7.4,23-10.2l3.2,1.8C925.1,211.7,898.2,220.8,893.8,201.8Z"/><path class="cls-1" d="M796.2,182l-3.2-1.9c-.4-16.1,8.2-13.1,18.7-21.3l6.4,3.7C816.8,172.8,805,183,796.2,182Z"/><path class="cls-1" d="M1017.5,298.6c-5.1-4,.7-11,.9-16.5l4.8,2.8C1019.9,289.9,1022.2,293.3,1017.5,298.6Z"/><path class="cls-1" d="M941.7,274.3c8.6-6.1,25.5-5.2,32.5-.6C965.1,280.4,954.1,279.7,941.7,274.3Z"/><path class="cls-1" d="M812.2,206.1c.5-7.4,11.6-12.3,18.9-10.4C825.6,202.1,820.8,211.1,812.2,206.1Z"/><path class="cls-1" d="M834.8,274.7c-7.4-3-10-7.3-15.2-10.9-8.6,1-21,11.1-28.2.8,13.2-13,31.2-8.3,44.4-21.4C860.6,248.8,849.9,273.6,834.8,274.7Z"/><path class="cls-1" d="M889.5,301.9c5.5-8.3,16.5,4.2,22.6-2-2.4-4.5-.2-5.3,3-8.9,6.5,4.5,6.9,10.8,2.2,18.4C907.6,305.4,900.1,309.2,889.5,301.9Z"/><path class="cls-1" d="M847,305.2c-9.8,1-10.8-10.1-9.8-16.3C847.1,282.8,853,295.8,847,305.2Z"/><path class="cls-1" d="M900.6,353.2c-2-.9-4.4-2.9-5.7-1.2-5.7-6.6-8.5-14-3.6-23.4,7.6-3.3,16.1,6.6,18.3,12.6C906.8,345.8,904.5,352.3,900.6,353.2Z"/><path class="cls-1" d="M878.9,327.8c-1.5-.3-2.6.3-3.5,2.3-4.7-2.3-8.8-4.8-5.2-9.4C873.5,319.7,881.4,323.4,878.9,327.8Z"/><path class="cls-1" d="M489.9,257.7c9,8.4,13-2.1,22,6.3-4.2,16.5,13.3,27.2-1.1,46.4,4.1,5.2,13.2,9.1,7.3,17-8.1,2-12.2-12.2-19.4-6.9-2.1,16.6,23.5,21.5,36.6,25.3,2.4,10.2,16.6,17.2,23.3,26.3-7,10.6-18.3,5.6-27.8,7.5,6.7,1.9,2.9,10.1,9.2,13.8,10.4,6.1,24.1.3,32.2-11.4-3.2,7.6-1.4,13.9-1.3,20.7,7.2-.5,12.2-8.5,18.2-13.1,7.6,9.2,9.1,21.1,23.9,18-1.6,4.2-5,1.8-6.3,7.1,8.9.7,7.8,11.1,19.1,15.2,5.3-3.7,10.8-6.6,17-7.3,4.8,3.3,4.1,7.9,5.9,12-4.6,11.5-12.7,10-17.1,22.2,2.7,7.4,11,20.2,18.6,8.6,2.4-6.7-4.4-16.1,5.4-20.5,1.6,9.3,8.6,9.9,19,15.3-4.9,10,1.5,10.2,10.7,14.7-.4,4.1-2.4,8.8,1.8,11.7l12.4.7c2.3,3.9,1.2,8.8,6,12,16.2,5,37.9,11.6,47.4,25.2,1.6-2.5,3-5.7,6-3,21.8,10.8-3.5,25.8-2.2,37.2,8.2-.8,16.5,5.2,20.9,12-3.8,7.9-10.8,3.5-14.1,13.3,7.2,9.8,14.2,2.6,23.7,7.2a106.3,106.3,0,0,0-4.2,14.7c8,3.8,11.8,3.1,22.7,8.7.4,13.5-3.7,27.4,13,33.2,8.3-10.1,18.2-8.9,27.5-3.4-3.2,6.3-3.8,11.9,1.6,15.9,9.8,1.1,15.6-12.3,28.2-.9,2.2,4.8-9.8,13.5-1,16.5s10.9-6.8,17.1-7.2c19.6,15.7,44.6,2.5,65.8,22.9,3.9-.6,5.8-8.8,9.7-9.4,6.6,2.3,5.3,6.7,11.9,9a77.1,77.1,0,0,0,12.9-7.5c6.8,4.1,10.1,10.9,16.3,5.1-1.2-3.3.1-7.3,2.3-11.5,15,3.6,26.6-5.3,39.5-9.3-3.6-1.7-4.3-4.3-2-7.6,4.9-2,11.2,1.6,15.1-4.1-.2-11.6,10.2-20.2,13.5-30.7,5.6.6,11.4,2.2,16.5,1,7.7-8-.8-11.6-8.2-15.4-1.4-17.1,22.1-24.7,13.9-39,7.2-5.3,14.9-8.2,23.6-7.8-.7-4.3,3.5-9.9,1.7-14-5.3-2.9-9.6-1.9-15.4-6.7-3.3-13.4,9.6-19.3,19.6-22.9-.4-3,1.9-6.8-1.1-9.2-5.3-2.9-9.6-1.9-15.4-6.7-.6-3.9-1.1-7.8,3.3-13.1-1.2-2.8-5-5-6.2-7.8-2.9-44.8-6.1-113.9,34.6-153.6a18.3,18.3,0,0,0,3.2-3l2.2-1.9-.4-.3c14.4-20.4-24.1-44.5-33.6-14.1-13.3,6.6-24.3,18.4-26.2,37.4-7.7,8.5-19,3.5-28.5,4.9-6.3,10.3-13.4,17.5-21.9,19.5l-4.8-2.8c-5.4-8.5,14.2-23.7-2.4-29.2-11.1,3.3-5.2,13.9-11.4,23.4-1.8,1.6-3.9,2.1-6.6.5-3.4-8.1-5.5-16.6-11.9-23.9-6,7.4-4.4,12.9-9.5,20.1-13.8-4.4-2.6-15.5-16.2-20-11.9,6.2-23.5,13.4-37.9,10.2-13.1,38-38.9,1.1-57.3,14.1-2.1-5.1-9-9-10.9-10.6-1.7.2-6.1,4.8-5.6,9.6,5.6,5.7,8.2.2,13.1,3.3a8.9,8.9,0,0,1,2,7.5c-4-2.3-12.3,7-18.1,13.1-1-3.2-2.2-2.1-4.9-2.8,5.8-14.4-14.5-21.3-24.7-16.4-3.2-2.7,3.9-8.2,4.9-12.1-11.3-4-4-10-11.5-17.3-6.2-1.3-3.1,7.5-11,4.3-2.6-3.5,10.4-6.4,7.4-12.8-4.2-2.2-6.3,3.5-8.8,7.8-5.4-9-22.5-9.9-19.2-26-7.1-4.6-10.1,5.9-15.4,8.2-7.5-5.7-8.1-10.2-15.1-10.8-.9,1.5,1.2,2.3,2.3,3.4-2.8,1.6-6.1,1.1-9.9-1.4,6.5-1.9,7.9-8.7,1.7-14,5.1-2.6,11.4-1.1,16.7-3.2,1.5-8.1-12.6-8.9-17.6-10.1-2.8-5.9-5.5-6.5.7-12.4-3.4-2.7-6.3-3.3-8.9-3,15.2-36.6-21.7-29.9-42.5-26.6-1.7-1.8-.8-4.3-2.9-6,20.2-7.5,37.9-26.7,58.4-19.8,2.4,5.2,5,11.4,5.4,20.3,9.5,2.2,21.4-9.8,23.5-18.6-.9-2.9-2.5-3.3-4.1-.2.4-6.9,2.6-14.3,3.7-21.3-9.1,2.1,1.5-18.8-10.5-18.9,14.4-21,56.3-39.3,79.4-42.2,19.8-22.5-34.7,1.7-42.7-2.9l-.9,1.6c-16.7,6.9-34.4,9.9-51.5,15.2-7.1-4.1-13.6-9.5-22.5-12.9,7.4-10.4,30.9-24.2,32.7-38.9-2.2-12.2-15.6,1.7-18.8-.1-9.7,8.6-11.7,18.5-23.7,22.6-7.3,2.5-18.7-3.8-24.8-1.4-11.8,4.6-23.8,26.8-25.9,44.9-6.4,3.1-12.6,7-20.2,5.4-8.6,8.4-17.4,16.2-25.6,25.9-16.3,4.2-20.2-16.4-32.3-14.3,4.7,21.2-13.6,27.9-31.1,20.5-4.5,5.3-1.2,8.5-5.8,13.8-17.2-4.4-33.9,3.3-36.3,26.1-3.8,4.5-10.1-.7-14.9-.1-5,4.1,4.4,4.2-.5,8.3-6.7-.2-21.4-16.6-29.4-8.4C486,249.3,497.9,254.4,489.9,257.7Zm255,35.7c2.5,2.1,10.6.1,9.6,5.6-4.6-3.7-6.7,1.9-10.8.2C744.8,297.1,743,295.8,744.9,293.4Z"/><path class="cls-1" d="M973.9,8.8c-3.4,3.3-3.2-1.1-8.8,0-.6-4.1.3-6.8,1.7-8.8H972C971.4,4.2,975.3,3.8,973.9,8.8Z"/><path class="cls-1" d="M726.4,8.8c-1.4-5,2.5-4.6,1.8-8.8h3.5C734.6,2.9,733.1,10.3,726.4,8.8Z"/><path class="cls-1" d="M1531.8,14V7C1538.6,5.6,1538.6,15.4,1531.8,14Z"/><path class="cls-1" d="M873.8,29.8c4.8-.4.6-9.9,7-8.8C885.9,24.7,876.6,34.3,873.8,29.8Z"/><path class="cls-1" d="M1505.5,22.8c8-.6,9.9,4.8,7,10.5C1504.5,34,1503.4,27.7,1505.5,22.8Z"/><path class="cls-1" d="M743.9,70.2c5.7.3,7.5-3.1,14.1-1.8C760.1,75.9,744.1,75.4,743.9,70.2Z"/><path class="cls-1" d="M930,87.7c1.2-4.8-3.5-3.5-3.5-7a6.5,6.5,0,0,1,8.8,0C935.7,85.3,934.6,88.2,930,87.7Z"/><path class="cls-1" d="M177.2,86c6.6-.2,9.4,3.4,10.5,8.7C182.4,93.6,177.6,92,177.2,86Z"/><path class="cls-1" d="M1579.2,87.7c1.2,7.1-1.7,10-1.7,15.8C1569.4,102.1,1567.7,86.5,1579.2,87.7Z"/><path class="cls-1" d="M308.8,103.5h5.3v7C309.5,111.1,308.3,108.1,308.8,103.5Z"/><path class="cls-1" d="M540.4,121c.2,5.3-5.1,8.9-8.8,5.3C530.9,120.8,535.4,120.7,540.4,121Z"/><path class="cls-1" d="M1131.7,135.1v-7c3.1-.2,5.5.4,7.1,1.7C1139.3,134.4,1136.3,135.6,1131.7,135.1Z"/><path class="cls-1" d="M317.5,150.9c.7-8.1,2.2-10.1,0-17.6,2.4-.5,3.5-2.5,7.1-1.7a11.2,11.2,0,0,0,3.5,5.2C325.7,142.5,322.4,147.5,317.5,150.9Z"/><path class="cls-1" d="M221.1,163.2c-16.1,1.9-14.8-30.1,1.7-22.8C232.6,144.7,232.5,161.8,221.1,163.2Z"/><path class="cls-1" d="M1063.3,147.4a4.9,4.9,0,0,1,3.5-5.3c.6,3.6,4.8,3.4,5.3,7C1068,149.7,1065.4,148.8,1063.3,147.4Z"/><path class="cls-1" d="M252.7,185.9c-5.2-4.4-9.5-23.3,1.7-24.5C265.3,165.4,264.5,183.8,252.7,185.9Z"/><path class="cls-1" d="M131.6,207c-9.2-2.2-13.2-18.1-8.8-31.6C154.5,155.5,160.6,214.2,131.6,207Z"/><path class="cls-1" d="M1291.4,214c-10.8-6.9-23.1-22.2-14-38.6C1301.2,175.3,1311.5,203.8,1291.4,214Z"/><path class="cls-1" d="M1200.2,180.7c6.2-4.4,17.3,9.1,14,14C1210.9,188.8,1200.6,189.7,1200.2,180.7Z"/><path class="cls-1" d="M272,205.3v-7C280.9,196,280.1,206.8,272,205.3Z"/><path class="cls-1" d="M417.6,221.1c6.1-1.4,6.7,2.6,12.2,1.7,1.6,2.4.3,13.3-1.7,17.6a47.4,47.4,0,0,1-14-5.3C413.2,228.4,414.6,223.9,417.6,221.1Z"/><path class="cls-1" d="M1479.2,235.1c-.3-4.4-.3-8.5,3.5-8.7C1485.5,229,1485.3,236.3,1479.2,235.1Z"/><path class="cls-1" d="M1342.3,247.4c-.4-1.4-1.5-2-3.5-1.8-.5-4,.4-6.5,3.5-7,.4,1.4,1.5,2.1,3.5,1.8C1346.3,244.4,1345.4,247,1342.3,247.4Z"/><path class="cls-1" d="M1424.8,250.9c11.3,9,.1,33.1-7,40.3C1423,277.3,1410.3,262.6,1424.8,250.9Z"/><path class="cls-1" d="M233.4,264.9c.2-5.6,3.9-7.7,10.5-7,.2,4.4.2,8.4-1.8,10.5C236.5,269.9,236.7,265.7,233.4,264.9Z"/><path class="cls-1" d="M961.5,273.7c-3.4-.2-9.8-11.6-1.7-12.3C960.4,264.5,965.1,272.3,961.5,273.7Z"/><path class="cls-1" d="M426.3,275.5c-6.4.6-7.3-4.4-8.7-8.8,4-.5,6.7.3,8.7,1.7Z"/><path class="cls-1" d="M96.5,305.3c-19.2,1.8-21-37.5,1.8-29.8C112.5,280.3,110.5,304,96.5,305.3Z"/><path class="cls-1" d="M1545.9,282.5c5.5.3,5.8-4.7,12.3-3.5C1560.4,285.5,1547.7,285.9,1545.9,282.5Z"/><path class="cls-1" d="M937,312.3c-2.5-8.2-2-18,3.5-22.8,5.2,5.2,15.3,13.3,8.7,24.6C943.6,315.1,941.1,312.9,937,312.3Z"/><path class="cls-1" d="M329.8,296.5c-.5-2.4-2.4-3.3-1.7-7,2.6.3,6.4-.6,7,1.7C331.1,290.7,333.2,296.3,329.8,296.5Z"/><path class="cls-1" d="M808.9,307c.2-4.4,2.5-6.7,7-7C816.8,305.5,814.4,307.8,808.9,307Z"/><path class="cls-1" d="M1419.5,342.1c-2.7-2.6-3.1-12,3.6-10.5C1425.7,334.3,1426.2,343.6,1419.5,342.1Z"/><path class="cls-1" d="M1344.1,380.7c-4-1.8-.6-11-1.8-15.8a8.4,8.4,0,0,0,5.3-1.7C1350.5,367.4,1349.8,379.7,1344.1,380.7Z"/><path class="cls-1" d="M1126.5,379c-8.1-.1-11.4-5-10.5-14.1C1125.4,357.6,1134.2,374.1,1126.5,379Z"/><path class="cls-1" d="M1454.6,377.2c5.5-.8,7.8,1.6,7,7.1C1456.2,385.1,1453.8,382.7,1454.6,377.2Z"/><path class="cls-1" d="M1521.3,393v-7h5.2C1527.1,390.6,1525.9,393.6,1521.3,393Z"/><path class="cls-1" d="M1561.6,401.8c-5.5,1.5-5.3-2.7-8.7-3.5-.7-6.5,1.4-10.3,7-10.6,1.6,3.8,5.3,5.3,5.3,10.6C1563.2,398.7,1562.4,400.2,1561.6,401.8Z"/><path class="cls-1" d="M507.1,408.8c-4.7,1.8-9.3,3.6-15.8,3.5-6.7-6.2-4.9-15.8,0-22.8C508.4,386.4,509.9,401.2,507.1,408.8Z"/><path class="cls-1" d="M298.2,417.6c1.4-10.4,12.5-11,19.3-15.8C314,409.2,305.8,419.9,298.2,417.6Z"/><path class="cls-1" d="M1345.8,415.9c-3.6,1-5.7,3.6-8.7,5.2-.6-4,.2-6.7,1.7-8.8C1342.8,411.8,1345.4,412.8,1345.8,415.9Z"/><path class="cls-1" d="M129.8,421.1c-3.3.2-1.2,5.8-5.2,5.3-.6-2.4-2.6-3.4-1.8-7.1C125.4,419.7,129.3,418.7,129.8,421.1Z"/><path class="cls-1" d="M1165.1,449.2c-.2-4-10.6-6.8-5.3-10.5,9.8-3,32.6-3.5,43.9,5.2C1188.4,446.4,1175.4,444.8,1165.1,449.2Z"/><path class="cls-1" d="M775.6,447.4c-4.7-2.1-2.8-8.6,0-12.3C774.8,439.2,782.5,448.3,775.6,447.4Z"/><path class="cls-1" d="M256.2,461.4c1.4-6.2,9.7-14.7,15.8-10.5C266.6,454.4,265.9,462.5,256.2,461.4Z"/><path class="cls-1" d="M1231.8,538.7c-7.1-3.5-8.9-12.2-17.6-14.1-29,5.7-31.4-35.3-17.5-52.6,16.5-5.5,18.3,3.6,33.3,0-.1-13,5.4-20.4,19.3-19.3,2,22.4-2.2,50.8-14,64.9C1233.8,525.1,1242.5,537.7,1231.8,538.7Z"/><path class="cls-1" d="M765,487.8c-2-2.1-2-6.2-1.7-10.5,6.5-.7,10.3,1.3,10.5,7C770.5,485,770.6,489.3,765,487.8Z"/><path class="cls-1" d="M1482.7,486c-4.3-1-9-1.5-8.8-7h5.3C1480.1,481.6,1481.8,483.5,1482.7,486Z"/><path class="cls-1" d="M1342.3,496.5c-9.4-15.5,13-20.8,14.1-5.2C1353.6,495,1349.8,497.7,1342.3,496.5Z"/><path class="cls-1" d="M1365.1,494.8c-1.3-6.6,2-8.5,7.1-8.8C1373.5,492.6,1370.2,494.6,1365.1,494.8Z"/><path class="cls-1" d="M738.7,505.3c-6,1.8-4.2-13.1-1.8-14C736.6,496.9,740.1,498.7,738.7,505.3Z"/><path class="cls-1" d="M1021.2,535.2c-33.6-.8-24.7-49.9,7-40.4.1-1.1.3-2.1,1.8-1.7C1031,509,1035.4,524.2,1021.2,535.2Z"/><path class="cls-1" d="M1351.1,501.8h5.3c3.4,8.3,8.2,7.4,15.8,8.8-2.4,10,6.4,8.7,8.7,14C1367.3,521.4,1349.8,514.3,1351.1,501.8Z"/><path class="cls-1" d="M951,507.1c-.8,12.8-16.6,7.4-10.5-3.5C946.6,502.2,947.9,505.5,951,507.1Z"/><path class="cls-1" d="M749.2,524.6c-5.4,3.3-16.5-.3-15.8-8.7C741.3,516.2,745.3,520.3,749.2,524.6Z"/><path class="cls-1" d="M1093.1,540.4c-2-2.1-1.9-6.2-1.7-10.5,7.8-4.9,13.5,2.8,8.7,10.5Z"/><path class="cls-1" d="M1545.9,542.2v-5.3c3.3-.4,3.9,2,7,1.8C1554.6,544,1549,541.8,1545.9,542.2Z"/><path class="cls-1" d="M1082.6,554.5c-5.7-2.5-9.8-6.6-8.8-15.8,5-3.6,12.1,2.2,17.6,3.5C1092.1,549.9,1088.5,553.3,1082.6,554.5Z"/><path class="cls-1" d="M1044,545.7c-5.9,1.2-6.4-3-6.9-7,2.3.1,3.7-.9,5.2-1.8C1041.5,541.1,1045.5,540.7,1044,545.7Z"/><path class="cls-1" d="M968.6,538.7c4.1,0,5.1-3.1,10.5-1.8v7C973.7,544,967.5,545,968.6,538.7Z"/><path class="cls-1" d="M1337.1,542.2h5.2c2.1,2,2.1,6.2,1.8,10.5C1339.4,551.5,1336.2,548.9,1337.1,542.2Z"/><path class="cls-1" d="M1245.8,573.7c-7.3-4.9-7.1-19,1.7-22.7C1253.9,554.1,1256.3,573.2,1245.8,573.7Z"/><path class="cls-1" d="M361.5,568.5c.6,9.4-.8,16.8-3.6,22.8C315.8,605.2,332.3,539.3,361.5,568.5Z"/><path class="cls-1" d="M1237,582.6c2,5.5.2,3.9,0,10.5h-7C1227.9,588.1,1229,581.9,1237,582.6Z"/><path class="cls-1" d="M1293.2,601.8v-7c4.8-5.4,12.5,2.2,7,7Z"/><path class="cls-1" d="M1280.9,607.1c-4.3,1-3.7,6.8-10.5,5.3-5.2-1.2-5.9-7-5.3-14.1C1274,593.1,1278.5,600.8,1280.9,607.1Z"/><path class="cls-1" d="M47.3,600.1c11.6-2.2,13.5,5.2,12.3,15.8-4.9,2.4-10,4.6-15.8,1.8C43.1,609.9,44.4,604,47.3,600.1Z"/><path class="cls-1" d="M1030,607.1c3.4-.7,4.4-3.8,8.8-3.5-.6,5.4,4.1,8.4,0,12.3h-7.1C1032.5,611.6,1028.5,612.1,1030,607.1Z"/><path class="cls-1" d="M940.5,614.2c-.5-7.1,3.3-9.6,10.5-8.9.4,1.4.1,3.5,1.8,3.5C953.5,615.4,944.8,617.9,940.5,614.2Z"/><path class="cls-1" d="M1175.6,614.2c-3.2-3.1.6-7,5.3-7.1C1181.4,611.7,1180.2,614.7,1175.6,614.2Z"/><path class="cls-1" d="M1068.6,614.2c1-12.5,21.9-5.1,33.3-7.1C1096.1,613.8,1079.4,618,1068.6,614.2Z"/><path class="cls-1" d="M482.5,617.7c4.6,24.6-11.4,37.2-26.3,29.7-9.3-4.6-7.8-19.9-14.1-28,10-2.4,14.9-9.7,24.6-12.3C471.4,611.2,478.2,613.1,482.5,617.7Z"/><path class="cls-1" d="M1310.7,617.7c-.9-2.7-2.5-4.5-3.5-7.1h7.1C1314.7,614.6,1313.8,617.2,1310.7,617.7Z"/><path class="cls-1" d="M405.3,614.2c32.3-12.2,37.7,47.9,1.8,36.8-4.9-5.7-3.9-17.2-8.8-22.8C398.7,621.5,405.7,621.5,405.3,614.2Z"/><path class="cls-1" d="M356.2,622.9c-3.4,4.8-6.8,9.5-14.1,10.5-.4-2.5-3.8-2-5.2-3.5,1.6-6,2.6-12.6,5.2-17.5C350.9,611.8,354.2,616.7,356.2,622.9Z"/><path class="cls-1" d="M235.1,617.7c-2.3,2.3-8.6,2.6-8.8-1.8C228.6,613.5,234.9,613.2,235.1,617.7Z"/><path class="cls-1" d="M1558.2,628.2c-6.6.6-10.3-1.5-10.5-7,2.4-.5,2.8-3,5.2-3.5C1555.4,620.4,1560,621.1,1558.2,628.2Z"/><path class="cls-1" d="M770.3,633.4c-2.1,1.5-4.8,2.3-8.8,1.8-3.4-3.6-2.3-12.6,3.5-12.3C767.5,625.7,771.3,627.2,770.3,633.4Z"/><path class="cls-1" d="M1435.3,628.2a8.8,8.8,0,0,0,5.3-1.8c.6,2.4,2.5,3.4,1.7,7C1438,633.7,1436.8,630.7,1435.3,628.2Z"/><path class="cls-1" d="M1314.3,631.7h7v7C1315.8,639.5,1313.5,637.2,1314.3,631.7Z"/><path class="cls-1" d="M310.5,645.7c3.5,4.2,3.1,12.2,7,15.8-6-1.4-6.6,2.6-12.2,1.8C300.7,658.5,299.7,644.4,310.5,645.7Z"/><path class="cls-1" d="M1166.8,663.3c-8.5,1.5-11-3-12.3-8.8C1159.1,648.3,1169.5,652.3,1166.8,663.3Z"/><path class="cls-1" d="M1544.1,661.5c-4.4.3-5.5-2.7-7-5.3,2-1.4,4.7-2.3,8.8-1.7C1546,657.5,1545.5,660,1544.1,661.5Z"/><path class="cls-1" d="M1342.3,675.5c-3,17.2-31.9,11.2-28-7,8.5,3.1,7.3-11.9,17.5-10.5C1337.7,658.8,1343.6,668.4,1342.3,675.5Z"/><path class="cls-1" d="M715.9,661.5c4.3,8,6.4,15.5,1.7,24.5-5.6-.3-7.3,3.1-14,1.8-5-5.5-13.2-13.1-8.8-22.8C702.5,669,705.3,659.7,715.9,661.5Z"/><path class="cls-1" d="M100,668.5c5.3-.1,8.9,1.6,10.5,5.3C105.2,673.9,101.5,672.2,100,668.5Z"/><path class="cls-1" d="M1472.1,682.6c-.6-3.4-6.8-1.5-5.2-7.1h5.2C1470.5,678.8,1477.4,681.4,1472.1,682.6Z"/><path class="cls-1" d="M959.8,680.8c-1.2,1.4-9.8,3.9-10.6,0C952.6,679.4,958.4,674.3,959.8,680.8Z"/><path class="cls-1" d="M433.3,717.7a43,43,0,0,1,14.1-19.3c-2.5-1.8-6.3-11.1-1.7-14.1.7,10.3,5.5,2.9,8.7,3.5,9.5,2,17,17.8,31.6,17.6.1,5.4-5.1,12.4,3.5,12.3A139.6,139.6,0,0,1,479,747.5c-9.5,4.2-16.7,8.7-24.6,7-14-2.9-16-20.1-28.1-26.3-3.2-3.1,2.4-5.4-3.5-7s-14.3.2-14-7.1C421.2,713.4,421,722.5,433.3,717.7Z"/><path class="cls-1" d="M1340.6,710.6c6.2-.9,9.1,1.5,10.5,5.3C1347.8,719,1338.8,717.9,1340.6,710.6Z"/><path class="cls-1" d="M649.2,712.4c-3.5,1.1-1.1,8.2-5.3,8.8C639.5,718.4,646.7,707.7,649.2,712.4Z"/><path class="cls-1" d="M2060,733.4c.4-1.9,1.9-2.7,3.5-3.5,4.5,4.4,10.9,6.7,10.5,15.8C2067.7,743.3,2061.5,740.7,2060,733.4Z"/><path class="cls-1" d="M1642.4,731.7c1,3.6,3.7,5.7,5.3,8.7C1640.8,742.2,1635.5,733.4,1642.4,731.7Z"/><path class="cls-1" d="M1366.9,731.7c9.9-1.6,11.4,12.8,1.7,12.3C1366.1,739.6,1364.4,737.1,1366.9,731.7Z"/><path class="cls-1" d="M1098.4,735.2c3.1-1.5,5.1-5.5,8.8-1.8C1108.9,739.9,1098.6,740.4,1098.4,735.2Z"/><path class="cls-1" d="M1393.2,744c-2.9.3-3.6-11.5,1.7-8.8C1396.3,736.4,1399.6,745.7,1393.2,744Z"/><path class="cls-1" d="M2126.7,736.9h5.2c-.1,4.9,2.9,3.6,0,7.1C2127.3,744.5,2126.2,741.5,2126.7,736.9Z"/><path class="cls-1" d="M1266.8,736.9h7.1c.3,5.1.2,9.6-5.3,8.8C1269.3,741.5,1265.4,741.9,1266.8,736.9Z"/><path class="cls-1" d="M1784.5,749.2c-3.6-3.5,0-7.4,3.5-8.8C1788.3,744.8,1788.4,749,1784.5,749.2Z"/><path class="cls-1" d="M1691.5,765c-3.3-7.5,3.4-18.3,8.7-22.8C1703.6,749.7,1697.4,761.1,1691.5,765Z"/><path class="cls-1" d="M2400.4,752.7V744h5.3C2406,749,2405.9,753.6,2400.4,752.7Z"/><path class="cls-1" d="M1584.5,758H1581c-.1-1.1-.3-2.1-1.8-1.7v-3.6c1.1-.1,2.1-.2,1.8-1.7h3.5c.1,1.1.2,2.1,1.7,1.7v3.6C1585.1,756.3,1584.2,756.5,1584.5,758Z"/><path class="cls-1" d="M1984.6,770.3c-3.6-2.4-5.4-11.7-1.8-15.8,7.8-.7,11.1,2.9,12.3,8.8C1993.2,767.3,1989.7,769.6,1984.6,770.3Z"/><path class="cls-1" d="M2109.1,759.7c1.6,3.2,4.9,4.5,3.5,10.6C2104.4,773.3,2103.3,760.5,2109.1,759.7Z"/><path class="cls-1" d="M1605.5,766.8c.6-4.1,1.2-8.2,7.1-7.1,3.6,4.3,2.5,3.8,1.7,10.6C1609.9,770.6,1608.8,767.5,1605.5,766.8Z"/><path class="cls-1" d="M900.1,759.7c5.8,3.1,15.2,2.4,17.6,8.8C911.5,766,899.1,769.5,900.1,759.7Z"/><path class="cls-1" d="M1856.5,775.6c-2.1-2.1-2.1-6.3-1.8-10.6h7C1861.8,770.4,1862.7,776.6,1856.5,775.6Z"/><path class="cls-1" d="M1972.2,786.1c-7.7-1-13.3-4.1-12.2-14.1C1966.7,757.3,1983.8,777.5,1972.2,786.1Z"/><path class="cls-1" d="M830,768.5c.4,4-.5,6.6-3.5,7.1-.8-3.4-5-3.2-3.6-8.8C826,766.7,828.4,767.2,830,768.5Z"/><path class="cls-1" d="M1845.9,768.5h5.3c2.5,9.5-2.7,25.1-8.8,31.6C1843.8,789,1843.7,781.5,1845.9,768.5Z"/><path class="cls-1" d="M1212.5,768.5c5.9,6.3,10.9,13.7,12.2,24.6C1215.2,791.9,1205.5,774.9,1212.5,768.5Z"/><path class="cls-1" d="M2228.4,779.1c3.4-.4,3.9,1.9,7.1,1.7C2236.5,788.6,2226,786.9,2228.4,779.1Z"/><path class="cls-1" d="M1681,782.6h7v7C1684,789,1679.8,788.5,1681,782.6Z"/><path class="cls-1" d="M1781,803.6c-7,1.6-8.8,1.6-15.8,0C1755.8,782.2,1798,778.1,1781,803.6Z"/><path class="cls-1" d="M1791.5,794.9c3.1-1.6,2.3-7.2,8.8-5.3C1801.2,794.1,1794.1,799.5,1791.5,794.9Z"/><path class="cls-1" d="M2072.3,801.9c.5-8.3.4-11.3,8.7-8.8C2081.5,799.4,2078.5,802.3,2072.3,801.9Z"/><path class="cls-1" d="M2038.9,821.2c-1.3.4-3.4,0-3.5,1.7-19-6.3,4.8-40.5,12.3-19.3a77.3,77.3,0,0,1-10.5,7.1C2039.2,812.7,2039.2,816.9,2038.9,821.2Z"/><path class="cls-1" d="M1851.2,810.7c-2.7-5.5-2-12.3,5.3-12.3C1861.8,802.1,1860.5,812.1,1851.2,810.7Z"/><path class="cls-1" d="M1423.1,801.9v8.8c-4.4.2-8.5.2-10.6-1.8-.4-5.7,2.1-8.5,7-8.8C1420,801.5,1421,802.2,1423.1,801.9Z"/><path class="cls-1" d="M2421.4,821.2c-21.1-26.3,32.3-18.8,0,0Z"/><path class="cls-1" d="M1728.3,819.4c-.4-12.4,26.3-22.4,26.4-3.5C1748.9,820.2,1738.6,819.7,1728.3,819.4Z"/><path class="cls-1" d="M1438.8,808.9c3.5,0,2.3-4.8,7-3.5.6,2.4,2.6,3.3,1.8,7C1443.3,812.7,1439.1,812.7,1438.8,808.9Z"/><path class="cls-1" d="M1161.6,805.4c4,12.1,17,14.1,26.3,7-5.1,15.7,4,30.6,0,45.6-13.6,12.1-26.6,12-47.4,7-1.9-14.6-4.7-29.4-3.5-47.3,8.7,6.6,10.6-8.9,19.3-1.8C1160.3,814.6,1154.7,803.8,1161.6,805.4Z"/><path class="cls-1" d="M1466.9,810.7c-1.2,8.7-9.4,10.5-15.8,14C1445.8,812,1459.4,803.7,1466.9,810.7Z"/><path class="cls-1" d="M2507.4,814.2c2.8-.8,1.6-5.6,7.1-3.5C2517.7,816.5,2508.2,818.1,2507.4,814.2Z"/><path class="cls-1" d="M2474.1,819.4c-2.8.3-3.5-11.5,1.8-8.7C2477.3,811.9,2480.4,821.1,2474.1,819.4Z"/><path class="cls-1" d="M1435.3,817.7c-12.7,9.1-12.7-14.3,0-5.3Z"/><path class="cls-1" d="M1377.4,829.9c3.8-3.9,6,1.5,12.3,0,1.7-8-1.2-9.7,1.8-15.7C1414.2,820,1388.3,850,1377.4,829.9Z"/><path class="cls-1" d="M1209,822.9c0-3.5-4.8-2.2-3.5-7,2.2-.1,2.4-2.2,5.2-1.7C1209.7,816.7,1212.7,823.2,1209,822.9Z"/><path class="cls-1" d="M877.3,824.7c-7.2,1.4-9-2.7-8.8-8.8C874.8,815.5,877.8,818.5,877.3,824.7Z"/><path class="cls-1" d="M2191.6,817.7c6.6,3.3,17.1,2.8,14,15.8C2194.3,836,2186.2,826.1,2191.6,817.7Z"/><path class="cls-1" d="M2556.6,828.2c-.6-4.2-6.1-3.3-5.3-8.8C2558.2,817.7,2562.7,827.3,2556.6,828.2Z"/><path class="cls-1" d="M2139,821.2c13.8-3.7,23.2,10.1,28,21C2157,858.4,2134.9,840.7,2139,821.2Z"/><path class="cls-1" d="M1602,842.2c-4.2-3.9-5.7-10.7-5.3-19.3,5.6.9,4-5.4,10.6-3.5C1609.1,824.4,1609.9,841.4,1602,842.2Z"/><path class="cls-1" d="M2272.3,859.8c-6.3-1-5.3,5.2-5.2,10.5,2.5-2,4.4-2,7,0v7c-16.3-2.6-6.8-20.2-8.8-36.8-4.5-.2-9-.3-8.7-5.3,5.3-1.2,6.3,1.8,10.5,1.8-1.3-7.1,1.7-10,1.7-15.8h5.3C2283.2,832.9,2263.7,848.8,2272.3,859.8Z"/><path class="cls-1" d="M1970.5,833.5c-5.9,1.2-6.4-3-7-7.1,2.4-.5,3.3-2.4,7-1.7C1971.7,830.1,1971.7,828.1,1970.5,833.5Z"/><path class="cls-1" d="M235.1,844c-12.9,1.2-15.6-7.8-17.5-17.6C230,818.9,242,832,235.1,844Z"/><path class="cls-1" d="M2467.1,829.9c6.7,3.6,13.2-2.9,14,7.1C2475,839.9,2468,837.1,2467.1,829.9Z"/><path class="cls-1" d="M2077.6,854.5c.5-7.2-2.3-6.8,0-12.3,3.3-.3,3.9,2,6.9,1.8C2085.3,850.6,2080.8,852,2077.6,854.5Z"/><path class="cls-1" d="M1854.7,858c-9.6.3-3.8-12.3,1.8-12.3C1857.3,851.3,1853.3,852,1854.7,858Z"/><path class="cls-1" d="M1349.4,845.7c7.2-1.4,10.2,6.8,7,10.6C1350.7,856,1348.6,852.3,1349.4,845.7Z"/><path class="cls-1" d="M1868.8,854.5c4.9.3,4.3-4.9,7-7,5.2,3.4,8.6-2.3,10.5,3.5C1881.3,848.8,1874.3,863.7,1868.8,854.5Z"/><path class="cls-1" d="M1689.8,873.8c-3.9-1.9-4-7.7-5.3-12.2,4.6-7.3,19.8-19.3,22.8-3.6C1702.2,864,1701.5,874.4,1689.8,873.8Z"/><path class="cls-1" d="M2589.9,858a6.7,6.7,0,0,1,8.8,0C2598.7,866.2,2589.9,866.2,2589.9,858Z"/><path class="cls-1" d="M1926.6,875.6c2.2-8-4.8-6.9-3.5-14,3.5-.1,2.3-4.8,7.1-3.6a104.5,104.5,0,0,1,5.2,15.8C1933.4,875.3,1930.7,876.1,1926.6,875.6Z"/><path class="cls-1" d="M2042.4,861.6c8.8,1.5,18.8,9.8,14.1,19.3C2046.3,879.9,2043.4,871.8,2042.4,861.6Z"/><path class="cls-1" d="M1444.1,863.3c5.5-3.6,22.1,5.9,21.1,8.8C1461,866.3,1445,872.3,1444.1,863.3Z"/><path class="cls-1" d="M1538.8,866.8c11.4-8.1,20,7.6,12.3,14.1h-8.8C1540.8,876.5,1538.3,873.2,1538.8,866.8Z"/><path class="cls-1" d="M2014.4,875.6c-2.8-2.7-2.6-10,3.5-8.8C2021.6,870.3,2017.9,874.3,2014.4,875.6Z"/><path class="cls-1" d="M2302.2,884.4c5.5,1.5,5.4-2.8,8.7-3.5,1.3,5.3-1.7,6.3-1.7,10.5C2303.7,892.2,2301.3,889.8,2302.2,884.4Z"/><path class="cls-1" d="M1654.7,898.4c1.3-5.7,2.9-11.1,10.5-10.5C1666.6,896.2,1661.5,898.2,1654.7,898.4Z"/><path class="cls-1" d="M2263.6,889.6c.3,5,.2,9.6-5.3,8.8C2257.9,893.4,2258.1,888.8,2263.6,889.6Z"/><path class="cls-1" d="M1361.6,908.9c-9.8,4.4-8.8-12.1-3.5-12.3C1359.6,900.4,1362.7,902.6,1361.6,908.9Z"/><path class="cls-1" d="M2561.8,919.4c-.5-2.3-2.5-3.3-1.7-7,2.4-.5,3.4-2.5,7-1.7C2567.4,915.7,2567.3,920.3,2561.8,919.4Z"/><path class="cls-1" d="M759.8,938.8c8.9-1.6,15.2-5.8,15.8-15.9-2.6-2.7-7.1-3.4-5.3-10.5.4-1.3,1.5-2,3.5-1.7,2.5,8.6,8.1,14.1,15.8,17.5,6.1-.8,4.3-9.8,8.7-12.2-.2,6.7.2,12.7,3.6,15.7,3.2.1,5.9-9,8.7-3.5-3.8,16.8,7.8,29.9,1.8,42.1-11.2,2.9-16,12.1-28,14.1-3.3-5.2-10.4-9.1-17.6-5.3C769.2,967,759.1,954.7,759.8,938.8Z"/><path class="cls-1" d="M1573.9,919.4c-4,.5-6.6-.4-7-3.4,2.5-.5,3-2.9,5.3-3.6C1572.8,914.8,1574.7,915.8,1573.9,919.4Z"/><path class="cls-1" d="M1372.2,912.4c2.8,2.6,2.5,10-3.6,8.8C1365.8,918.6,1366.1,911.2,1372.2,912.4Z"/><path class="cls-1" d="M2053,914.2c1.4,6.2-3.7,8.7-7,5.2C2045.4,914.8,2048.4,913.7,2053,914.2Z"/><path class="cls-1" d="M1738.9,914.2c.5,2.4,2.5,3.3,1.7,7h-5.2C1735.8,918.1,1733.6,912.4,1738.9,914.2Z"/><path class="cls-1" d="M2000.4,928.2c-10.4,1.2-11.2-14.4,0-12.2C2003.4,918.8,1998.8,921.8,2000.4,928.2Z"/><path class="cls-1" d="M1261.6,922.9c-6.1-.4-1.7,14.4-10.6,15.9,3.2-6.3-1.3-20.1,7.1-21.1C1257.6,921.1,1260.5,921.2,1261.6,922.9Z"/><path class="cls-1" d="M2230.2,924.7c-2.6,2.8-10,2.5-8.7-3.5C2225.8,920.9,2229.9,920.9,2230.2,924.7Z"/><path class="cls-1" d="M1437.1,921.2c2.8,8.7-6.1,10.9-10.6,7C1426.8,922.6,1430.5,920.5,1437.1,921.2Z"/><path class="cls-1" d="M496.6,921.2c2.7,9.3-11.6,9.3-8.8,0Z"/><path class="cls-1" d="M2526.7,924.7c3.1-.1,5.5.4,7.1,1.8a8.7,8.7,0,0,1-1.8,5.2C2527.4,932.3,2526.2,929.3,2526.7,924.7Z"/><path class="cls-1" d="M1984.6,931.7c-4.6.6-5.8-2.4-5.4-7C1983.9,924.2,1985,927.2,1984.6,931.7Z"/><path class="cls-1" d="M1923.1,952.8c-8.9.9-14.7-6.3-19.3,0-.9-13.8,3.7-22.1,10.5-28.1,4.8,2.3,9.9,4.2,14.1,7C1929.4,941.5,1926.2,947,1923.1,952.8Z"/><path class="cls-1" d="M2470.6,931.7c2.9,3.5-.2,2.3,0,7.1C2463.9,940.1,2463.9,930.4,2470.6,931.7Z"/><path class="cls-1" d="M1882.8,947.5c1.7-9.2-2.4-13.2,5.3-15.8C1886.7,934.9,1890,947.3,1882.8,947.5Z"/><path class="cls-1" d="M1849.4,933.5c.1,5.9-2.4,9.3-5.2,12.3C1844.8,940.5,1845.1,935.1,1849.4,933.5Z"/><path class="cls-1" d="M1721.4,945.8c-4.5-4.9-.7-12.2,6.9-10.6C1729.1,941.8,1724.6,943.2,1721.4,945.8Z"/><path class="cls-1" d="M1507.2,949.3c-5.4.8-7.8-1.5-7-7C1505.8,941.4,1508,943.8,1507.2,949.3Z"/><path class="cls-1" d="M956.3,949.3v7c-3.1.1-5.5-.4-7.1-1.8C948.7,949.9,951.7,948.8,956.3,949.3Z"/><path class="cls-1" d="M1849.4,970.3c-7-2.5-5.1-12.3-3.5-19.3h7C1855.8,955.7,1856.1,969.8,1849.4,970.3Z"/><path class="cls-1" d="M1874,952.8c2.9,6,.3,13.3-8.8,12.3C1862.8,961.3,1865.8,951.4,1874,952.8Z"/><path class="cls-1" d="M1051,959.8c.3-4.5,2.6-6.8,7.1-7C1057.5,956.9,1056.9,961,1051,959.8Z"/><path class="cls-1" d="M1765.2,965.1c-.4-1.4-1.5-2.1-3.5-1.8.2-4.4.3-9,5.3-8.8C1765.9,957.6,1769.1,964.8,1765.2,965.1Z"/><path class="cls-1" d="M2484.6,961.6c2.1-2.1,6.2-2,10.6-1.8C2497.1,966.6,2484.7,966.9,2484.6,961.6Z"/><path class="cls-1" d="M1414.2,965.1c-1.3,3.1-16.1-.1-10.5-3.5C1405.6,965.3,1412.4,958.7,1414.2,965.1Z"/><path class="cls-1" d="M1452.9,973.8c8.9-14,27.2-7.4,24.6,7C1475.2,992.9,1450.8,996,1452.9,973.8Z"/><path class="cls-1" d="M2272.3,975.6c-1-8,3.9-7.2,8.9-5.3C2283,977.4,2275.7,979,2272.3,975.6Z"/><path class="cls-1" d="M1707.3,986.1c-3-1.4-7.3-17,0-17.5C1710.6,972.3,1713.2,983.1,1707.3,986.1Z"/><path class="cls-1" d="M1542.3,979.1h5.4c-1.3,5.4-1.3,3.4,0,8.8C1540.1,988.5,1540.9,983.5,1542.3,979.1Z"/><path class="cls-1" d="M2042.4,980.8c5.8.7,5.3,15.7-3.5,12.3C2036.2,990.2,2037,980.9,2042.4,980.8Z"/><path class="cls-1" d="M1640.6,1014.2c-5.3-5.2-12.6-8.4-12.3-19.3,4.7-2.4,6.1-8,12.3-8.8C1645.3,992.8,1656.5,1012.4,1640.6,1014.2Z"/><path class="cls-1" d="M635.2,991.4c3.5,3.3.8,8.3,0,12.3-5,1.4-4.6-2.5-8.8-1.8C625.7,994.8,628.2,990.8,635.2,991.4Z"/><path class="cls-1" d="M891.4,998.4c-4.6.5-7.6-.6-7.1-5.3C888.9,992.6,891.9,993.8,891.4,998.4Z"/><path class="cls-1" d="M1121.2,1005.4v-8.8c3.4-.3,3.9,2,7,1.8C1129.1,1003.9,1126.7,1006.2,1121.2,1005.4Z"/><path class="cls-1" d="M77.2,1070.3c6.7-16.3,23.1-14.7,38.6-19.2,1.2-14.1,15.4-15,19.3-26.4-7-5.3-10.5-13.1-7-24.5,10.2-3.7,21.4-1.4,22.8,8.8.4,6.8-1.8,11.1-5.3,14,41,3,54.2,59.1,22.8,82.4a33.6,33.6,0,0,0-21,8.8c-1.5,29.9-23,58.1-52.7,52.7-10.3-1.9-29.2-17.3-31.6-29.9-3.3-17.3,9.6-33.6,12.3-45.6C77.5,1082.6,75.5,1074.5,77.2,1070.3Z"/><path class="cls-1" d="M1572.2,1003.7c-.5,5.1,4,5.4,3.5,10.5-3.4.8-7.6-5.4-7,1.8C1558,1015.8,1562.7,1002.6,1572.2,1003.7Z"/><path class="cls-1" d="M1472.1,1012.5c-2.6-6.4,6.5-9.8,8.8-5.3-2,.3-1.9,2.8-1.7,5.3Z"/><path class="cls-1" d="M1600.2,1016c-.2-4.5,2.8-5.6,5.3-7C1610.5,1013.1,1603.8,1020.2,1600.2,1016Z"/><path class="cls-1" d="M1561.6,1012.5v3.5c-1,.1-2,.2-1.7,1.7h-3.5c-.1-1.1-.3-2.1-1.8-1.7v-3.5c1.1-.1,2.1-.3,1.8-1.8h3.5C1560,1011.7,1560.2,1012.8,1561.6,1012.5Z"/><path class="cls-1" d="M2968.9,1019.5c9.8-1.7,22-11.5,26.4-3.5C2989.4,1020.5,2974.6,1025,2968.9,1019.5Z"/><path class="cls-1" d="M938.8,1021.2c2.3-.5,3.3-2.5,7-1.7v8.7C939.9,1029.4,939.3,1025.3,938.8,1021.2Z"/><path class="cls-1" d="M1559.9,1040.5c-3.3-6-9.3-9.4-8.8-19.3C1561.6,1018.3,1567.7,1036.7,1559.9,1040.5Z"/><path class="cls-1" d="M1984.6,1024.7c3.6,3.6,0,8.9-5.4,8.8C1978.9,1028.5,1979.1,1023.9,1984.6,1024.7Z"/><path class="cls-1" d="M2044.2,1030c-2.5.4-3,2.9-5.3,3.5-.5-2.4-2.4-3.4-1.7-7C2041.2,1026,2043.8,1026.9,2044.2,1030Z"/><path class="cls-1" d="M1509,1026.5c.9,4.5-6.2,9.9-8.8,5.3,2.8-.5,1.3-3.9,0-5.3Z"/><path class="cls-1" d="M2760.1,1033.5v-5.3c4.1-.4,6.6.5,7,3.6C2764.8,1032.3,2763.8,1034.3,2760.1,1033.5Z"/><path class="cls-1" d="M1491.5,1038.8c1.6-3.1-.1-9.4,5.2-8.8.6,2.4,2.5,3.3,1.8,7C1495.4,1036.9,1493,1037.4,1491.5,1038.8Z"/><path class="cls-1" d="M800.1,1033.5c2.7,5.6,3.2,14.9-7,12.3C792.4,1038.6,793.7,1033.6,800.1,1033.5Z"/><path class="cls-1" d="M1038.8,1035.3c10-.7,17.1,1.5,22.8,5.2C1052.2,1040.6,1045.8,1037.6,1038.8,1035.3Z"/><path class="cls-1" d="M2002.1,1049.3c.3-2.6,4.2-1.6,7-1.7C2012.8,1054,2000.1,1055.4,2002.1,1049.3Z"/><path class="cls-1" d="M1586.2,1072.1c.7-8.6,1.6-14.2,5.3-15.8,1.4,3.8,4.6,6,3.5,12.3C1591.6,1069.3,1591.8,1073.6,1586.2,1072.1Z"/><path class="cls-1" d="M1570.4,1070.3c-4.6.6-5.7-2.4-5.2-7C1569.8,1062.8,1570.9,1065.8,1570.4,1070.3Z"/><path class="cls-1" d="M1287.9,1087.9c1.3,7.1-1.7,10-8.7,8.8C1279.9,1091.6,1282.8,1088.7,1287.9,1087.9Z"/><path class="cls-1" d="M2035.4,1105.4c-1.3-6.7,8.4-6.7,7,0C2037.6,1105.3,2038.9,1108.4,2035.4,1105.4Z"/><path class="cls-1" d="M2686.4,1109c2.4-.6,3.4-2.5,7.1-1.8v5.2C2689.4,1113,2686.8,1112,2686.4,1109Z"/><path class="cls-1" d="M2598.7,1117.7c-.5-4,.3-6.7,1.7-8.7,3.1-.2,5.5.3,7.1,1.7C2607.1,1115.6,2604.4,1118.2,2598.7,1117.7Z"/><path class="cls-1" d="M986.1,1130c-.8,9.5-11.5,16.4-28.1,14C934.5,1113.9,988.5,1100.6,986.1,1130Z"/><path class="cls-1" d="M2575.9,1116a6.3,6.3,0,0,1,8.7,0,8.6,8.6,0,0,1-1.7,5.3C2578.5,1121.5,2577.5,1118.5,2575.9,1116Z"/><path class="cls-1" d="M0,1193.2v-71.9C67.1,1099.4,55.7,1216.6,0,1193.2Z"/><path class="cls-1" d="M1105.4,1124.8c.1,2.2,2.3,2.4,1.8,5.2-9.8,4.8-13.8,15.5-28.1,15.8-.9-2.6-2.6-4.4-3.5-7C1081,1130.5,1096.3,1123.6,1105.4,1124.8Z"/><path class="cls-1" d="M1128.2,1126.5c1.1,9.8-11.7,16.5-17.5,8.8,2.9-2.4,2.7-7.8,5.3-10.5C1120.6,1124.8,1126,1124.1,1128.2,1126.5Z"/><path class="cls-1" d="M2647.8,1126.5v8.8C2639.2,1137,2639.2,1124.7,2647.8,1126.5Z"/><path class="cls-1" d="M2793.5,1133.5c14.4-2.2,24.6-5.9,36.8-3.5v5.3C2818.7,1134,2801,1142.1,2793.5,1133.5Z"/><path class="cls-1" d="M1180.9,1133.5c-2.4.6-3.4,2.5-7,1.8V1130C1177.9,1129.5,1180.5,1130.4,1180.9,1133.5Z"/><path class="cls-1" d="M1965.2,1131.8c.8,3.3,3.8,4.4,3.5,8.7-3.3.4-3.8-1.9-7-1.7C1962,1135.5,1962.9,1132.9,1965.2,1131.8Z"/><path class="cls-1" d="M1326.6,1138.8c-4.7.5-5.8-2.5-5.3-7C1325.9,1131.2,1327,1134.2,1326.6,1138.8Z"/><path class="cls-1" d="M2012.6,1135.3c2.3-2.4,7.7-1.8,12.3-1.8C2024.7,1140.8,2016.3,1137.9,2012.6,1135.3Z"/><path class="cls-1" d="M2981.2,1144c-3.8,14.7-24.4,1.7-24.6-8.7C2968.2,1134.8,2975.5,1138.6,2981.2,1144Z"/><path class="cls-1" d="M2009.1,1159.8c-7-11.9-25.4,11.1-29.9-3.5,20-7.9,45.2-17.3,72-15.8C2036.6,1146.4,2017,1147.2,2009.1,1159.8Z"/><path class="cls-1" d="M1342.3,1156.3c-6.6-.9-7.9-7.3-12.3-10.5,3.3-.3,1.1-5.9,3.5-7h7.1C1339.7,1146.5,1345.9,1147.5,1342.3,1156.3Z"/><path class="cls-1" d="M1238.8,1149.3c-.3-5-.2-9.6,5.2-8.8C1244.4,1145.6,1244.3,1150.1,1238.8,1149.3Z"/><path class="cls-1" d="M2082.8,1166.9c-.4-6.3,1.2-10.5,5.3-12.3C2094.6,1159.4,2087.3,1163.5,2082.8,1166.9Z"/><path class="cls-1" d="M817.7,1166.9c-.5-4.2-6.1-3.3-5.3-8.8C820,1157,823.3,1163.9,817.7,1166.9Z"/><path class="cls-1" d="M701.9,1168.6c-1.5-2-2.4-4.7-1.8-8.8C706.6,1158.2,707.1,1168.5,701.9,1168.6Z"/><path class="cls-1" d="M1202,1163.4c.7,6-.7,9.8-1.8,14-12.6,1.1-9.8-6.5-7-14Z"/><path class="cls-1" d="M2956.6,1165.1c2.1,5.5-2.7,4.2-3.5,7-4.4-1.4-6.9-4.7-10.5-7Z"/><path class="cls-1" d="M2493.4,1173.9c-4.1,3.6-12.9,1.3-10.5-7C2487,1168.6,2494,1167.4,2493.4,1173.9Z"/><path class="cls-1" d="M954.5,1170.4c5.2,18-10.7,28.6-24.5,33.3C916.9,1187.6,936.5,1165.8,954.5,1170.4Z"/><path class="cls-1" d="M965.1,1193.2c-7.5,1.6-8.9-2.9-10.6-7.1C958.7,1180.3,966.8,1183.6,965.1,1193.2Z"/><path class="cls-1" d="M1433.5,1198.5c-.8-6.7.8-11,5.3-12.4C1442.6,1190.5,1440.1,1199.1,1433.5,1198.5Z"/><path class="cls-1" d="M680.8,1203.7h8.8c.7,6-.6,10-7.1,8.8C684,1207.5,680.1,1208,680.8,1203.7Z"/><path class="cls-1" d="M1414.2,1207.2c2,3.3,2.3,8.3,3.6,12.3-2.1,2-6.2,2-10.6,1.8-.2-2.1.4-5-1.7-5.3C1406.2,1210.9,1409.2,1208,1414.2,1207.2Z"/><path class="cls-1" d="M2833.8,1216a469,469,0,0,1,54.4,0C2880.2,1223.3,2851.8,1217.3,2833.8,1216Z"/><path class="cls-1" d="M1551.1,1217.7c-4.5,4.7-6.5,1.7-12.3,3.6C1538,1215,1551.1,1212.6,1551.1,1217.7Z"/><path class="cls-1" d="M1165.1,1219.5c3.9,2.7,5.9,12.4-3.5,10.5C1159.8,1225.2,1160.5,1221.8,1165.1,1219.5Z"/><path class="cls-1" d="M2123.2,1223c7.6-2.9,13.3,2.1,21,1.7.5,6.3-2.5,9.2-8.8,8.8C2135.1,1222.7,2125.6,1231.8,2123.2,1223Z"/><path class="cls-1" d="M1473.9,1223c1.4,1.2,3.9,9.8,0,10.5C1469.2,1230.5,1467.1,1225.1,1473.9,1223Z"/><path class="cls-1" d="M2533.8,1245.8a38.2,38.2,0,0,0-1.8-15.8c3.3.4,3.9-2,7-1.7,3.1,7-2.1,11.4,1.8,17.5Z"/><path class="cls-1" d="M2102.1,1235.3v-7h5.3C2107.9,1232.9,2108,1237.1,2102.1,1235.3Z"/><path class="cls-1" d="M1665.2,1231.8v5.3c-4,.4-6.6-.5-7-3.6C1660.5,1233,1661.5,1231,1665.2,1231.8Z"/><path class="cls-1" d="M2581.2,1244.1c-.6-4.1.2-6.8,1.7-8.8,5.7-.5,8.5,2.1,8.8,7C2587.1,1244.5,2586.3,1246.1,2581.2,1244.1Z"/><path class="cls-1" d="M1696.8,1244.1c-4.5-.3-6.9-2.6-7-7C1693.8,1237.6,1698,1238.2,1696.8,1244.1Z"/><path class="cls-1" d="M1480.9,1237.1c2.4,2.2,2.8,8.5-1.7,8.7C1478.6,1241.7,1475.4,1238.3,1480.9,1237.1Z"/><path class="cls-1" d="M2158.3,1252.8c-.5-4.5.6-7.5,5.2-7,.1,1.1.2,2.1,1.8,1.8C2165.8,1252.2,2162.8,1253.3,2158.3,1252.8Z"/><path class="cls-1" d="M1272.1,1252.8c3.5,3.3.9,8.3,0,12.3-5.2,0-10.7.2-10.5-5.3S1266.6,1253.2,1272.1,1252.8Z"/><path class="cls-1" d="M2495.2,1265.1a8.8,8.8,0,0,1,5.2-5.3c5.4,2.9,9.4,7.1,8.8,15.8C2500.7,1276,2496.3,1272.2,2495.2,1265.1Z"/><path class="cls-1" d="M968.6,1312.5c-3.3-.7-3.2-5-8.8-3.5-1.5-12-6.3-20.5-5.3-35.1,8.2-13.3,30.6-18.6,42.1-5.3,7.3,23.4-9.4,35.6-22.7,43.9,9.8-3.1,12.7,7,19.2,1.8,8.1,16.7,7.1,34.9-3.5,49.1C954.2,1381.4,941,1324.2,968.6,1312.5Z"/><path class="cls-1" d="M2244.2,1266.9c-.5-4.6,2.5-5.8,7.1-5.3C2252.6,1267.8,2246.7,1269.5,2244.2,1266.9Z"/><path class="cls-1" d="M1331.8,1265.1c.5,2.4,2.5,3.4,1.7,7a8.7,8.7,0,0,0-5.2,1.8C1324.5,1270.3,1327.3,1265.5,1331.8,1265.1Z"/><path class="cls-1" d="M1433.5,1266.9c1.6,3.1,5,4.4,3.6,10.5-4.1.6-6.8-.3-8.8-1.8C1427.5,1270.2,1430.5,1268.5,1433.5,1266.9Z"/><path class="cls-1" d="M1400.2,1305.5a160.6,160.6,0,0,1-17.5,17.5c-23.1,5.6-33.1-27.1-22.8-49.1C1380,1261.5,1400.1,1281.8,1400.2,1305.5Z"/><path class="cls-1" d="M2261.8,1270.4c5.4,1.2,3.3,1.2,8.8,0,1.5,8-5.8,7.1-10.6,8.8C2256.8,1276,2260.8,1274,2261.8,1270.4Z"/><path class="cls-1" d="M1989.9,1277.4c3.7,1.5,4,6.5,3.4,12.3-4.7,0-10,.6-12.3-1.8C1981.5,1282,1983.1,1277.2,1989.9,1277.4Z"/><path class="cls-1" d="M2286.3,1291.4c-.8-4.5,6.3-9.9,8.8-5.2C2292.4,1288.1,2291.5,1291.9,2286.3,1291.4Z"/><path class="cls-1" d="M2098.6,1286.2c7.1-2.4,5.6,3.8,10.5,3.5.9,5.5-3.1,6.2-1.7,12.2-5.4,1.4-5.2-3-10.6-1.7C2097,1295.1,2095.9,1288.7,2098.6,1286.2Z"/><path class="cls-1" d="M1977.5,1287.9a9,9,0,0,0,1.7,5.3c-2.5.9-4.4,2.6-7,3.5C1968.2,1292.7,1971.8,1287.4,1977.5,1287.9Z"/><path class="cls-1" d="M1073.8,1293.2c.4,5-.4,8.9-3.5,10.5C1067.6,1301,1067.2,1291.7,1073.8,1293.2Z"/><path class="cls-1" d="M1342.3,1294.9c4.2,4.7-.2,11.5-5.2,12.3C1333.4,1303,1335,1293.5,1342.3,1294.9Z"/><path class="cls-1" d="M357.9,1296.7c2.7,2.7,3.2,12-3.5,10.5-3.4-1.5-4.7-7.7-1.7-10.5Z"/><path class="cls-1" d="M1317.8,1301.9v8.9H1309C1307.7,1303.6,1310.7,1300.7,1317.8,1301.9Z"/><path class="cls-1" d="M503.6,1301.9v12.4h-8.8c0-4.7-.7-10.1,1.8-12.4Z"/><path class="cls-1" d="M1456.4,1303.7c2.8,2.6,2.6,10-3.5,8.8C1453.6,1309.2,1450.5,1301.9,1456.4,1303.7Z"/><path class="cls-1" d="M1996.8,1305.5c-2,5.5,2.8,4.2,3.6,7-11,4.9,6.8,19.3-8.9,21.1-1.1-9.7,1.7-13.9-1.6-26.4C1993.1,1307.6,1993.7,1305.3,1996.8,1305.5Z"/><path class="cls-1" d="M2882.9,1310.8c0,6.8-16.7,3.6-17.5,0A23.1,23.1,0,0,1,2882.9,1310.8Z"/><path class="cls-1" d="M2377.6,1310.8c2,2.1,5,3.1,3.5,8.7C2373.5,1322.2,2371.7,1311.5,2377.6,1310.8Z"/><path class="cls-1" d="M2272.3,1314.3c6.2,1.5,9.1-4.6,10.6,1.7C2279,1316.8,2273.3,1320,2272.3,1314.3Z"/><path class="cls-1" d="M3014.6,1344.1c-15-4.5-35.3-12.5-33.4-28.1C2995.1,1314,3026.7,1325.6,3014.6,1344.1Z"/><path class="cls-1" d="M2542.5,1324.8c-.3-5-.2-9.6,5.3-8.8C2550.8,1319,2549.2,1326.3,2542.5,1324.8Z"/><path class="cls-1" d="M2386.4,1380.9c-28.2,5.9-30.1-14.3-47.4-19.2,6.7-9.2,18.6-18.5,14-33.4,12.1,4.7,25.3-2.8,36.9,5.3C2406,1344.9,2400.1,1372,2386.4,1380.9Z"/><path class="cls-1" d="M1995.1,1359.9c-.3-4.5,2.6-5.5,5.3-7C2005.3,1357.1,1998.6,1364.2,1995.1,1359.9Z"/><path class="cls-1" d="M1902.1,1352.9c.8,5.5-1.6,7.8-7,7C1894.3,1354.4,1896.6,1352.1,1902.1,1352.9Z"/><path class="cls-1" d="M3018,1354.6c1.4,6.8-8.3,6.8-6.9,0Z"/><path class="cls-1" d="M3007.5,1356.4c-.3,3.3,2,3.8,1.8,7-9.4,0-15.2-3.6-19.3-8.8C2995.9,1355.1,3000,1357.4,3007.5,1356.4Z"/><path class="cls-1" d="M2649.6,1363.4c-5.4-2.3-15.6.4-17.6-5.3C2637.4,1360.4,2647.6,1357.7,2649.6,1363.4Z"/><path class="cls-1" d="M2135.4,1366.9c-2.7-2.5-1.7-9.2,3.6-8.8C2141.8,1360.8,2141.5,1368.1,2135.4,1366.9Z"/><path class="cls-1" d="M2937.4,1368.6v-6.9h8.7C2945.8,1366.6,2943.1,1369.1,2937.4,1368.6Z"/><path class="cls-1" d="M2807.5,1386.2c-11.7.6-16.1-6-17.6-15.8C2799.1,1348.8,2827.9,1374,2807.5,1386.2Z"/><path class="cls-1" d="M1530.1,1368.6c-7,2.3-4.6-4.7-7-6.9h5.2C1528.2,1364.7,1528.7,1367.1,1530.1,1368.6Z"/><path class="cls-1" d="M2672.4,1366.9c-5.4.1-9.7-.8-12.3-3.5C2665.1,1363.7,2672.1,1361.9,2672.4,1366.9Z"/><path class="cls-1" d="M2017.9,1366.9c.1,5.4-1.6,8.9-5.3,10.5-.4-1.3-1.5-2-3.5-1.8-.6-5.9,3.1-7.4,5.3-10.5C2014.7,1366.5,2015.8,1367.2,2017.9,1366.9Z"/><path class="cls-1" d="M1449.4,1366.9c2.1,5.4,2.7,12.5,3.5,19.3-5.1-.2-11.5.9-14.1-1.7C1442,1378.3,1441,1367.9,1449.4,1366.9Z"/><path class="cls-1" d="M2835.6,1373.9c-3.2-1-7.3,5.2-8.8,0,3.4-.7,1.4-6.8,7-5.3A8.8,8.8,0,0,0,2835.6,1373.9Z"/><path class="cls-1" d="M2858.4,1382.7c4.4,10.5-10.5,7.7-21.1,7C2838.3,1381.9,2854.8,1382.2,2858.4,1382.7Z"/><path class="cls-1" d="M1391.5,1380.9c.3,1.4,1.4,2.1,3.4,1.8v5.2h-3.4C1388.4,1386.4,1386.6,1381.5,1391.5,1380.9Z"/><path class="cls-1" d="M2360.1,1395c-4-4.5.9-10.7,7-10.5C2367.5,1390.8,2367.5,1396.6,2360.1,1395Z"/><path class="cls-1" d="M2951.4,1395c-8.2.6-14.5-.7-15.8-7.1C2941,1384.2,2953.6,1385.5,2951.4,1395Z"/><path class="cls-1" d="M2751.3,1386.2c25.7-6.9,34.8,15.7,43.9,29.8-4,25.2-22.2,38.2-45.6,28.1S2731.7,1391.5,2751.3,1386.2Z"/><path class="cls-1" d="M2561.8,1398.5c-7.4,1.6-7.4-4.2-6.9-10.6h5.2C2562.1,1390,2562,1394.2,2561.8,1398.5Z"/><path class="cls-1" d="M1702,1387.9c-1.5,9.6-3.7,18.6-8.8,24.6C1689.8,1404.3,1692.9,1389.2,1702,1387.9Z"/><path class="cls-1" d="M1663.4,1400.2c-2.7-2.5-1.7-9.1,3.5-8.7C1669.7,1394.1,1669.5,1401.5,1663.4,1400.2Z"/><path class="cls-1" d="M1884.5,1393.2c4.6-.5,7.6.7,7,5.3C1887,1399,1884,1397.8,1884.5,1393.2Z"/><path class="cls-1" d="M1059.8,1428.3c-6.1,8.1-20.1,4.3-26.3-1.7C1027,1395.6,1065.9,1400.6,1059.8,1428.3Z"/><path class="cls-1" d="M2386.4,1416c-7.8.2-12.7-2.5-15.8-7C2378.3,1408.9,2384.9,1409.9,2386.4,1416Z"/><path class="cls-1" d="M2847.9,1410.8c1.5,13.6-16,7.1-22.8,5.2C2833.2,1414.8,2837.4,1409.7,2847.9,1410.8Z"/><path class="cls-1" d="M1075.6,1417.8c-4.7.5-5.7-2.5-5.3-7C1075,1410.2,1076.1,1413.2,1075.6,1417.8Z"/><path class="cls-1" d="M1749.4,1412.5c.6,2.4,2.5,3.3,1.8,7h-5.3C1745.4,1415.5,1746.3,1412.9,1749.4,1412.5Z"/><path class="cls-1" d="M1679.2,1424.8c2.4,14.1-3.5,39.3-14,50.9C1651.4,1465.8,1669.5,1433.9,1679.2,1424.8Z"/><path class="cls-1" d="M1198.5,1435.3c16.7-20.7,32.1,17.6,19.2,31.7-26.5,2.3-18.7-24.8-24.5-35.2C1196.6,1431.3,1196.7,1434.2,1198.5,1435.3Z"/><path class="cls-1" d="M866.8,1433.6c1.5,4.9-2.5,4.5-1.8,8.8-3.3.3-3.8-2-7-1.8C856.6,1432.1,861.1,1430.7,866.8,1433.6Z"/><path class="cls-1" d="M2402.2,1438.9c2-2.1,6.2-2.1,10.5-1.8C2415.3,1446,2402.9,1442.1,2402.2,1438.9Z"/><path class="cls-1" d="M1612.6,1438.9c1.4,3.6,7.2,6.8,3.5,10.5C1608.6,1451.7,1606.6,1439.6,1612.6,1438.9Z"/><path class="cls-1" d="M2426.7,1447.6c-6.4-1.1-12.1,5.5-12.3-3.5C2419.6,1446.6,2423.1,1442.1,2426.7,1447.6Z"/><path class="cls-1" d="M2530.2,1451.1c3.2.2,4.2-1.7,3.6-5.2,5.3,2.2,8.9-2.4,8.7,7C2538.9,1451.8,2531,1455,2530.2,1451.1Z"/><path class="cls-1" d="M2112.6,1451.1c1.4,6.7-11.3,3.8-8.7-1.7C2108.8,1447.9,2108.4,1451.8,2112.6,1451.1Z"/><path class="cls-1" d="M1373.9,1454.6c-4.3.2-13.1,11.2-15.8,1.8C1360.2,1453.7,1370.7,1450.4,1373.9,1454.6Z"/><path class="cls-1" d="M2414.4,1465.2c-4.4-.2-6.8-2.6-6.9-7.1C2412.3,1452.7,2419.9,1460.3,2414.4,1465.2Z"/><path class="cls-1" d="M2007.4,1463.4v12.3c-14.7.4-3.1,17-12.3,21C1981.1,1495.5,1984.6,1443.3,2007.4,1463.4Z"/><path class="cls-1" d="M2372.3,1521.3c6.3-1,8.5,2.1,12.3,3.5-1.2-6.7,7.1-8.4,1.8-14,14.7-8.1,22.6-22.1,28-35.1a14.7,14.7,0,0,1,8.8,8.8c8.9-3.2-2.9-17,7-17.5,2.3,5.9,3.8,12.5,7.1,17.5,10.8-1.7,19,3.2,26.3,0,2.4,6.3,4.8,12.7,12.3,14,5.5-2.7,6.2-10.1,15.8-8.8-6.7,9.6-17.2,26.2,0,31.6-.7,6.3-4.7,6.4-1.8,12.3,3.3.4,3.9-2,7-1.8-2.1,8,4.9,6.9,3.5,14.1-1.8,3.4-8.1,2.4-10.5,5.2-.8,15.6-13.2,19.6-21.1,28.1-.4,5.2,4,5.4,3.5,10.6-5.1.4-5.4-4-10.5-3.6-8.5.9-5.4,13.3-8.7,19.3-2.7-3.7-2-10.9-7.1-12.2-4.9,1.4-4.5-2.5-8.7-1.8s-1.4,6.8-7.1,5.3c-5.6-11.4-25-12.4-31.6-8.8,5.7-18.8-11.8-27.4-21-31.6a9,9,0,0,0,5.3-5.3c-3.2-2.1-5.1-5.4-8.8-7a27.4,27.4,0,0,0,8.8-10.5C2376,1532.8,2376,1525.3,2372.3,1521.3Z"/><path class="cls-1" d="M2775.9,1502c-2.3,2.5-9.9,2.5-12.3,0,.6-4.1,2.1-7.2,3.5-10.5C2774.1,1490.9,2776.6,1494.9,2775.9,1502Z"/><path class="cls-1" d="M1600.2,1503.8c-6.9.5-9.4-3.4-8.7-10.6C1596.1,1488.8,1606.1,1497.7,1600.2,1503.8Z"/><path class="cls-1" d="M2888.2,1496.7c.5,4.6-.6,7.6-5.3,7.1-.5-2.4-2.4-3.4-1.7-7.1Z"/><path class="cls-1" d="M1893.3,1502c-1.6,5.5-1.8,12.2-8.8,12.3C1880.2,1508.7,1885.3,1500.8,1893.3,1502Z"/><path class="cls-1" d="M1844.2,1509.1c3.4,3.5,1.1,11.4-1.8,14C1842.1,1517.8,1833.7,1509.9,1844.2,1509.1Z"/><path class="cls-1" d="M1745.9,1549.4c-11.5-5-13.8-15.6-10.5-22.8C1743.5,1508.3,1773.1,1545.4,1745.9,1549.4Z"/><path class="cls-1" d="M1684.5,1542.4c4.2,1.2,5.4,9.7-1.8,8.7C1680.3,1548.9,1680,1542.6,1684.5,1542.4Z"/><path class="cls-1" d="M2754.9,1552.9c-4.7.5-5.8-2.4-5.3-7C2754.2,1545.3,2755.4,1548.3,2754.9,1552.9Z"/><path class="cls-1" d="M2109.1,1552.9c-4.6.5-4.5-3.6-5.2-7C2108.6,1546,2112.3,1549.9,2109.1,1552.9Z"/><path class="cls-1" d="M1968.7,1545.9c.2,1,.3,2.1,1.8,1.7.6,4.6-2.4,5.8-7,5.3C1963,1548.3,1964.1,1545.3,1968.7,1545.9Z"/><path class="cls-1" d="M440.4,1556.4c-4.4,1.5-6.9,4.8-12.3,5.3C427.2,1556,437.2,1552.2,440.4,1556.4Z"/><path class="cls-1" d="M1502,1556.4c2.2,7.7-4.4,11.2-8.8,7C1492,1556.9,1496,1555.7,1502,1556.4Z"/><path class="cls-1" d="M1726.6,1566.9c-4.4-.2-6.8-2.5-7-7h7Z"/><path class="cls-1" d="M1237,1563.4h7c.3,7.3-3.4,9.6-8.7,7C1234.9,1567.1,1237.3,1566.6,1237,1563.4Z"/><path class="cls-1" d="M2544.3,1570.4c.7,3.4,3.8,4.5,3.5,8.8C2542.6,1581.3,2540.3,1571.8,2544.3,1570.4Z"/><path class="cls-1" d="M2019.7,1573.9c1.2,8.3-6.4,7.7-12.3,8.8C2008.7,1577.3,2014.3,1569.9,2019.7,1573.9Z"/><path class="cls-1" d="M1940.7,1573.9c5.1,1.5,5.2,13.1-3.5,10.6C1936.8,1579.4,1937.6,1575.6,1940.7,1573.9Z"/><path class="cls-1" d="M2925,1579.2c2.8,5.5,1.2,9.8-1.7,14.1-8.4-1.2-11.4-6.1-8.8-14.1Z"/><path class="cls-1" d="M1784.5,1584.5c-1.3,5.3,3.1,5.2,1.7,10.5C1778.7,1596.2,1780.5,1585.9,1784.5,1584.5Z"/><path class="cls-1" d="M1663.4,1610.8c-5.6,3.2-3.6,13.9-14,12.3C1647.7,1613.7,1657,1606.2,1663.4,1610.8Z"/><path class="cls-1" d="M1477.5,1621.4c.4,4.5-2.5,5.7-7.1,5.2C1469.9,1622,1472.8,1620.8,1477.5,1621.4Z"/><path class="cls-1" d="M1231.8,1633.6c.4,1.4,1.4,2.1,3.5,1.8v5.2a9.1,9.1,0,0,0-5.3,1.8C1227.3,1639.7,1228.7,1635.2,1231.8,1633.6Z"/><path class="cls-1" d="M152.6,1645.9c-5.7,5.4-11.2,1-14-5.3C143.6,1636.4,150.7,1641.4,152.6,1645.9Z"/><path class="cls-1" d="M2495.2,1652.9c-2.2,6-5.2,11.2-12.3,12.3,0-3.5-4.8-2.2-3.6-7C2485.8,1657.6,2486.5,1651.2,2495.2,1652.9Z"/><path class="cls-1" d="M2056.5,1674c-9.1-.5-19.1-4.7-14.1-14.1C2051,1660.8,2057.6,1663.6,2056.5,1674Z"/><path class="cls-1" d="M2489.9,1665.2h8.8C2498.1,1672.3,2490.9,1670.2,2489.9,1665.2Z"/><path class="cls-1" d="M1421.3,1677.5c.4,3.3-2,3.8-1.8,7C1411.7,1685.5,1413.5,1675,1421.3,1677.5Z"/><path class="cls-1" d="M2146,1689.8c2.6,5.4-.3,6.8-3.6,10.5C2138.7,1696.6,2141.8,1690.7,2146,1689.8Z"/><path class="cls-1" d="M2082.8,1700.3c-4.3.2-8.4.3-10.5-1.8v-5.2C2076.9,1689.2,2083.4,1693.8,2082.8,1700.3Z"/><path class="cls-1" d="M2133.7,1695c-8.1,13.2,6.6,38.2-12.3,40.4C2122.1,1726.4,2126.7,1697.6,2133.7,1695Z"/><path class="cls-1" d="M1640.6,1700.3c-4.6.5-5.7-2.5-5.2-7C1640.1,1693.4,1643.8,1697.3,1640.6,1700.3Z"/><path class="cls-1" d="M2416.2,1695c4.7,3.1,5.1,14.9-1.8,15.8C2407.5,1709.4,2406.8,1694.3,2416.2,1695Z"/><path class="cls-1" d="M2182.8,1712.6c3,3.5-.1,2.2,0,7C2176.1,1721,2176.1,1711.2,2182.8,1712.6Z"/><path class="cls-1" d="M595.3,199.9c-.1,7.6-.4,15.2,4.5,24.7,6.1,5.4,14.5,4.4,18.6,14.9-4.8,8.4,4.8,19.1,7.8,28.3,6.6.3,9.8,9.7,18.3,5,2.8,4.9,6.1.7,9.4,2.4.3,4.7,2.1,7.6,3.7,11.7,13.5-.1,3.4-14.7,4.8-20.6,2.9,8.7,11.6,10.9,17.5,16.3,3.7-7.3-7.8-20.5-14.9-21.7-2.4.5-.5,2.6-2.8,3-4.6-10.8-1.2-18.8,4.3-27.1-.4-12.3-10.1-20.5-8.8-30.3.6-4.5,5.1-7.8,6.9-12.3,3.4-8.5,2.7-16-.1-25.9,2.3-4.3,7.3-7.6,9.6-11.9,7.8.8,9.1-2.4,12.1,4.5,3-1,.8-3.9,2.6-5.4,14.5-1.6,23-12.9,22-25.1.8-.8,3.9-.8,3.1-2.2-1.7,1-2.7.1-3.3-1.9s5-3,4-5.9-4.3,2-5.5.8-2.6-2.9-2.6-5.5,5-.4,4.3-3.6c-8.4,4.9-14.5-5.4-22.7-5.6.4-.9.7-4.6-1.2-4.5s.4,4.4-2.5,5.4c-10.2.7-16.4,4.3-24.3,11-5.2-.3-9.6-2.8-15.2-2.2.8-1.9-5.2-4.7-6.1-2.3,1.4,3,4.7,1,6,4-8.8,4.4-4.7,16.5-10.9,20-9.6-5.5,2.1-14.5-3.9-23.3-5.3-3.2-11.1-5.1-16.8-7.4-1.8-6.3-9.6-8.8-16.1-7.7.9-3.5,2.4-3.4-1.5-5.2-.1-1.7,4.5-1.7,4.2-3.5-2.6-.8-5.8,0-7-4.4,2.8-.6,4.4,1.7,7.9-1.1.5-3.5,4.5-4.7,10.8-7.4,10.8-8.8,16.7-19.4,17.2-32.1-3.1-3.1-2.6-8.7-4.4-13.1-.2-2,5.8-1.7,4-4.3s-4,1.2-4.2,1.9c-3.6-7.5-15.3-14.1-15.3-20.6-4.5-.9-12.8-4.4-19.6-4.4l-1,.4a10.2,10.2,0,0,1-.8-2.1,3.8,3.8,0,0,0-.3,2.6l-2.2,1c-3.7-1.1-7.4-2-11.2-3-.8-.8-.3-1.9-1.3-2.7-3.9,2.5-9.4-.1-12.7,1.4-1.7.8-2.2,3.4-4.6,3.7.9,2.5.7,6.9-1.6,9.1-1,.1-1.3-2.2-2.5-1.5.3,2.1-1.3,3.2-.2,5.8-.4.3-1.7.1-1.3.9s-.7-1.9-1.4-2c-.3,2.2,2.7,5.8,1.1,8.5.4,1.3,1.3.8,1.8,1.4s-.1,4.5.7,6.4a11.3,11.3,0,0,0-.5,4.1c.5,3.9,4.2,7.5,5.1,11.1s-3.1,3.4-3.3,5.7a24.2,24.2,0,0,1,5.3,5.9c-1.9,1.7-1.8,4-4.3,5.3-5.6-7.2-17.4-7.7-25.8-12.5-1.7-6.9-3.3-13.8-3.3-20.2l-16,7.3c1.6,5.4-1.1,9.1-5.2,12.4,7.6,7,12.8,20.2,23.2,19.6,2.5,3,1.4,6.4,4.8,6.9,2.9-1.9,5.7-4,7.1-6.5,4.4,2.4,10.6.2,13.7,6.3,6.2-4.2,9.7-1.4,12.8,2.5-4.4-.1-5.5-.7-10.2,1.3-.4,2.5-.3,5.2-.6,7.8A10.3,10.3,0,0,0,565.3,94c2.1,7-2.3,11.7-1.7,18.3a183.8,183.8,0,0,0-41.7-5.2c6.9,5.6,18.3,2.1,22.9,9.6,1.6-.5-.2-2.3,1.1-3,8.7,1.7,16.8,5.3,24.5,9.7-4.9,4-1.3,11-5.7,15.1,8.7,12.1,5.3,28,16,38.7,1.7,2-1.1,2.3-.8,3.8,3.7.3,10.2,11.1,7.8,13.2C589.8,197,593.3,196.5,595.3,199.9ZM594,90.9c2.4,2.7-1.2,4.6-3.2,4C588.6,91.7,591.8,91,594,90.9ZM559.2,75c-.9-2.6-6.8-2.7-2.6-5.5C556.9,72.1,560.7,72.8,559.2,75Zm.1-3.4c2.1-.4.8-2,2.1-2.6s.7,1.3,1.3,1-.5-1.4.1-1.7.5.8,1,.4l.7,1.4C561.7,70.6,561.2,74,559.3,71.6Z"/><path class="cls-1" d="M661.5,591.3c6.1.4,6.6,6.2,12.3,7,5.3-9.3,13.5-20.9,14-29.8,4.2,12.7,19.9,13.3,31.6,10.5,2.1,14.8,15.6,25.8,14,38.7,19.4-7.6,21.8,13.4,28.1,24.5-.3,6.1-6.2,6.7-7,12.3,9.2,12.7,23.4.1,33.3,0,15.2-.2,23.3,15.5,38.7,12.3-6.9-5-4.1-6.3,0-12.3-6.9-6.1-13.3-12.5-22.8-15.8.4-5.9,2.7-10.1,1.7-17.5-8.5-2.1-11-10.1-17.6-14.1-18.9,19.5-43.7-.1-52.6-15.8,9.3.4,4.4-12.8,1.7-15.8,6.7-3.3,10.5-9.5,8.8-21,5.6-.9,6.9,3.8,10.5,0s-5.1-7.3,0-8.8c.2,1.4,5.8,5.3,5.3,1.8,1.4-9.1-1.4-13.8-5.3-17.6,22.7-2.5,25.4-25,40.4-35.1,16.8,1.5,25.8-4.1,45.6,0,9.9,11.8,22.6,20.7,36.9,28.1-10.7,3-.1,16.5,3.5,21,18.1-6.1,25.6-5.3,45.6-12.3-2.6,14-18.5,15.4-29.8,15.9V558c-8.1-1-10.9,3.1-19.3,1.7.2,9.6-2,16.7-3.5,24.6,5.5-.9,6.8,2.5,10.5,3.5,2.8,12.2-6.9,11.8-8.8,19.3,2.5,4.5,3,11.1,7,14.1,3.1.1,5.5-.4,7.1-1.8,2.3,8.2,9.3,11.8,19.2,12.3,4.3,19.7,15.7,32.4,21.1,50.9-6.5.2-11.5,8.2-7,14-10,3.4-17.9,9-19.3,21.1-4,2.4-6.6-4.6-7,0-5.2,20.6-20.5,30.9-47.4,29.8-14.1-5.8-23.3-16.5-36.8-22.8-.4-5,1.5-12.1-3.6-12.3-.5,4.1-6,3.2-5.2,8.8,7.8,6.7,1,19.5-3.5,24.5-6.6,1.3-7.6-3-14.1-1.7-9.6-21.7-50.1-43.7-24.5-80.7-13-11.7-41.7,8.7-47.4-19.4-7.6,3.6-12.9,9.4-19.3,14.1-12.3-9.3-21.3-21.9-35.1-29.8,2.6-2.1,7.2-2.2,8.7-5.3-7.9-5-3.5-11.2,0-17.6C669.2,598.8,662.2,598.2,661.5,591.3Z"/><path class="cls-1" d="M749.2,528.2c3.1.6,4.5-2.7,5.3,0C752.9,540.1,752.9,542.9,749.2,528.2Z"/><path class="cls-1" d="M884.3,821.2c-23.6,47.1,42.4,56.6,47.4,17.5,1.5-5.6-2.8-5.4-3.5-8.8,6.8.9,11.6,3.7,12.3,10.6,12.3-8.7,30-17.6,29.8-33.4,3.6,2.4,8.4,3.4,12.3,5.3-3,2.9-7.1,4.6-7,10.5,18.3-2,22,15.3,38.6,5.3,8.1-.5,7.8,7.4,14,8.8,4.1-4.1,2.4-14,7.1-17.6,3.1,7.4-2.7,34.3-15.8,36.9,9.6,8.8,19.4,23.8,17.6,38.6,7.2.3,15.9-.8,13.9,8.8,5.8.1,29.5,3,24.6,14,8.2-.1,3.3-5,3.5-10.5,12-3.3,3.1,14.4,10.5,15.7,8.5-5.5-1.4-9-1.7-15.7,3.9-5,10.3,3.3,10.5-5.3,7.4,6.6,20.9,11.9,24.6,24.6,6.8,23.1,2.6,37.7,19.3,50.9,11.4,8.9,21.1,6.4,35.1,19.2,4.5-.1,2.8-6.5,5.2-8.7,7.8-1.4,10.6,2.3,17.6,1.7-1.6-8,5.7-7.1,10.5-8.8,8.3,13.7-12.4,35.8-3.5,51-3.3,3-11.2,1.6-14,5.2.3,6.7,12.9,1.1,15.8,5.3.1,5.4-.8,9.7-3.5,12.3a9.6,9.6,0,0,0,7,7c.8,5.5-5.5,3.9-3.5,10.5,5.5,2,4.3-2.7,7-3.5s-2.7,6.5,1.7,8.8c22.8-5.2,25.7,9.4,33.3,19.3,6.1-19.5,36.8-9.1,49.2-14.1,2.4.6,1.5,4.4,1.8,7.1,5.6,1,8.8-.6,10.6-3.6,6,3.9,13.6,6.2,15.7,14.1-7.5,10.7-19.2,17-28.1,26.3,11.3-5.1,22.1-10.7,33.3-15.8,5.5,2.1,7.9,7.3,8.8,14.1,16,2.9,36.8,8.9,50.9,3.5,3.4,3.6,2,12,8.8,12.2a44.2,44.2,0,0,1,3.5-14c10.3-.3,16.1,3.8,22.8,7-5.8,17.6-4.1,27.7,5.2,43.9-6,8-21.7,6.3-26.3,15.8,7.8.8,8.8-2.4,14.1,0,2.9-8.6,19.7-7.4,26.3-12.3,5.7,5.5,14.3,7.9,17.6,15.8,10.4-2.2,12.4,3.8,17.5,7,18.8,1.3,28.1-4,38.6,10.5-3-8.1.5-9.7,3.5-15.7,8.9,1.6,12.7,8.4,17.5,14,4.1-6-1.2-10.6,3.6-15.8,12.2,12.3,33.6,15.5,49.1,24.6,7.2-2.8,9.3-2.8,15.8-3.6,4.1,1.8,5.7,6.1,5.3,12.3,10.9-3.1,19.5-32.9,36.8-19.3,5-.2,3.2-7.3,3.5-12.2,9.6-.9,16.8.7,19.3,7,1.9-3.2-6.8-10.6-5.3-19.4.3-3.3,5.9-1.1,5.3-5.2,5.1,1.5-1,5.7,0,8.8,11-5.1,25.4-4.8,26.3,8.8,6-1.6,24.3-5.8,22.9,5.2,6-2.1,10.2-6.1,15.7-8.8s2.9,6.5,7,7.1c-7.7,6.7,3.7,26.5-8.7,38.6-12.8-3.6-17.8-15-28.1-21.1,1.1,13.4-10,14.6-8.8,28.1-18,9.9-56.1-1.8-77.2,3.5-8.4,17.3-16.1,35.3-31.6,45.6-8.2-.3-5.8-4.5-14-1.8-7.3,15.5-28,17.7-42.1,26.4.8,23.9,11.7,36.2,14,54.3-2.7,4.9-2.8-7.4-10.5-3.4-2.4,2.2-1.8,7.6-1.8,12.3,2.6-1,9.1,2,8.9-1.8,10,22.7,40.5,29.1,57.8,26.3,3,3.5-.2,2.2,0,7,9.2,5.9,29.4-.1,26.3-10.5,3.7-3.6,17.7-3.4,12.3-10.5,4.2-.7,3.8,3.2,8.8,1.7,1-3.6,3.7-5.6,5.3-8.8,7.5,3.2,16.8-1.5,21-7,18,7.5,17.9-11.9,21-21,8.2,5.3,20,7,24.7,15.7,9-6,14.3.2,24.5,1.8,1.9-12.3,22.8-20.3,28.1-35.1,10.2-.3,15.8-5.2,21-10.5-15.8-36.9,24.8-20.2,33.4-40.4-10.7-20.8,17.2-25,21-42.1a63.9,63.9,0,0,0,12.3,8.8c.9,5.5-3.8,6.8,0,10.5,6.4,0,7.9-5,12.3-7,2.2,2.5,8.6.8,8.8,5.3,6.8-2.5,10.9-7.8,19.3-8.8,7.5,1.4-1.6,8.5,3.5,12.3h7c-1.2-8.5,3.1-11.6,0-17.6,11.4-1.3,8.9,11.1,21.1,8.8-11.8-12.6,3.8-19.2,5.3-33.3,6.6-.7,6.7-2.5,8.7,3.5,3.2-4.7-8.7-28.1,7-31.6,1.3-4.8-3.5-3.5-3.5-7,3.8-5,11.6-5.9,21.1-5.3-3-5.2-6.4-1.9-12.3-1.8-3.2-3.1-7.7-11.8-1.8-14-2.6-10.3-15.4-6.8-22.8-10.5-13.3-6.7-21.1-19.7-24.6-29.8-3.5,3.4-5.7,8.3-10.5,10.5-8.8-1.1-15-4.9-24.5-5.3-2.5-7.1,3.7-5.5,3.5-10.5-2.3-2.1-2.8-.7-5.3,0,.2-4.3.2-8.4-1.7-10.5,22.9,6.7,26.9-14.8,35-31.6-4.9-.9-1.7-10-7-10.6,6.5-2.1,2.1-4.2,7-7,7.4.3,6.1,9.1,10.6,12.3,2.3-1.7,5.3-2.9,7-5.3,2.3,1.8,6.4,1.8,8.8,3.6,39,4.5,37.1-41.6,43.8-64.9-6.5-1.9-5.6,3.7-8.8,5.2-1.5-8.6,7.4-6.7,7-14-5.2-.1-6.8,3.7-10.5,5.3-8.5-11.1-24.6-3.8-35-12.4-26.2,7.3-35.4,31.4-57.9,42.2-3.4-3.2,1.4-4.5,0-10.6-6.3-.4-6.5,5.3-12.3,5.3-6-11.5-16.2-18.9-15.8-36.9-7.8-1.2-7.2,5.7-12.3,7.1-8.1-9.9,3.5-25.7,3.5-38.6-11.6,17.2-20.3,24.9-36.9,33.3-16.6-11.3-9.8-46.3-14-68.4-4.2,13.4-6.4,38.9-7,54.4-5.6-1.1-5.4,3.3-8.8,0-2.6-6.7,7.9-.4,5.3-7-3.5-.1-2.2-4.8-7-3.6,3.3,10.4-9,5-7,14.1-19.4-2-4.6-20.4-8.8-31.6h-5.3c6,23-23.4,31.3-36.9,45.6-1.7-1.1-1.7-4-5.2-3.5,3,13.9-5.7,27.2-12.3,36.9-5.4,1.3-3.4-4.9-8.8-3.5v7c-16-2.7-16.4-21-28-28.1-2.6.9-4.5,2.6-7,3.5-1.4,10.1,5.2,12.3,10.5,15.8-3.8,6.3-1.8,18.1-8.8,21.1,7.1,8.1,3.7,20,1.8,26.3-9.6,1-11.1,10-19.3,12.3-5.7-6.2-.6-14.3-5.3-22.9-4.3-.2-8.5-.2-10.5,1.8,2.6,5.8,2.5,15.6-3.5,17.5s-3.4-3.6-5.3-5.2c-8.4,3.6-13.5,18.8-26.3,12.3,3.3-8.6.1-21.2-8.8-22.9v8.8c-6.9-1.3-9.5-6.8-15.8-8.8-2.9-11.7,7.8-13.1,3.5-21-11.4-2.6-12.7,1.3-17.5,5.3-2-.3-1.5-3.2-1.8-5.3-4.4-.3-4.3,3.9-7,5.3-3.9-4.4-12-4.5-17.6-7-9.5,10-18.8,1.8-29.7,7-9-3.2,1.1-18.5-3.6-22.8-11.7.5-6.2,18.2-15.8,21,8.6,3.1,5.9-1.4,12.3-3.5-1,6.5-2.8,12.5-10.6,12.3-1.4-2-2.2-4.7-1.7-8.8-6.9-.7-7.5-7.7-14-8.8-6.4,1.3-8.1,8.3-15.8,3.6-4.9-3.9-4-13.6-8.8-17.6,5.7-4.8,16.7,4.1,15.8-8.8-13.4,2.2-17.6-4.6-28.1-5.2-3.5-23.7,15.8-36.8,15.8-58-5.2,3.5-5.9,2.9-10.5-1.7-6.9,8.3-13.1,17.3-26.3,19.3-10.1-3.4-4.2-22.8-17.6-22.8-3.2-14.4,7-15.3,7-26.3-10,3.4-23.2-2.6-31.5,8.7-2.8-.9-9.5-6.7-12.3-1.7-14.3-10.7-9.6-30.3-19.3-43.9-15.4,8.1-.9,35.2,3.5,45.6,2-.3,1.5-3.2,1.7-5.2,1.9.4,1.2,3.4,3.5,3.5-4.3,9.9-8,11.4-5.2,26.3-8.3-8-13.5-.8-21.1,5.3-9-5.6-17.4-11.9-19.3-24.6-11.7,1.2-20.6,5.1-26.3,12.3-8.2-1.2-7.1-11.7-15.8-12.3,1.5,5.6-2.8,5.4-3.5,8.8-3.9-5.3-8.9-13.4-17.6-8.8-.7-6,.8-9.8,1.8-14,6.4,1.1,9.4-1.2,12.3-3.6-14.3-13.7-32.9-23.2-45.6-38.5-10.1,3.4-33.5,9.3-40.3,0-24.3,19.8-45.5-15.5-35.2-36.9-9.5-6.1-21.8-20.7-14-33.3-5.3,1.7-3.1-3.9-3.6-7.1-11.4-1.4-24.9-4.8-38.5-8.7-2.8,8,7.3,3.2,7,8.7-3.2,4.8-6.4-5.1-14.1-1.7-3.3,2.4-5.1,6.5-7,10.5-4.3-.2-5.4-3.3-8.7,0-3.6-.4-3.5-4.7-5.3-7,14.1-10.8,21-45.1,10.5-61.4,6.8-.9,8.6,3.1,15.8,1.7-2.7,9.1-4.9,9.9-7,21.1h7c1.3,9.1.9,10.4,1.8,21,5.8,3,11.2,1.1,17.5,0,1-6.8-7.6-4.1-8.8-8.7-.3-7.4,6.7-7.4,7.1-14.1-4.3-1-8-2.5-14.1-1.7,4.4-6.9,7.9-6,5.3-17.6,3.1-7.3,14.4-6.6,14-17.5-12.9,8-24.4,8.6-36.8,10.5-3.3-2-3.8-6.8-7-8.8,3.5-7,11.3-9.6,12.2-19.3h7.1c4.8,1.6-3.2,6.2,1.7,8.8,5.7-4.2,11-8.9,10.5-19.3,2.8.3,15.4-9,8.8-17.6-7.7-.2.2,4.4-1.7,8.9-6.2,3-4.4-1.2-10.6-1.8-4.4,10.7-17.3,13-28,17.5-1.5-.3-1.7-1.7-3.5-1.7-.6-8.9,8.2-15.4,3.5-22.9-6-.1-5.2,6.6-5.3,12.4-4.3.7-3.8-3.3-8.8-1.8-.4,7.2-5,10.2-5.2,17.5h-10.6c-3.2-2.5-2.1-9.6-8.7-8.7-1.5,2-2.3,4.7-1.8,8.7-9.2-5-10.4-11.9-8.8-24.5-7.1,1.9-15.4,3.6-14-7-47.7-1.3-59.8,61.6-15.8,78.9-2.1,4.4-6,6.9-10.6,8.8,1.4,6.3,8.6,6.6,10.6,12.3-10.5,2.9-31-3.7-26.3-12.3-.8-4-8.7-.7-12.3-1.8,5.6,2,7.9,7.3,12.3,10.6-1.1,7.1-6.3,10-12.3,12.2,1.7,10.1.5,14.4,1.7,26.4-7.5-.6-12.4-4-17.5-7C896.9,812.7,892.5,818.9,884.3,821.2Zm1016,249.1c1-5.4-.5-13.3,5.3-14,.4,1.4,1.4,2,3.5,1.8C1908.8,1064.8,1905.1,1068.2,1900.3,1070.3Zm-15.8-24.5c5.4-4.1,11.7-16.3,17.6-14-2.6,1.4-3.8,4.4-3.6,8.7C1893.7,1041,1887.3,1049,1884.5,1045.8Zm-100,156.2c3.9-3.7-1.5-5.7,1.7-8.8,10,.3,11,7.2,17.6,1.7,4.6,7.8,3,14.5-1.8,21.1-7.6-1.4-12.2.8-19.2-3.5-.6,4.7-4.7,5.9-8.8,7C1771,1211.9,1775.7,1197,1784.5,1202Zm-343.9-124.6c1.1,4.3,3.5,9-3.5,8.7C1437.9,1082.8,1434.7,1075.5,1440.6,1077.4Zm-8.8,26.3c.7,3.3,5,3.2,3.5,8.7C1427.7,1115.1,1425.8,1104.5,1431.8,1103.7ZM1402,994.9c9.5-3.9,4.3-22.6,17.5-22.8,1.7,11-2.1,16.6-3.5,24.5C1412.2,997.7,1402.9,1001.1,1402,994.9Zm-179-38.6c4.3-.7,3.8,3.2,8.8,1.7.2,6.1-3.6,8.2-10.6,7.1C1219.8,960.1,1223.7,960.5,1223,956.3Zm-112.3-68.4c1-4.3,1.5-9.1,7-8.8-.3,7.9,7.4,7.8,8.8,14-2.5,2.2-3.3,6.1-3.5,10.6C1113,904.3,1122.2,885.7,1110.7,887.9Z"/><path class="cls-1" d="M615.9,694.9c-3.3-.8-16.4-.9-14.1-12.3,7.2-.8,7.1,5.7,15.8,3.4C615,690.2,618.2,693.6,615.9,694.9Z"/><path class="cls-1" d="M589.5,742.2c9.9,2.2,12-3.3,10.6-12.3,5.4-4.5,15.1-4.7,17.5-12.2,6.6-1.9,5,4.3,10.6,3.5,2.4-.2,1-12.7,3.5-7.1-3.1,11.1,3,11.1,8.8,10.6,3,17.3,8,29,1.7,43.8-6.4,3-15.5,3.3-21.1,7.1-5-6.7-12.9-10.5-24.5-10.6-.1-5.3,3.7-6.8,5.2-10.5C599.5,748.6,593.8,746.2,589.5,742.2Z"/><path class="cls-1" d="M1305.4,819.4c-10.2,2.4-15.5-.9-22.8,3.5,7.1-13.8-12.7-16.7-3.4-28-3,4.1-10.3,3.8-17.6,3.5-7.4-8.3-11.2-20.4-19.3-28.1,4.8-1.3,3.5,3.5,7,3.5-1.9-16.1,21.1-14.2,14.1-29.8,4.3,5.4,15.3,12.1,22.8,8.7,9.9,10.9.8,29.8,19.2,31.6C1316.5,793.3,1314.8,810.4,1305.4,819.4Z"/><path class="cls-1" d="M1451.1,789.6c6.2-4.8,17.5,7.6,17.5,8.8C1463.7,794.6,1451.1,798.4,1451.1,789.6Z"/><path class="cls-1" d="M2014.4,1309a57.1,57.1,0,0,0-14-31.6,1.7,1.7,0,0,1-.6-.6c.8-.1,1.6-.9,2.3-2.9,2.1-6.5-2.6-4.8-5.3-14.1-2.2-7.5,2.6-18-5.3-15.7-2-7.4,7.5-3.2,8.9-7s-3.6-3.6-3.6-7.1c7.4,4.6,5-5.3,8.8-8.7,13,2.1,23.8-9.2,31.6-17.6,0,4.6-1,10.4,3.5,10.5,9.9,0,14.5-5.3,19.3-10.5-10.3-20.8-43.7-3.5-66.7-15.8,26-2.1,40.9.4,65,1.8,2.3-2.3,2.3-8.3,0-10.6,5.5-.8,4.6,4.8,8.7,5.3,4.8-11,24.4-7.2,33.3-14-3.5-9.9-13.6-17.4-8.7-26.4-2.2.2-2.5,2.3-5.3,1.8-1.2-7.1,1.7-10,1.8-15.8-6.2-6.1-8.5-16.1-7.1-29.8,7.4-16,1.2-41.9,10.6-57.9,4.8-8.3,15.4-6.3,14-19.3-4.3-3.9-9-7.4-15.8-8.8-14.2-24.6-34.8-45.3-35.1-79,7.9-25.4,10.8-55.9,38.7-61.4,2.2-9.5,10.3-13,17.5-17.5,36.6,4.4,73.7,16.9,98.3,38.6.1-7.4,3.2,0,0,1.7a142.4,142.4,0,0,0,14,42.2c-5.1,7.5-4.1,17.1-7,29.8,4.8,4.7,19.1,4.5,26.3,1.7,11.7,8.8,25,15.9,42.1,19.3,10.8-2.9,10.8-25,21-22.7-2.8,8.1-.5,10.9,1.8,24.5-6.7,3-10.9-5.2-12.3-1.8,17.5,32.3,53.3,46.2,50.9,98.3,4.9,10.1,19.1,1,22.9,10.5-2,4.5-9.5,3.5-15.9,3.5-7.7,14.2,1.7,29-1.8,38.6-.9,2.8-5.2,4.4-7,8.8s0,9.3-1.7,14.1c-4.1,11.4-18.8,19.9-15.8,29.8-14.3,4.4-14.3,23.1-26.3,29.8,2.8.8,1.5,5.5,7,3.5,1.1,10.8-4.5,15.3-8.8,24.6-15.2,0-20.8-9.6-22.8-22.8-4.9.3-12-1.5-12.2,3.5s8.3,1,7,7c-5.3,9.9-10.6-2.7-15.8-3.5-11.8,1.1-22.5,17.9-35.1,7,2.7-.2,6,.2,5.2-3.5-11.4-.6-24.7-7.6-31.6,1.8-6.5-1.7-9.1-7.3-19.2-5.3-8.4-17.3-35.2-13.6-47.4-19.3-5.5-3.2,5.9-5.9,0-8.8-3.4-.4-3.9,2-7,1.8.6-7.7-3.2-10.9-7.1-14.1-5.1,9.5-8.9,15.8-3.5,28.1-7.7,4.8-9.4-2.2-15.7-3.5-.2,4.5-6.9,2.5-7.1,7,5.2,9.4,11.5,17.7,15.8,28.1,7.7.6,7.8-5.2,14.1-1.8.5,7,0,13-3.6,15.8-5.2-.6-8.9-2.8-12.3-5.2-3.9,23.8-14.4,31.1-22.7,49.1-8.3-.8-10.4-2.5-14.1,3.5-10.2-4.5-16.6-2.2-29.8,0,.8-5.5-2.2-7.2-5.3-8.8C2023.3,1313.9,2021.8,1304.6,2014.4,1309Z"/><path class="cls-1" d="M1999.8,1276.8c-2.5.5-4.6-4.7,0,0Z"/><path class="cls-1" d="M1907.3,998.4c-6.4,0-2.2,10.7-10.5,8.8C1896.6,1001.7,1905.6,996.2,1907.3,998.4Z"/><path class="cls-1" d="M1640.6,1031.8c-1.8,6.5-13.5,13.2-17.6,7C1634,1041.5,1633.1,1032.4,1640.6,1031.8Z"/><path class="cls-1" d="M2031.9,1045.8c9.5-7.7-26.3,1-22.8-12.3,13.1,2.1,24.3,6.1,33.3,12.3C2037.4,1043.3,2033.6,1050.6,2031.9,1045.8Z"/><path class="cls-1" d="M2760.1,1470.4c21.7,2.3,40,8,54.4,17.6C2796.8,1481.7,2778.1,1476.5,2760.1,1470.4Z"/><path class="cls-1" d="M2525.9,1496.6a8.3,8.3,0,0,1-.9-1.6A7.6,7.6,0,0,1,2525.9,1496.6Z"/><path class="cls-1" d="M2519.8,1516.1c9.4-2.4,8.3-14.5,6.1-19.5,1.9,2.5,5.1,3.7,9.6,3.7,2.9-5.1,5.3-12.7,1.7-19.4,14.5,1.9,18.7,19.6,35.2,14.1,4,11.9,13.2,3.9,14,14.1,5.3-1.3,6.1-6.8,14-5.3-3,5.8.9,7.8,0,15.8a11.7,11.7,0,0,0-5.2,3.5c-6.5.6-4.6-7.1-12.3-5.3-2.4,5.6-.4,5.9,0,12.3,3.1-2.9,12.9-2.6,12.3,3.5-19.5-1.4-21.9,14.4-36.9,17.5-10.2-2.4-13.9-6.3-22.8-1.7-.4-3.4,2-3.9,1.7-7-12-2.1-16.9-17.7-20.6-26.9C2517.2,1516.2,2518.1,1516.5,2519.8,1516.1Z"/><path class="cls-1" d="M2514.5,1510.8a4.6,4.6,0,0,1,1.1,2.2A22.5,22.5,0,0,0,2514.5,1510.8Z"/><path class="cls-1" d="M2515.6,1513c.3.8.6,1.6,1,2.5A8.2,8.2,0,0,1,2515.6,1513Z"/><path class="cls-1" d="M2532,1614.3c-.5-3.6-4.8-3.4-5.3-7,4.4.2,7.4-.9,8.8-3.5.3-5.6-4.7-5.9-3.5-12.3,8.4,4.3,20.1-3.9,19.3-8.8,10.3-3,22.4-3.4,35.1-5.2,4.3,13.2,27.3,15.3,21.1,33.3-.6,4.6,6.7,1.4,5.2,7-8.6,10.6-10,28.6-15.8,42.1-2.6-15.1-21.3-12.8-35.1-8.7-8.7-8.3-16.8-17.2-28-22.8,3.3-.8,7.5-.7,7-5.3-9.7-.7-12.2,1.9-19.3,0C2520.3,1615.4,2530.6,1619.4,2532,1614.3Z"/><path class="cls-1" d="M2693.5,1588c-1.4-3.9-10.9.3-8.8-7C2688.9,1581,2697.1,1585.9,2693.5,1588Z"/><path class="cls-1" d="M164.9,1637.1c-10.8.7-3.8,8.6-10.5,12.3C154,1642.2,155.5,1631.7,164.9,1637.1Z"/><path class="cls-1" d="M2381.1,1682.7c3.9,3.4,14.8,22.2,3.5,19.3C2390.9,1696.9,2374.8,1682.3,2381.1,1682.7Z"/><path class="cls-1" d="M2019.7,1702c1.1,4.3,3.5,9.1-3.6,8.8C2015.1,1706.5,2022.7,1697.4,2019.7,1702Z"/><path class="cls-1" d="M191.2,796.6c-9.5-3.9-12.5-14.4-15.8-24.6-3.2-.7-10.5,2.4-8.8-3.5,1.8-9,14.2-27.2,8.8-43.8,14.4-15.2,26.1-39.4,54.4-35.1,2.4-3.5,1.7-10,3.6-14.1,13-6,12.3,7.7,17.5,14.1,6.5,8,19.5,22,26.3,22.8,12.1,1.4,31.6-17.5,52.6-8.8,6.3,2.6,1.8,4.8,7.1,5.3s11.1-6.3,15.8-1.8c-3.7,3.4-7.4,6.7-8.8,12.3,9.4,9.2,4,25.7,7,38.6-10.4,8.3-20.6,16.9-31.5,24.6-1.6,14.3,1.3,34.4-3.6,50.9,3.6,8.2,11.1,12.2,17.6,17.5,6.6,34.5-.7,48.6-5.3,75.5,3.1,6.2,13.1,5.6,10.5,17.5-6.2.4-3.5-8.2-10.5-7,4.6,20.2-16.2,26-15.8,47.4-7.9,1.5-8.8-4.2-14.1-5.3-5,6.7-21.1,2.2-31.5,3.5-4.9,4.5-12.7,6.1-22.8,5.3-.4-1.4-1.5-2-3.5-1.8-24.7-25.9,26.1-50,1.7-75.4-4.4-1.9-9,6-8.7-1.8-4.9-5.5,5.5.6,7-3.5,2.1-9.8-11-4.3-12.3-10.5,8.1,1.6,9.3-12.8,5.3-17.6-4.2.6-3.4,6.1-8.8,5.3-8.3-3.2-8.5-16-1.8-21,6.8-1.1,7.2-1.5,12.3,1.7,3.1-8,9.8-12.5,12.3-21.1-2.7-8.3-5.8-16.4-8.8-24.5-19.8.4-28.4-10.2-40.4-17.6-4.5.7-5.2,5.3-10.5,5.3C186.4,800,192.6,802,191.2,796.6Z"/><path class="cls-1" d="M1459.9,1423c.8-16.5,25-15.7,38.6-14,7.7,13.9,5.7,43.1,22.8,42.1-13.8,11.4-16.6,33.7-31.5,43.9-12.6-1-32.8,2.6-36.9-8.8-25.9,5.9-15.9-37.8-21.1-45.6C1438.5,1433,1449.1,1420.8,1459.9,1423Z"/><path class="cls-1" d="M2107.4,1512.6c9.6,4.1,13.9-.9,21-3.5,5.8,8,3.8,14,5.3,24.5,21.4,7,27.3,34.7,45.6,47.4,6.7,4.6,38.4,18.2,47.4,19.3s47-3.5,57.9-7c6.6-2.2,10-10.4,15.8-12.3,3.8-1.3,9,1.5,12.3,0,7.3-3.6,18.1-16,29.8-19.3,1.2-19.9,8-34.1,21.1-42.1-5.7-17.4,10.9-21.4,8.7-40.4,1.2-1.7,8,.9,8.8-5.3s-4.3-5-8.8-5.2c13.7-26-16.9-40.3-5.2-63.2-6.5,0-7.9-5-12.3-7-8.3-38.3-45.3-47.9-64.9-70.2-14.7,3.4-28.4,2.3-36.9-5.3.8-8.9,1.8-20.6-5.2-24.5,1.1,7-1.7,10-1.8,15.8-16-6.8-22.9-2.4-36.8-8.8,8.4-6.3-.4-12.3,3.5-19.3-7-7.7-18.5-10.8-22.9-21.1-14.3.9-20.7-6.2-33.3-7-9.3,7.1-17.4,15.4-29.8,19.3q1.4,12-10.5,10.5c4.4,18.9,2.9,36.5,12.2,56.2,14.3,6.5,14.4,12.7,33.4,15.8-2.4,3.5-7.8,3.9-12.3,5.2-13.7,25-22.5,54.7-36.9,79,12.1,9.8,3.5,36.3,7.1,50.9C2118.5,1503.7,2106.6,1501.8,2107.4,1512.6ZM2209.2,1316c12.3,7.1,29.5-.2,40.3,8.8a41.3,41.3,0,0,0-28,3.5C2220.3,1321.2,2207.2,1326.1,2209.2,1316Z"/></g></g></svg>