<svg xmlns="http://www.w3.org/2000/svg" viewBox="0 0 378.6 442"><defs><style>.cls-1{fill:#E62980;}</style></defs><title>アセット 6</title><g id="レイヤー_2" data-name="レイヤー 2"><g id="レイヤー_1-2" data-name="レイヤー 1"><path class="cls-1" d="M30.5,167.9c2.7,6.8,8,14.8,1,20.3-1.3,11.3-13.5,3.9-20.4,5.1-6.8-1.8-11.3,4-11.1,10.1,14,7.3,31.7,3.5,44.1,13.7,4.3,2.6,1.5,8.1,1.4,12,.8,6.8-6.5,8.6-10.9,11.7-3.6-2.9,9.9-7.5,5.6-13.9-.4-11.8-18.7-18.3-24.7-6.9-9.2,9.4,3.8,17.5,6.7,25.9,8.2.4,18.6-4.6,25.6,2.3-.3,4.5-4.6,15.7,4,14.2s13.6,1.1,15.1,8.7c-2.1,2.3-6.6,1.8-9.8,2.8s-4.3,11.4,1.2,11.5,11.3-.4,13.5,4.5L70.4,293a79.4,79.4,0,0,1-23.8-1.2c-2.9.8-1.2,1.7.9,2.4,5.6,1,11.5,1.1,16.2,4.5-4.1,4-10.2,5.3-14.3,9.1-1.6,1.4,2.5,1.7,3.1.9,4.7-3.8,10.7-5.5,16.5-7.2,2.6-.5,5.2-2.2,7.8-1.2,1.4,4.1-.5,8.4.8,12.4a15.3,15.3,0,0,1,.1,9l-.9,1.5a4.3,4.3,0,0,0-.5,1.3c-3.8,9.3-15.8,10.6-20.9,19-3.8,2.5-8.2,3.7-12.4,5.5-6,6.3-11.2,13.7-19.4,17.6-6.3.7-18.1-5-17.1,6.4-6.3,12.9,20.7,18.8,20.2,4.6,5.2-14.6,25-18,30.4-32.6,9.4-2.3,12.1-15.2,22.6-15.1,10.3-3,20.2,2.5,23.6,12.4-3.1,3.3-12.3,8.4-6.9,13.2,9.5,1.3,17-13.3,27.1-6.2,7.1,3.2.1,9.5-2.8,13.2-3.1,1-2.9,4.4-2.1,7.2-3.2,6-7.3,11.7-8.7,18.5,8.6.2,3.3-16.1,12.6-16.2,7.6-2.1,9.2-11.9,16.7-14.4,5.2,2.5,11-3.1,15.4,2.2,7.3,6.2,4.3,17.3,9,24.8,9.7,9.9,5.3,24.3,8.4,36.3-.2,7-1.5,16.4,5.4,20.9,3.2.8,8.4-.7,7.1-5.5,4-7.6-6.3-14.1-2.5-21.7,1.4-3,4.4-6.1,8.1-5.5s8.5,3.3,12.9,3.1a11.3,11.3,0,0,0,3.9-2.1,37.4,37.4,0,0,0,5.1-10.9l1.9-1.8c5.2,3.9-.9,13.1,4.1,15.8,2.2-5.4.1-11,.8-16.6,0-1.7,0-3.4-.1-5.1s.7-4.9,1-6.5c3.1-7.1,11.4-10.3,15.3-17.1,5.3-4.2,3.7-12.8,9.2-16.4s11.3-8.6,18.4-9.8c4.5-2.9,8.2,2.8,12.7,1.4s11.8,3.3,17.1-.6c4.4,5,9.4,13.3,17,9.4,3.7-5.9-12.4-4.6-5.2-12.2,5.8,3.6,10.9,7.9,16.8,11.5,1.3-2.5-.6-3.7-2.5-4.8-6-3.1-13.6-13-19.8-6.1a62.2,62.2,0,0,1-11.9-11,13.4,13.4,0,0,1,4.5-5.5c3.7.7,7.4,1.6,11.1,2.5s8.5,7.5,13.1,5.4c4.9-7.8-6.7-11.1-12-12.1-.9-1.8-2.9-2.3-4.7-2.3-1.8-3.7,1.2-7.4.1-11.2.4-1.8,1.3-5.4,1.7-7.2,7.8-1.8,20.1-2.6,23.8,6.2-1.9,2.5.6,6.7,2.6,3.2,2.3-5.8,8.2.2,11.7,1.1.1,2.2-1.2,6.2,2.3,5.7,5-5.6,14.2-3.9,20.9-3.4,0-.8.1-2.3.1-3.1-1.6-7.2,7.4,1.5,9.3-2.9-1.6-2.7-7-5.1-2.1-8.5.7-5.2,11.1-4.5,8.3-10.3-7.4-.6-8.2-8-7.9-13.6,2.6-3.1,9-3.1,9-8.1-2.4-3.4-7.6-3.2-10.2-6.5s-10.3-3.4-15.1-5.5c-.3-3.1-4.7-7-6.6-2.9-4.8,7.7-15.2,3.1-21.4,0-7.7-1.4-14.1-9-11.7-16.8s-2.7-13.1,1.1-19.4,8.6-9.8,15.5-11.2c5.7-9.9-7.5-12.9-14.3-8.4-5.9,1.9-5.1-11.7-.7-6.6s-.1-5,.7-7.3c4.5-7.7,17.5-4.2,21.4-12.5,5.1,1,6.8-6.6,2.8-8.9-2.6-.7-5.9-1-8,.9A143,143,0,0,1,311.5,174a33.6,33.6,0,0,0-4.4-6.9c-1.1-3.2-2.6-6.4-3.2-9.8,2.7-3,9.1-5.4,10.6-.2,5.5.8,4.9-5.9,7.9-8.4,3.5.2,7.1,3.1,10.4,1.5.1-5.1-.2-12.8,6.9-12.7a4.7,4.7,0,0,0,5.3,2l3.1,1c-.4-5.7,1.3-13.2-5.3-16,.8-13.7,16.3-2.1,23-4.9-1.9-5.1-9.2-6.7-9.2-12.6-1.9-6-17.1,2-14.9-5.2,6.1-4.1,12-9.6,19.8-9.7,4.3.2,10.9-5.1,5.4-8.4-4.7,0-10.3,4.8-14.4-.7s2.2-10.2,6.7-12.6a61.1,61.1,0,0,0,12.6-3.1c1.8-2.7-2.3-4.6-4.5-3.3-5.3,2.3-10.5,5.2-16.5,2.7-3.5.8-5.9-1.1-7.3-4.2a7.4,7.4,0,0,0-3.9-6.7c.1-3,5-8.8,2-10.4-5.7-3.3-8.1,8.6-13,3-.4-3.5-.5-7-.7-10.5.5-1.7,1.6-4.9,2.1-6.5,2-5.1,5.2-9.9,5.3-15.5-.3-1.8-1.4-2.7-3.1-1.8-5,2-3.6,8.9-5.9,12.8-5,5.4-4.7,17.6-15,13.2-8.8-.4-2.6-9-2.3-14.3.1-1.5.1-2.9.1-4.3,1.1-7.1,5.2-13.6,6.1-20.4-5.8-5.1-5.6,9.1-8.7,13-6.8,1.5-8.4,7.9-9.3,14.2a88.3,88.3,0,0,1-15.7,10.6c-15.9-.4-28.2-14.8-30.3-29.8-7.3-3.1-6.3,9.7-1.1,11.6,4.4,5.3-1.7,7.7-5.9,4.1-2.8-2-5.1-1.1-4.4,2.5s-.1,8.8-3,12.7c-1.7,11.8-14.2,4.6-18.5-1.3s-9.7.5-3.4,2.9c9.6,7.7,14.3,23.3,4.9,32.9a8.6,8.6,0,0,0-5.3,2.6,26.4,26.4,0,0,0-4.9.8c-3.6,0-7.9-.4-9.5-4,.7-5.2,5-11.8.2-16.3-6.8,4.1-1.9,15-3.2,22.2l-11.3-3.1c-3.2,6.4,9.1,1.7,11,5,2.8,7.3-5.5,14.5-2.4,21.6s-3.6,10.7-5.9,15.3c-3.2-.1-6.4-.2-9.6-.1s-6-2.3-8.9-3.7l-3.6-13.3a3.2,3.2,0,0,0-1.3-3.7c-.9-4.9-3.9-9.5-9.3-10.3-1.1,5.3-2,12.7,2.8,16.5,5.6,8.8-1.7,16.3-8.2,21.8a33.9,33.9,0,0,0-7.1-3.6c-1.3,3.3,5.3,2.8,4,6.8-6.7,3.4-14.4,1.6-21.5,3.5-4.2-2-8.3-10.4-13.6-5.9-1,6.3-2.4,13-7.4,17.5-6,.7-15.4-6.9-18.5.9,2.6,3.6,6.3,6.2,9.9,8.6,1,1.8-.2,3.5-1.1,5-4.7,4.4-10.7-1.1-16-.5a5.4,5.4,0,0,0-3,6.1c.2,5.7,2.3,11.1,4,16.6a10.1,10.1,0,0,0-.3,1.7c-6.4.4-12.8.8-19.1-.3-1.9,4.9-5.8,9.7-11.9,8s-10.4-2.5-9.2-7.2c0-.1.1-.2.1-.3a13,13,0,0,1,2.1-3.7,15.9,15.9,0,0,1,4.4-3.8,7.3,7.3,0,0,1,6.6-.3h.1a1.2,1.2,0,0,0,1.2-2h0a9.6,9.6,0,0,1-1.5-1.4l-.9-.3A12.7,12.7,0,0,1,41.3,167a1.1,1.1,0,0,1,.5-1.8h0a1.4,1.4,0,0,0,.6-2.4l-2.3-2.2c-1-.9-4.3-4-8.6.9A6.2,6.2,0,0,0,30.5,167.9Zm294.2,91.2c1.7,2.2-1.3,5.3-2.8,7a63.8,63.8,0,0,1-18,0C305.3,257.6,317.7,254.5,324.7,259.1ZM199.9,83.1c2.5-.1,5-.2,2.5-2.8l17.8,5c4,2.8,5.8,8.2,1.6,11.6-3.1,6.6-10.9,4.8-16.1,8.4-1.7,3.6,1.9,4.2,4.6,4.9s6.8-2,10.1-.5c.2,4.4-4,5.5-6.2,8.2a7.8,7.8,0,0,0,6.8,1.9c1.8,1.3,4.7,2.8,3.9,5.4l-12.6-3.5c-5.2.4-9.5-3.1-11.4-7.6a52.6,52.6,0,0,1,.5-8.8,4,4,0,0,0,.9-4.4C203.9,94.7,200.3,89.1,199.9,83.1Zm73.4,71.5,3.1,2.4c.2,3.2.3,8.3-3.4,9.3l-.8-1.9C271.2,161.1,267.2,154.9,273.3,154.6Zm6.9,15.6c.8-5.1,4.7-16.1,11.4-8.7,2.9,1.5,5.8,3,8.5,4.7,4.3,1.2,6.4,4.9,7.5,8.8-1.3,3.9-7.2,4.4-10.3,2.2C292.1,173.7,286,172.2,280.2,170.2Zm37.9,103.4c2.2,4.8-3.5,9.8-6.1,13.4C303.4,284.7,312.5,272.8,318.1,273.6ZM81.5,175.3c-.7-2.4-1.8-4.7-1.8-7.3C85.8,168.5,86.2,183.8,81.5,175.3Z"/></g></g></svg>