<svg xmlns="http://www.w3.org/2000/svg" viewBox="0 0 1423.7 1039.1"><defs><style>.cls-1,.cls-2{fill:#1eac4b;}.cls-1{fill-rule:evenodd;}</style></defs><title>アセット 3</title><g id="レイヤー_2" data-name="レイヤー 2"><g id="レイヤー_1-2" data-name="レイヤー 1"><path class="cls-1" d="M1367.7,500c8.7,11,7.6,19.9,10.4,35.3,22.9,10,27.7-13.5,44.2-15.2C1432.7,488.5,1380.1,475.3,1367.7,500Z"/><path class="cls-1" d="M1213.6,1036.8c-.7-6.9-2.8-13-12.5-15.1-1.3,1.4-2.5,2.7-4.5,2.5C1190.7,1037.3,1206.2,1042.4,1213.6,1036.8Z"/><path class="cls-1" d="M1275,754.3c-1.8-3.4-6.4-5.3-6.6-9.5-6.9.7-13.7,1.5-22.4-1,6.8,5.3.8,9.6-1.7,18.4C1253,780.2,1275.1,776,1275,754.3Z"/><path class="cls-1" d="M1280.7,735.2c-.9-5.6-7.3-8.3-12.8-7.6-8.8-7.2-11-28.6-25.5-41.6-8.2-7.4-24.9-12.7-35.1-21.8-7.2-6.5-11.3-17.8-16.7-20.2-17.4-7.5-23,6.1-31.6,17.1,10.7,23.8,16.6,50.3,29.3,73.1,18.6.7,29.6,4,49,7-6.6-6.6,3.7-12.3,8.2-14.6C1256,727.9,1266.6,740.4,1280.7,735.2Z"/><path class="cls-1" d="M1206.1,947.6c10-7.8,16.9-15.2,17-25.2.2-19.3-32-28-35.8-6.9C1185,928.6,1203.4,934.1,1206.1,947.6Z"/><path class="cls-1" d="M1184.3,963.7c2.9-5.9.4-8.9.1-13.1l-12.1-3.7C1165.9,954.1,1172.7,962,1184.3,963.7Z"/><path class="cls-1" d="M1337.2,424.7c-10.2-1.7-12.3-7.9-19.3-11.4-16.5-.1-18.1,17-12.3,28.5C1323.9,454.5,1342,445,1337.2,424.7Z"/><path class="cls-1" d="M1151.4,781.9c-2.9,16.6,4.8,27.5,11.1,39.2,18.3,7.7,29.8,3,45.5,6C1213.2,803.2,1184.9,773.1,1151.4,781.9Z"/><path class="cls-1" d="M1153,846.6c-4.7-5.3-10.6-7.1-17.4-5.2C1127.6,855.2,1152.3,865.2,1153,846.6Z"/><path class="cls-1" d="M1130.6,794.6c1-2.5-.6-17.1-11.3-12.9-3.8,7,.2,9.6,3.8,12.5-18.6,11.9,7.8,33.9,20.2,21.2C1147.1,804.1,1140.8,798.3,1130.6,794.6Z"/><path class="cls-1" d="M1142.6,722.5c.7-3.2,3.3-3.1,3.9-6.5-14.1-10.4-18-26.2-30.5-37.4-22.3,4.6-48.6,1.8-63,21,20.6,10.7,21.6,32,55.6,35.4,6.4,5.8,4.8,15.9,10.5,22.1C1153,775.5,1172.3,729.8,1142.6,722.5Z"/><path class="cls-1" d="M1239.2,321.8c-5.6-6.9-28.4-21.9-42.4-16.4-16.3,17,1.7,39.8,19.7,41.8C1230.8,348.7,1237.2,336,1239.2,321.8Z"/><path class="cls-1" d="M1124.4,567.6a17.2,17.2,0,0,0-13.9-4.1c7-6.1,4-14.2,12.7-17.1-2.5-6.4-7.4-11.5-9.8-18-10.4-2-17.1-2.6-26.1-7.8-5.1-7-2.9-17.8-7.7-25-19.4-7.4-29.1-28.5-51.1-19-3.8,13.4,11,28.9,13.5,43.8,32.1,7.8,24.6,37.2,58.8,43.9,4.3,4.5,1.6,12.8,4,18.3C1118.9,590.7,1129.1,578.2,1124.4,567.6Z"/><path class="cls-1" d="M1084.9,624c-2.4,2.6-6.1,2.9-6.5,9.4C1086.6,644.6,1099.6,627.2,1084.9,624Z"/><path class="cls-1" d="M1169.7,371.1c2.4-5.2-3.3-6-2.7-10.3C1161.7,362,1164.9,370.6,1169.7,371.1Z"/><path class="cls-1" d="M1031,728.9c-14.5-1.6-26,2.4-34,12.6,10.2,7.6,15.3-8.3,29.3,3.1A12.4,12.4,0,0,0,1031,728.9Z"/><path class="cls-1" d="M1027.1,538.6c-7.2-14.3-17.2-34-40.7-34.8-2.8,19.9,15.1,28.8,29.9,39.2,6.1,18,.7,34.5,20.3,40,24.2,6.9,37.4-25.6,19.3-39.6C1047.5,536.9,1040.6,542.2,1027.1,538.6Z"/><path class="cls-1" d="M1017.5,685.2c-5.7.2-13-2.5-16,2.8C995.7,709.6,1032.2,702,1017.5,685.2Z"/><path class="cls-1" d="M1013.6,653.8c3.1-5.7-4.2-8.1-7.6-6.1C1005.1,651.6,1009.2,652.8,1013.6,653.8Z"/><path class="cls-1" d="M831.2,329.1c1.2-5.1-1-8.2.1-13.2,27-10.8-.3-38.2-13.6-49.5-21.4-1.5-45.8-.4-52.8,18.3C754,313.9,799.4,342.5,831.2,329.1Z"/><path class="cls-1" d="M974.2,462.3c-16.1-5.3-28.3-6.6-33.2,3.4C926.3,495.7,989.1,502.1,974.2,462.3Z"/><path class="cls-1" d="M913.6,468.8c-16.9,3.9-30.5,13.9-43.4,25C884,486.2,907,481,913.6,468.8Z"/><path class="cls-1" d="M886.9,177.2c0-12-15-4.9-21.4-4.5,1.5-8.8,7.6-38.4-7.5-38.2,2.9,6.2-10.1,23.2-4.6,34.6,10.6,2.5,13.2,9.3,13.7,17.3C873.8,183.4,881.1,181.7,886.9,177.2Z"/><path class="cls-1" d="M601.5,487.6c-4.3,10.1-2.1,16.6.8,22.9C637.9,527.1,628.6,472,601.5,487.6Z"/><path class="cls-1" d="M596.3,486c-8.3-7.3-19.8-4.4-22.7,6.5C577.1,507.9,598.9,503.4,596.3,486Z"/><path class="cls-1" d="M562.1,473.9c-8,0-13.1,10.7-9.2,18.1C568.3,500.8,576.9,477.5,562.1,473.9Z"/><path class="cls-1" d="M598.7,134.9c11.8-.2,21.6,2.2,28.7-1,25.4-11.4,11.5-50.6-11.6-56.4C587.8,70.5,583.9,121.3,598.7,134.9Z"/><path class="cls-1" d="M545.2,359.2c44,8.7-4.9-42.5,0,0Z"/><path class="cls-1" d="M506.7,323.1c-21,4.9-25.2,35.5-4.4,40.3S535.4,329.9,506.7,323.1Z"/><path class="cls-1" d="M571,75.5c-16.4.9-39.4,25.3-6.4,34.1C573.5,104.1,584.7,83,571,75.5Z"/><path class="cls-1" d="M509.7,185.9c1.4,3.6,1.6,7.9,6.6,9.6-1.2-3.1-.6-4.8,3.3-4.7C515.8,180.2,515,192.4,509.7,185.9Z"/><path class="cls-1" d="M460.8,324.6c-16.8-20.8-40.6,11.7-23.9,23.2C449.9,356.6,466.4,343.2,460.8,324.6Z"/><path class="cls-1" d="M517,129.5c-10.9-9.4-24.1-4.8-30.8,2.1C482.3,155.2,521.9,162.6,517,129.5Z"/><path class="cls-1" d="M523.6,82.2c-8.9.6-17.6,2-19.8,9.2C496.2,116.6,546.2,106.1,523.6,82.2Z"/><path class="cls-1" d="M424.6,427.3c-8.9-1.2-7.9,2.1-13.9-4.1-1.6,7.1,4.9,10,6.8,15.3C425.8,442.1,428.3,431.8,424.6,427.3Z"/><path class="cls-1" d="M377.5,585.5c-13.2-5.5-21.9-25-38.4-17.2-5.5,8.5-11,18.2-8.3,27.9,6.1,4,13.5,7.2,19.3,11.4C360.6,602.7,373.2,601.8,377.5,585.5Z"/><path class="cls-1" d="M286.3,745.6c2.3,1.7,3.6,3.8,5.9,5.5C316.8,752.9,292.1,718.8,286.3,745.6Z"/><path class="cls-1" d="M377.5,407.6c-10.1,7.1-8.8,21.6-2.1,25.9C395.7,446.2,410.2,404.5,377.5,407.6Z"/><path class="cls-1" d="M410.2,336c-6.6-.4-10.2,4.5-14.1,9.1C400.6,341.6,408.5,344.6,410.2,336Z"/><path class="cls-1" d="M341.3,478.2c-15.8-2.8-26.8,29.6-8.6,35.3S358.6,488.2,341.3,478.2Z"/><path class="cls-1" d="M379.2,230.3l-6.9-2.1c-.8,2.3-1.4,4.7-2.1,7C375.4,237.6,378.4,236,379.2,230.3Z"/><path class="cls-1" d="M373.4,103.7c-6.1-3.1-8.4.8-14.4-2.4C326.6,127.2,388,141.6,373.4,103.7Z"/><path class="cls-1" d="M313,312.7c-3.9-4.6-6.2-10.2-13-13.3C262,304.4,304.6,360.9,313,312.7Z"/><path class="cls-1" d="M261.4,206.6,251,203.5C216.9,223.7,283.8,246.9,261.4,206.6Z"/><path class="cls-1" d="M1298.3,320.4c.2-2-1.5-1.4-1.8-.5-1.4-1.6-.6-4.5-4.1-5-.1,1.5,1.2,2.3.7,4s-2.6.7-4,.7C1288.9,327.1,1295.6,322.8,1298.3,320.4Z"/><path class="cls-1" d="M623.3,246.3c-.6,2.6-4.3-.7-6.2-.6.7,10,.1,24,15.5,28.6,6.1,22.1,8,43.3,35,52.2,3.5-.9,5.9-3.6,8.3-6.4,4.9,1.2,9.8,2.4,9.4,6.6-2-10.8,20-13.8,25.6-1.3,7.5,1.8,10.5-4.5,18.3-2.1-2.1-4.7-5.5-15.8,2.1-19.6-4.1-7.1-2.6-20.5,1-28.8-5.2-12.4-4.3-28.2-10.9-39.8,8.1.5,17.2,2.9,22.1-2.3,0-14-15.8-3.1-22.3-14.2,2.1,3.8-1.9,5.5-4.4,6.3-10.8-6.5-27.6-9.7-33.5-18.9-16.4-3.4-29.3-3-41.9-3.6-2.4,8.8-9.4,9-14.9,12,3,5.3-5.3,12-.6,18.8-3.2.7-4.8,4.2-7,6.7A6.3,6.3,0,0,1,623.3,246.3Z"/><path class="cls-1" d="M544.6,255.5c-12.2-2.5-27,3.6-35.9-10.7-38.6,5.1-68.2-7.3-78.8-37.1-3.7-10.5.1-21.7-6.9-29.4-14.7-16.1-46.3-11-59-31.2,5.4-12.3,19-9.5,25.4-19.8-8-7.3-12.5-17.3-5.1-28.8,14.6.9,23.8-8,41.4-1.4,6,10.5.6,14.9.3,25.5,12.3,5.2,20.8,3.2,32.8,7.8,4.2,4.7,2.7,12.6,11.2,15,13.7-6.1,28.1-11,49.6-2.8,9.2-7.9,19.8-13.4,29.5-20.5,7.4,1,10,4.7,13.3,7.9-.7,12.5-8.2,12.7-13,17.6,2.4,44.3,1.2,90.6,42.1,114.1,5.7.2,7.2-7.1,14.8-3.4,9.4,17.5,46.1,31.1,55.2,4.7,8.4.4,4.1,7.8,10.9,9.1,3.2-7.2,9.9-7.8,12.6-15.8,17.6,7.5,16.3,25.2,37.7,30.7,3.1-34.4,22.7-70.2,5.9-91.9-8.4,1.6-15.8-3.9-18.7-9.5,1.3-4.2,2.5-8.4,3.8-12.5,13.6-3.5,23.4,1.3,39-.1,9.9,8.3,4.4,32.2-6.6,35.1.4,38.8-27.5,84.3-9.9,112.3,58.6,6.7-3.1,36.4,10.9,61.8-12.6,0-18.6,12-27.2,19.2-1.5,4.8,4.5,5.6,2.7,10.6-4.5,5.1-3.3-5-8.5-4.4-23.8,37.5-46.7,76.8-75.9,104.3,3-10.7-6.3-14.7-4.4-24.7,7.9-4.4,4.3,12.8,10.9,9.1,11.6-19.3-.7-33.7,6.8-48.8,6-.9,7.5,3.4,16.1,4.8,9.8-11.6,17.4-27.2,24.7-43.4-5.8-4.9-23.5-10.9-29.3-6.8,1.5-12.6-17.7-8.3-26-17.5-16.6,10.9-49.4,7.6-56.2-14.8-8.5,0-13.1,7.3-21.6,7.2,14-8.4,27-18.5,37.4-33.7-7.6-13.2-14.5-32.4-2.3-51.5C576.3,283.8,561.6,259,544.6,255.5ZM392.1,137.9c-3.5,7.4.1,10.9,1.1,15.9,8.7,1.8,14.8,5.1,21,8.2C419.2,153.4,408.6,135,392.1,137.9ZM697.6,410.5c4,8.1,16.7-13.2,6.6-15.7C701.2,403,700.8,407.9,697.6,410.5Z"/><path class="cls-1" d="M210.6,264.1c11.8,2.4,26.1-3.4,34.8,10.4,37.3-5,66,7.1,76.3,35.9,3.6,10.2-.1,21.1,6.6,28.5,14.3,15.6,44.9,10.7,57.2,30.3-5.2,11.9-18.3,9.2-24.6,19.1,7.7,7.1,12.1,16.7,4.9,27.9-14-.8-23,7.8-40.1,1.4-5.8-10.2-.5-14.5-.2-24.7-12-5-20.2-3.1-31.8-7.5-4.1-4.6-2.6-12.3-10.8-14.6-13.3,5.9-27.3,10.6-48.1,2.7-9,7.7-19.2,12.9-28.6,19.8-7.1-1-9.7-4.5-12.9-7.6.7-12.1,7.9-12.3,12.7-17-2.4-43-1.3-87.8-40.9-110.6-5.5-.1-7,6.9-14.3,3.4-9.1-17-44.7-30.2-53.4-4.6-8.2-.4-4-7.6-10.7-8.8-3,6.9-9.5,7.5-12.1,15.3-17.1-7.3-15.9-24.5-36.5-29.8C35,267,16,301.6,32.4,322.7c8.1-1.6,15.3,3.7,18.1,9.1-1.3,4.1-2.5,8.1-3.7,12.2-13.2,3.4-22.7-1.3-37.8.1C-.6,336,4.8,312.9,15.3,310,15,272.5,42,228.4,25,201.3c-56.8-6.5,2.9-35.3-10.6-59.9,12.2.1,18-11.6,26.4-18.6,1.4-4.7-4.4-5.4-2.6-10.3,4.3-4.9,3.1,4.9,8.2,4.3,23-36.3,45.2-74.4,73.5-101C117,26.2,126,30,124.2,39.7c-7.6,4.3-4.2-12.4-10.6-8.8-11.2,18.7.6,32.6-6.5,47.2-5.9.9-7.3-3.2-15.7-4.6-9.5,11.2-16.8,26.3-23.9,42.1,5.6,4.6,22.8,10.5,28.4,6.5-1.5,12.2,17.1,8.1,25.2,17,16-10.6,47.8-7.4,54.4,14.3,8.2,0,12.7-7,21-7-13.6,8.2-26.2,18-36.3,32.7,7.4,12.7,14.1,31.4,2.2,49.9C179.9,236.7,194.1,260.8,210.6,264.1Zm147.7,114c3.4-7.2-.1-10.6-1.1-15.5-8.4-1.7-14.3-4.8-20.3-7.9C332.1,363,342.3,380.9,358.3,378.1ZM62.3,114c-3.8-7.8-16.2,12.7-6.4,15.2C58.9,121.3,59.2,116.5,62.3,114Z"/><path class="cls-1" d="M251,273.5c-4.1,4.6-3.2,7.5-1.9,12.7-1.7,1.8-6.3-3.2-11-1.4,4.6,7.2-7.6,5.9-3.6,12.1-28.3-28.1-60.1,20.9-34.8,40.7-11.7,14.8-60,9.4-36.6,40.3,6.7-2.6,7.7,1,15,.6,3.9,16.8,30.5,16.8,43.4,13,16.1,32.8,69.7,25.7,92.2,14.2,4.4,2,3.7,6.7,8.9,8.3,10.6.8,21.6,2.1,30.4-.4,3.2-10.4,12.8-8.6,17.9-15.5,11.8-1.2,22.2,10.1,41.1,14.1,35.4,7.6,66.8-5.2,73,21.8-17.1-3.8-31.8,23.5-6.5,28.3,3.3-2.9,9.4-.7,10.1-8.4,6.3,3.7,10.2,5.4,16.1,2.9,3.6-8.2,1.6-13.4-4.5-16.4,3.7-3,9.9-1.5,11.7-7.9,12.1,8.1,21.6,17.5,34.2,25.3,17.6-7,36.2-3.3,49.4-13.6-7.4-8.7-18-15.6-18.1-28.1-18.3-11.7-39.1-8.8-51.1-.1-4.6-1.3-2-10.1,2.6-8.7-2.3-6.7-7.9,3.2-9.5,6.6-5.8-2.2-7.1-6.9-14.6-8.1-3.2-4.9,3.8-7.3,1.4-10.9-4-2-4.8,2-9.3-.9.2,9.4-10.6,7.1-14.3,16.5-29.5-7.8-71.2-19.8-105.5-14.3-3.3-1.2,4.6-5.7.9-9.2-5.1.1-8.9,4.3-4.4,8.1-14-6.8-32.1-34.3-53.7-29.2-3.8-3.7,9.7-12.3,10.1-8.4,4.9-1.3-.2-9.5-4.4-10.7-5.4,1.6-6.9,10.5-9.1,18.1-22.7-11.6-59.9-31-76.1-11.3-8.3-.1-8-1.8-13.4-5.9-.6,2.5-1.2,5-3.3,4.7-6.2-1.1-3.7-6.8-6.7-9.6,4.8-3.5,9.6-9.8,16-2.8,0-5.5.1-5.8,3.1-10.4s1.4,4.8,6.5,3.8c2.9-3.8,1-15.6-1.3-21.2,2.7-3.9,7.7-3.7,11.3-6.1,5.9-12.5-12.2-9.1-8-17.5,4.7,2,16.3,6.6,21.7-3-5.3-2.7-8.9-2.1-11.5.4-4.9-1.3-1.7-12.1,3.1-10.4C258.8,270.9,254.2,277,251,273.5Z"/><path class="cls-1" d="M481.4,71.5c-6.4-11.7-30.7-15.3-35.7-1.1-2.5-.6-5-1.2-4.7-3.3,2.5,4.6-5.7,5.1-5.3,11.7C437,100.4,478.4,108,481.4,71.5Z"/><path class="cls-1" d="M386.7,338.5c-6.3,2.8-3,2.4,3,2.8-2-6.4-1.9-8.2,4.8-10,8.3-26.4-31.1-35.1-43.4-12.9,6.9,5,7.7,13.3,11,20.3C371.8,341.5,378.4,338.4,386.7,338.5Z"/><path class="cls-1" d="M1172.6,462.8c-10.3-22.7-52.7-33.7-58.1-7.9-2.4,11,10.5,32.7,25.2,35.9S1167.3,474.4,1172.6,462.8Z"/><path class="cls-1" d="M969.5,636.8c8.1,10.8,24.9,8.6,36.2,18.4-3.2,9,2,13.4-3.3,23.6-6.6,2.3-11.8,6.9-19.3,7.5-8-16.9-22.3-13-35.1-21.8-2.7-1.8-6.1-11.4-12.5-15.1-14-7.8-11.3-15.7-22-21.6-12.4-7-31.4-2.9-47.7-4.8-8.4-1-18.6-4.8-27.1-4.3-7,.5-10.2,4.4-16,2.8-17.1-4.6-28.3-25.2-44.5-28.4-4.2,17.8,19.7,14,20.3,26.9-25.1,2.6-23.8-33.5-32.5-49.4-21.8-33.2-74.4-39.2-108.9-66.5-6.7-.8-10,4.8-18.9.1-11.4-6.1,1.9-13.6,2.7-21.9s-5.3-10.9-2.3-17.7c9.8-22.2,48.5-8.8,74.3-8.2,10.1-24.5,40.7-11,62.7-13.5-6.6,8.3-15.3,8-18.4,17.3-5.3,16.1,13.9,26.7,20.8,38.3,9.1,15.3,23.9-2.9,36.1-.6,5.8,1.7,4.2,7.4,10.6,8.8,9.1.5,18.5-12.4,25-7.7-4.3,2-15.5,5.4-14,9.1,38,18.2,70.7,53,109.2,77.9,14.6,9.5,22.5,28.8,35,35,16.3,8.2,42.5-1.5,51.6,17.3C1015.7,653.1,981.4,614.8,969.5,636.8Zm-18.9-32c-2.2-8.1-10.8-12.6-21.7-16-.7,3.2-3.2,3.1-3.8,6.4C922.9,604.7,945.8,612.2,950.6,604.8Z"/><path class="cls-1" d="M274.3,480.9c4.9-6.2,12.2-7.9,17.3-13.7,1.3-13.5-9.9-21.9-21-30.9-.6-.4-1.6-6.1-1.9-6.2-14-3.2-26.2,15.9-35.2,29.2-28,4.1-57.1,6-78.5,22.1-20.6-2.2-34.8,7.6-50,15.4-41.5-7.7-14.8,30.3-24.7,51.2-.4,6.6,7.4,8.7,4.5,16.5s-10.7,10.7-12.4,22.8c8.3,22,37,27.3,51.3,43.7,12.4,14.1,6.6,29.8,16.9,44.8,16.2,6.8,22-4.9,37.2-4.1,17.1.8,26.9,15.7,40.1,17.6,11.5,1.7,17.2-10.1,27.8-10.6,6.1,3.3,10.7,9.1,18.6,7.4,10.4-8.1,9.2-14.5,17.7-21.2,5.4-4.3,28.4-8.4,27-14.7-1.8-8.6,4.3-16.5,5-23.1.9-8.2-3.3-14.5-3-21.7,1.2-27.4,10.2-45-3.2-65.3S275.6,510.1,274.3,480.9Z"/><path class="cls-1" d="M607.7,218.9c11.9-6.9,24.8-34.5,16.3-48.1-7.5-4.3-13.5-9.3-20.6-13.7C564.7,153.8,561,223.5,607.7,218.9Z"/><path class="cls-2" d="M690,394.1c4.3,5.7-3.5,16-10.2,14.1C676.3,403,683.9,392.5,690,394.1Z"/><path class="cls-2" d="M613.6,409.9c2.1-3.9-1.3-3.4-4-2.3,4.1-4,10.8-14.1,17.1-9C624.9,404.4,617.5,405.7,613.6,409.9Z"/><path class="cls-2" d="M725.8,502c-8.9-.5-13.2-8.6-18.5-14.4-2.7-.6-1.9-5-2.6-7.3,1.4-6.1,9.6-4.8,13.5-1.9C727,481.3,735.9,495.4,725.8,502Z"/><path class="cls-2" d="M768.6,515.9c.6-4.3,7.9-8.7,10.5-3.6C775.4,513.2,772.6,517.5,768.6,515.9Z"/><path class="cls-2" d="M482,437.1c-4.3-.2-3.9-5.3-5-8.4s-1-6.7,1.9-4.4C481,428.1,483.3,432.7,482,437.1Z"/><path class="cls-2" d="M876,553.2c6.8,8.4-13.5,14.2-16.9,6.5C860.8,553.2,870.2,549.4,876,553.2Z"/><path class="cls-2" d="M302.7,397.9a3.4,3.4,0,0,1,4-2.2A3.2,3.2,0,0,1,302.7,397.9Z"/><path class="cls-2" d="M358.5,421.8c-4.2-6.9,10.7-7.2,13.4-2.4C367.7,418.8,360,415.3,358.5,421.8Z"/><path class="cls-2" d="M307.1,405.3c-4.3-4.9-11.4-2.7-17-4.4-.7-.7-.4-1.4,1.1-2.1l9.7-.4C302.1,401.4,306.2,401.9,307.1,405.3Z"/><path class="cls-2" d="M311.7,416h-3.4c1.9-3.6.3-7.2-1.2-10.6C311.8,407.4,309.2,413.1,311.7,416Z"/><path class="cls-2" d="M386.7,447.5c-5-.5,1.3-13.6,1.4-13.5C389.2,438.5,387.5,443.1,386.7,447.5Z"/><path class="cls-2" d="M349.2,424.3c2-1.7,4.7.2,4.6,2.6A41.7,41.7,0,0,1,349.2,424.3Z"/><path class="cls-2" d="M343.1,428.7c-.5,1.9-1,3.8-1.4,5.7,9.1,2.6.5,9.8,3.1,16-.6,6.8-3,17-11.6,16.7-7,.6-11.8,7.8-18.7,3.1-3.1-7.5-17.8-3.9-16.8-14-3.4-7.7-2.7-18,.2-25,8.4,2.9,5-10.7,12.8-8.5,3.1-.8,4.5-5.3,8.4-2.9l.4-.7c3.9-.5,4.7-3.7,3.8-7.1-1.6-6,9.7-6.5,8.3-.3,1.6,4.2-.2,12.3,4.6,13.7,4.6-.6,8.9,3,13-1.1C349.5,429.2,347.3,433.2,343.1,428.7Z"/><path class="cls-2" d="M318.7,417.8l-7-1.8C314.2,414.4,318.1,414.7,318.7,417.8Z"/><path class="cls-2" d="M618.3,530.6c4.4-3.3,6.8-8.7,12.2-10.5s4.1-9.1,10-6.8c10.5-1.5,15.5,9.7,25.1,11.1,5.6,3.8.8,10.2,3.2,15.3-.8,5-1.8,9.9-3,14.8-5.4,1.4-7.9,7.6-14.1,7.3s-8.7,4.9-12,8.6c.1,8.1,3.1,16.4,1,24.4-4.3-7.1-5.7-17.4-4.3-25.1-1-2.5-.5-5.7-2.4-7.9-10.4.3-7.8-12.3-14.9-16.5C624,539.5,613.5,535.1,618.3,530.6Z"/><path class="cls-2" d="M840.8,574.6c1.6,1.6,4.2,3.6,3,6.1-2.2,4-9.5,1.8-9.2-2.8C834.7,575.1,838.5,572.6,840.8,574.6Z"/><path class="cls-2" d="M135.8,375.8c2.4-5,10.2-1.3,14.7-.8C146.5,377,139,379.8,135.8,375.8Z"/><path class="cls-2" d="M148.7,384.2a9,9,0,0,1-6.6,8.1C141.1,388,143.5,381.8,148.7,384.2Z"/><path class="cls-2" d="M255.4,734.8c3.4-.6,5.8-3.3,9.2-3.8,4.5-3.2,8.6-7.2,13.8-9.3,4.1,4.6,8.1,9.9,8.6,16.2s-6.6,6.9-7.7,11.5c1.4,3.4,6.9.5,8.7,4,7.3-.3.9,10.9,7.4,8.9,4.4-1.2,7.9,2.2,11.9,3,5.7-4.1,13-4.7,19.7-6-1.2-5.1,2.1-9.4,4.9-13.3,5-3.5,6.3-10.3,11.9-12.8a17.4,17.4,0,0,0,6.4.9c.3,6.3,0,13.4-4.6,18.2-7,3.6-10.5,10.2-12.4,17.5,3.1,5,8.3-2.6,10.6-5.5,2.4-1.3,3.4-3.6,2.8-6.9a17.6,17.6,0,0,0,7-6.5c.6-1.6,1.7-4.7,2.2-6.3,2.2-2.4,3.7-6.8,7.7-6.2,10.4,6.1,13.4,18,14,29,5.3,1.5,6.9-9.3,12.8-7,5.3,5.2-5.2,19.6,3.7,22.3l1.1.2a58,58,0,0,0,1.8-10.8c-.1-1.8-.5-3.7-.6-5.5.9-3.4,2-6.9,3-10.3a32.2,32.2,0,0,1,2.8-2.4c4.5-.2,12.4-4,14.2,2.1l-1.2,2.9c2.1,4.9,5.5,9.1,8.6,13.4a24.9,24.9,0,0,1,12.4,1.2c4.4-3.3,8.9-6.8,13.5-10s5-5.9,3.9-9.7c5.8-5.6,13.7-8.7,21.1-11.5a14.4,14.4,0,0,1,1.8,2.5c0,3.4,4.3,3.3,6.8,2.6l3.5-.4,2.8-5.5c4.6-7.2,9.5-14.2,18.7-15.8,2.4-5.6,8.9-10,15.1-9.6,1.8,7.2,10.3,17.2,2.2,23.5-1.4,11.3-13.6,4-20.5,5.2-6.7-1.8-11.2,4-11.1,10.1,14,7.2,31.7,3.4,44.1,13.7,4.3,2.5,1.5,8,1.5,11.9.7,6.8-6.6,8.7-11,11.8-3.6-2.9,9.9-7.5,5.7-13.9-.5-11.8-18.7-18.4-24.8-6.9-9.2,9.4,3.8,17.5,6.7,25.8,8.2.5,18.6-4.5,25.7,2.4-.4,4.5-4.7,15.7,3.9,14.2s13.6,1.1,15.1,8.7c-2.1,2.3-6.6,1.8-9.7,2.7s-4.4,11.5,1.1,11.6,11.3-.4,13.5,4.4l-1.3,3.1a76.1,76.1,0,0,1-23.8-1.1c-3,.8-1.3,1.7.9,2.4,5.5.9,11.4,1.1,16.2,4.5-4.1,4-10.3,5.2-14.3,9.1-1.6,1.4,2.4,1.7,3,.9,4.7-3.9,10.8-5.5,16.6-7.2,2.5-.5,5.2-2.2,7.8-1.2,1.3,4-.5,8.4.7,12.4a14.3,14.3,0,0,1,.1,8.9l-.9,1.6a11.2,11.2,0,0,0-.5,1.3c-3.8,9.3-15.8,10.6-20.8,18.9-3.9,2.6-8.3,3.8-12.5,5.5-6,6.4-11.1,13.8-19.3,17.7-6.4.7-18.1-5.1-17.2,6.4-6.2,12.8,20.7,18.7,20.2,4.6,5.2-14.7,25.1-18,30.4-32.6,9.5-2.3,12.1-15.2,22.6-15.2,10.3-2.9,20.2,2.6,23.7,12.5-3.2,3.3-12.3,8.4-7,13.2,9.5,1.3,17-13.3,27.2-6.3,7,3.3,0,9.6-2.9,13.2-3,1-2.8,4.5-2.1,7.3-3.2,6-7.2,11.7-8.7,18.5,8.6.2,3.4-16.1,12.7-16.2,7.6-2.1,9.1-11.9,16.6-14.5,5.3,2.6,11-3,15.4,2.2,7.4,6.3,4.3,17.3,9,24.9,9.7,9.8,5.3,24.3,8.4,36.2-.1,7.1-1.4,16.5,5.4,21,3.2.7,8.5-.7,7.1-5.6,4-7.6-6.3-14-2.5-21.6,1.5-3.1,4.4-6.1,8.1-5.5s8.5,3.3,12.9,3.1a11.3,11.3,0,0,0,3.9-2.1c2.5-3.3,3.9-7.2,5.2-11l1.9-1.8c5.2,4-1,13.1,4.1,15.9,2.2-5.5,0-11.1.7-16.7v-5c.2-1.6.7-4.9.9-6.5,3.1-7.1,11.5-10.3,15.3-17.2,5.3-4.1,3.7-12.8,9.2-16.3s11.3-8.6,18.4-9.8c4.5-3,8.2,2.7,12.7,1.4s11.9,3.3,17.2-.6c4.3,5,9.3,13.3,17,9.4,3.6-5.9-12.4-4.6-5.2-12.3,5.7,3.7,10.9,8,16.7,11.6,1.3-2.5-.6-3.8-2.5-4.9-6-3.1-13.6-12.9-19.8-6a62.2,62.2,0,0,1-11.9-11,13.4,13.4,0,0,1,4.5-5.5c3.7.7,7.5,1.6,11.2,2.5s8.4,7.5,13,5.4c4.9-7.9-6.7-11.2-11.9-12.2-1-1.7-3-2.2-4.8-2.3-1.8-3.6,1.2-7.3.1-11.2.5-1.7,1.4-5.3,1.8-7.1,7.7-1.8,20-2.6,23.8,6.1-2,2.6.5,6.8,2.5,3.3,2.3-5.8,8.2.2,11.7,1.1.1,2.2-1.2,6.2,2.4,5.7,4.9-5.6,14.1-3.9,20.8-3.4a30.3,30.3,0,0,1,.2-3.1c-1.7-7.2,7.3,1.5,9.2-2.9-1.5-2.7-7-5.2-2.1-8.5.7-5.2,11.1-4.5,8.3-10.3-7.4-.7-8.2-8.1-7.9-13.6,2.7-3.1,9-3.2,9-8.2-2.3-3.4-7.6-3.1-10.2-6.5s-10.3-3.3-15.1-5.4c-.3-3.2-4.7-7.1-6.5-2.9-4.8,7.7-15.2,3.1-21.5,0-7.6-1.4-14.1-9-11.6-16.8s-2.8-13.1,1-19.4,8.7-9.9,15.5-11.2c5.7-9.9-7.5-12.9-14.3-8.5-5.8,1.9-5-11.7-.7-6.5s0-5,.8-7.3c4.4-7.7,17.4-4.2,21.3-12.5,5.1,1,6.9-6.7,2.8-9-2.6-.6-5.9-1-8,1a143,143,0,0,1-20.6,13.9,33.6,33.6,0,0,0-4.4-6.9c-1-3.3-2.5-6.4-3.1-9.8,2.6-3,9-5.4,10.5-.2,5.5.7,4.9-6,7.9-8.4,3.6.2,7.1,3.1,10.5,1.5.1-5.2-.2-12.9,6.9-12.7a4.7,4.7,0,0,0,5.2,2l3.1,1c-.4-5.8,1.4-13.2-5.2-16,.7-13.7,16.3-2.1,23-4.9-2-5.1-9.3-6.7-9.2-12.7-2-5.9-17.2,2.1-14.9-5.1,6-4.1,11.9-9.7,19.7-9.8,4.3.3,10.9-5,5.5-8.3-4.7,0-10.3,4.8-14.5-.7s2.3-10.2,6.7-12.6a59.7,59.7,0,0,0,12.6-3.2c1.8-2.7-2.3-4.5-4.4-3.2-5.3,2.2-10.5,5.2-16.6,2.7-3.4.8-5.9-1.1-7.2-4.2s-1.3-5.4-3.9-6.7c0-3,5-8.8,2-10.4-5.8-3.3-8.1,8.6-13.1,3-.4-3.5-.5-7-.7-10.6.6-1.6,1.6-4.8,2.1-6.5,2-5,5.2-9.8,5.3-15.4-.3-1.8-1.3-2.8-3.1-1.8-5,2-3.6,8.9-5.9,12.8-5,5.4-4.7,17.6-15,13.2-8.8-.5-2.5-9-2.3-14.4a30.9,30.9,0,0,0,.1-4.3c1.1-7,5.3-13.6,6.1-20.3-5.8-5.2-5.6,9-8.7,12.9-6.8,1.6-8.4,8-9.3,14.3-4.5,4.1-10.3,7.6-15.6,10.6-16-.4-28.3-14.8-30.4-29.9-7.2-3-6.3,9.7-1,11.7,4.3,5.2-1.8,7.7-6,4.1-2.7-2-5-1.1-4.4,2.4s-.1,8.9-2.9,12.8c-1.8,11.7-14.3,4.5-18.6-1.3s-9.7.4-3.4,2.8c9.6,7.8,14.4,23.4,4.9,33a9.1,9.1,0,0,0-5.3,2.5,42.1,42.1,0,0,0-4.9.9c-3.5,0-7.8-.4-9.4-4,.7-5.2,4.9-11.8.2-16.4-6.9,4.2-2,15.1-3.3,22.3l-11.3-3.2c-3.2,6.5,9.2,1.8,11.1,5.1,2.7,7.3-5.5,14.4-2.4,21.6s-3.6,10.7-5.9,15.3c-3.2-.1-6.4-.2-9.7-.1a83.5,83.5,0,0,1-8.8-3.8c-1.3-4.4-2.5-8.8-3.7-13.2a3.3,3.3,0,0,0-1.3-3.8c-.9-4.9-3.9-9.4-9.2-10.2-1.1,5.3-2,12.6,2.8,16.4,5.5,8.9-1.7,16.4-8.3,21.8a38.1,38.1,0,0,0-7-3.5c-1.4,3.3,5.2,2.8,3.9,6.8-6.7,3.4-14.4,1.6-21.5,3.5-4.1-2-8.2-10.4-13.5-6-1.1,6.4-2.5,13.1-7.4,17.6-6.1.7-15.5-7-18.5.9,2.5,3.6,6.2,6.2,9.9,8.6,1,1.8-.3,3.5-1.2,5-4.7,4.4-10.7-1.1-16-.5a5.4,5.4,0,0,0-3,6c.2,5.8,2.3,11.2,4,16.6-.1.5-.2,1.4-.3,1.8-6.4.4-12.7.8-19-.3-2,4.9-5.8,9.7-12,7.9s-10.3-2.4-9.1-7.1v-.3a13,13,0,0,1,2.1-3.7c2.2-2.6,5-4.8,8.5-5.2s4.7,2,7.1,3.1a21.3,21.3,0,0,0-3.3-4l-1.9-1.8c-5.2.5-9.7-2.4-12.7-6.4h5l-4.3-4c2.7-6.7,5.1-13.9,9.7-19.6,4.2-.8,5.7-4.4,5-8.6V683c.6-3.8,2.2-6.9,7.1-4.5,3.9-.2,6.5-5.8,2.3-8.2-6.6-7.1,5-20.9,13.3-12.3,2.6,1.6,5.8,2.2,8.6,3.1s10.1,2.6,11-1.6c-5-11-27.5-3-28.3-16.4-1.3-7.9,6.7-5,9.7-9.2-.1-6.3-11.5-5.9-8.8-12.3,5.8-3.2,13.3-2.3,19.8-3,6.2,1.6,8.5-9.9-.1-6.8-4.9,2.3-11.1,5.9-15.7.7.4-15.2,17-12.7,27.5-14.7,2.8,1.2,7.9-3.8,4.1-5.4-12.1-4.8-23.9,8.7-36.1,3.3-3-7.9-8.9-15.3-3.7-23.9,2.6-1.2,5.2-2.3,7.1-4.3a86.5,86.5,0,0,1,10.2-4.9c5.4-2,4.5-11.3-1.7-9.6s-20,12.6-25.5,3.1c-3.6-5.8,6.8-7,5.3-13.1-4.7-1.6-9,1.9-13.7,1.7-1.4-2.8-2.5-5.8-4.9-7.9a23,23,0,0,1,2.3-7.3c5.2-.9,9.3-5.4,8.5-10.9l-1.2-1.4c-.5-1.1-4.7-3.5-2.5-3.6,8.1.1,2.7-13.6,9.7-15.9,7.5.2,9.6,7.9,13.6,12.8,3.7-2.4,1.1-7.1,2-10.6,8.6,2.4,1.1,15.3,8.7,19.3,2.4-5.2-.4-11.4,2.2-16.5s8.2-9.2,9.5-15.6h1c1.9,1.3,3.3,1.7,4.5,1.4,4.5,3.2,4.9,10.8,10.2,13.4,5.4-6.8-5.7-9.8-5.1-16.1.1-3.1,4.2-1.9,6.3-2.5,4.4.8,5.8,5.4,8.7,8.2,8.7-1.8-.2-11.3-3.5-14.2s-4-10.9-7.9-14.8c4.2-3.9,9.6-7.7,11.9-13.6,1.3-1.4,2.9-2.8,3.6-4.7-3.6-1.6-7.3,2.2-10.5-.2s-4.4-5.4-7.9-6.1l-7-2.2-1.5-1.7c-3.9-1-3.4-7.2-6.9-6.4l-1.8.9c-5,.1-3.8-7.2-9-6.3.6-3.7-2.9-3.3-5.5-3.7-.5-2.1-.1-4.5-1.4-6.5l-.9.4-.6.6c-7.8,9.3-23.3,1.8-31.1,11.4-3.2-.1-6.5-.5-9.7-.7,1.5,9.8-10.1,8.2-12.1,17q-3.6,1.1-2.1,6c-.1.7-.1,2.1-.2,2.8-1.9,3.9-3.7,7.9-3.6,12.3-.4,9.3-11.4.8-11.2-5.2-3.7-.7-5.4,4.5-8.9,5-5.7,1.6-9.4-5.1-14.8-5.4-8.2,4.1-15.8,11.3-14.1,21.2-9.3,4.6-19.6,5.9-29.4,8.7-3.1-8.4.7-17.5-.5-26.1-1.5-2-4.3-3.5-6.3-1.4-4.5,4.8-2.6,11.6-1.4,17.3-1.2,4.2-2.4,8.3-3.7,12.5l-1.4.9a7.3,7.3,0,0,0-6.2-1.8,81.1,81.1,0,0,0-3.1-8.2,25.7,25.7,0,0,0-2.7-5.2c-6.8-2.9-10.4-8.7-18.3-6.5-7.2-4.9-5.1,6.3-11.4,4.5-9.2-5.3-4.3,3.9-4.8,7-4.8,2.4-.8,7.1-2.4,10.7-7.9.5-6,9.9-3.1,14.6a27.7,27.7,0,0,0-3.1,5.6c-2.3.1-3.8,2-4.5,4.1-10.4,2.5-19.9-7.1-20.4-17.1.6-6.8-8.5-11.4-11.1-4.3.1,4.7,4.2,8.1,5,12.7,4,7.3,12.7,12.6,13.7,21.5-1.3,3.7-6.6,3.8-9.6,5.8l-9.5-2.3a40.5,40.5,0,0,1-4.3-2.9,8.7,8.7,0,0,0-1.8-1.1c-2.9-2.1-6.1-5.4-8.9-2.6-3.9,5.7-12.6,11.7-19.1,7.5a9.5,9.5,0,0,1-.6-1.8c-.8-3.4-3.1-6.2-4.9-9.3.4-4.6,3.9-12.8-4.1-12.8-4.6,3.6.5,11.7-5.7,13.4-7.9,1.1-2.7-6.5-5.7-9.9-4.5.1-11-1.7-13.4,3.3-4,5-12.7,5.1-12.4-2.3-1-5.6,1.9-14.1-4.7-16.9-6.5,5.4,4.8,15.2-2,21.5-1.9,1.1-5.7.2-6.1,2.9.7,6-5.8,6.9-10.2,7.2-5.5,2.2-7.5-4-11.8-5.3-4.2,3.5,2.5,8.6-.9,12.5s-8.3,2-12.6,2.4c-2.5,4.3,8.1,6.3,4,10.1s-10.4-.9-15.2-2.6c-.3,6.3,12.4,7.7,10,15.8-4.2,6.5,5.6,10.1,2.8,16.3-2.2,2.1-6.6.4-8.4,3.4a87.8,87.8,0,0,0-2.1,10.2c4,1,8.3.1,12.3,1.5.8,3.8-.9,7.2-3.5,9.9-1.2,6.4,12.3,5.9,5.9,13.7,6.3-2,13.6,2.1,9.6,9.7,5-3.8,13.9-3,10.7,5.7,2.2,7.1,7.3-7.3,11.8-.5,4.7,1.1,3.2,6.2,3.1,9.6,2.9,1.2,6.2.4,9.3.4,4.6.1,7-6.8,12.1-2.8,5,.7,7-5.7,11.2-7.5l3.1,1.4c-9.2,4.5,5.3,10,9.5,5.3a8.3,8.3,0,0,0,6.1,1.6l.6.6a3.8,3.8,0,0,0,2.5,4.7c1.1,4.8-5.7,4.6-8.7,5.9-1.8-.9-2.8-6.7-5.1-3.7-2.8,5-8.8,2.1-12.8.4-7.5-2.1-20.8,2.8-18.4,12.1-10.1,3.2,1.2,14.1-4.3,20.8-.3,4.8,7.8-.3,9.2,4.6,1.5,6.6,7.8,4.9,12.4,7.9,2.2,1.4,5.5,5.7,5.3-2.2,2.9-4.2,12,1.1,11.5-5.1-.4-4.7,5.6-2.8,8.5-4,1-2.8-6-8,.3-7.8,1.6,2.7,3.1,5.5,4.4,8.3a9.4,9.4,0,0,0-2,5.9c-4.8,4.1-10.8,9-9.3,16-.1,13-14.9,18.7-25.4,22.4C251,725.3,250,734.8,255.4,734.8Zm563.2,75.8c1.7,2.2-1.3,5.3-2.7,6.9-5.9.7-12.1,1.1-18,.1C799.2,809,811.6,806,818.6,810.6Zm-124.8-176c2.6-.1,5-.2,2.6-2.8l17.7,5c4,2.8,5.9,8.2,1.7,11.6-3.1,6.6-11,4.8-16.1,8.3-1.8,3.6,1.8,4.3,4.6,5s6.7-2,10-.5c.2,4.3-4,5.5-6.1,8.2a7.6,7.6,0,0,0,6.7,1.9c1.8,1.3,4.7,2.7,3.9,5.4l-12.6-3.6c-5.2.5-9.5-3-11.3-7.5a43.3,43.3,0,0,1,.5-8.8,4.2,4.2,0,0,0,.8-4.4C697.8,646.1,694.2,640.6,693.8,634.6Zm73.4,71.5a36.5,36.5,0,0,1,3.1,2.4c.3,3.1.4,8.3-3.4,9.3l-.8-2C765.2,712.5,761.1,706.3,767.2,706.1Zm6.9,15.6c.8-5.1,4.7-16.1,11.5-8.8,2.9,1.6,5.7,3.1,8.5,4.8s6.3,4.9,7.4,8.7c-1.2,4-7.2,4.4-10.2,2.3C786.1,725.2,779.9,723.7,774.1,721.7Zm38,103.4c2.1,4.7-3.6,9.7-6.2,13.4C797.3,836.2,806.4,824.3,812.1,825.1ZM575.4,726.8c-.7-2.4-1.7-4.7-1.7-7.3C579.7,719.9,580.1,735.3,575.4,726.8ZM280.3,658.2c-1.7-3.3,3.3-5.2,5.7-3.9C291.2,656.7,282.6,662.9,280.3,658.2Zm31-104.1c1.2,1.8,3.8,5,.1,5.6C305.7,562.2,305.4,550,311.3,554.1Zm-20,67.6c2.2,2.6-.1,9.3-4.1,7.4S286.3,618.6,291.3,621.7Zm14-77.1c2.5,2,1.3,6.3-2.2,4.7C297.7,548.1,300.6,540.5,305.3,544.6Zm201.3-71.5c.8-1.7,1.7-3.4,2.5-5C517.1,468.4,509.8,478.4,506.6,473.1Zm18.8,51.8c3.3-3.8,4.4-10.5,10.3-10.8,1.8.9,3.5,1.8,5.1,2.8C537,520.2,531.3,529.3,525.4,524.9ZM327.1,727.3c4-2.1,6.1-9.2,11.6-3.7,5.5,3.5-2.2,11.1-5.2,14.5C326.6,738.2,331.2,730.5,327.1,727.3Zm-45.3-6.2c7.9-1.4,11.8-14.2,20.8-9.5,7-2.2,7.2,8.4,1.5,7.3-3.1-1.2-6-2.6-9.1-3.7-3.4,2.2-2.7,7.8-6.6,9.7C285.8,724.7,283.9,722.7,281.8,721.1Z"/><path class="cls-2" d="M732.1,148.7c-2,.4-3.4,2-5.3,2.2-2.6,1.9-5,4.1-8,5.4-2.3-2.7-4.6-5.7-4.9-9.3s3.8-4,4.4-6.7-3.9-.2-5-2.2c-4.2.1-.5-6.3-4.3-5.2s-4.5-1.3-6.8-1.7c-3.2,2.4-7.4,2.7-11.3,3.5.7,2.9-1.2,5.4-2.8,7.6s-3.6,5.9-6.9,7.4a8.8,8.8,0,0,0-3.6-.6c-.2-3.6,0-7.7,2.6-10.4s6-5.9,7.1-10.1c-1.7-2.9-4.7,1.5-6,3.2s-2,2-1.7,3.9a9.8,9.8,0,0,0-4,3.8l-1.3,3.6c-1.2,1.4-2.1,3.9-4.4,3.6-6-3.5-7.7-10.4-8-16.7-3.1-.9-4,5.3-7.4,4-3.1-3,3-11.3-2.1-12.8h-.6a32.2,32.2,0,0,0-1.1,6.2c.1,1,.3,2.1.4,3.1s-1.2,4-1.7,6l-1.7,1.4c-2.6.1-7.1,2.3-8.1-1.3a11.1,11.1,0,0,1,.7-1.6c-1.2-2.8-3.2-5.2-5-7.7a14.3,14.3,0,0,1-7.1-.7c-2.6,1.9-5.2,3.9-7.8,5.7a4.9,4.9,0,0,0-2.2,5.6c-3.4,3.2-7.9,5-12.2,6.6l-1-1.4c0-2-2.5-1.9-3.9-1.5l-2,.2-1.6,3.2c-2.7,4.1-5.5,8.2-10.8,9.1a9.5,9.5,0,0,1-8.7,5.5c-1-4.2-5.9-9.9-1.2-13.5.8-6.5,7.8-2.3,11.7-3,3.9,1,6.5-2.3,6.4-5.8-8-4.2-18.2-2-25.3-7.9-2.5-1.5-.9-4.6-.9-6.9-.4-3.9,3.8-4.9,6.3-6.7,2.1,1.7-5.7,4.3-3.2,8,.3,6.8,10.7,10.5,14.2,3.9,5.3-5.4-2.2-10-3.8-14.8-4.8-.3-10.7,2.6-14.8-1.4.2-2.6,2.7-9-2.3-8.1s-7.8-.7-8.6-5.1c1.2-1.3,3.7-1,5.6-1.5s2.5-6.6-.7-6.7-6.5.3-7.8-2.5l.8-1.8a42,42,0,0,1,13.7.7c1.7-.5.7-1-.5-1.4-3.2-.6-6.6-.7-9.3-2.6,2.3-2.3,5.9-3,8.2-5.2s-1.4-1-1.8-.6c-2.7,2.2-6.1,3.2-9.5,4.2-1.4.2-3,1.3-4.5.6-.7-2.3.3-4.8-.4-7.1a8.9,8.9,0,0,1-.1-5.1l.6-.9a2.5,2.5,0,0,0,.2-.7c2.2-5.4,9.2-6.2,12-11,2.2-1.4,4.8-2.1,7.2-3.1,3.4-3.7,6.4-7.9,11.1-10.2,3.7-.3,10.4,2.9,9.9-3.6,3.6-7.4-11.9-10.8-11.6-2.7-3,8.4-14.4,10.4-17.5,18.8-5.4,1.3-7,8.7-13,8.7a11,11,0,0,1-13.6-7.2c1.8-1.9,7.1-4.8,4-7.6-5.5-.7-9.8,7.7-15.6,3.6-4.1-1.8,0-5.5,1.6-7.6,1.8-.5,1.7-2.5,1.2-4.2,1.9-3.4,4.2-6.7,5-10.6-4.9-.1-1.9,9.3-7.2,9.3s-5.3,6.9-9.6,8.3c-3-1.4-6.3,1.8-8.9-1.2-4.2-3.6-2.5-10-5.2-14.3-5.5-5.7-3-14-4.8-20.9.1-4,.9-9.4-3.1-12-1.8-.4-4.8.4-4.1,3.2-2.2,4.4,3.7,8.1,1.5,12.4-.9,1.8-2.5,3.5-4.7,3.2s-4.8-1.9-7.4-1.8a10.1,10.1,0,0,0-2.3,1.2,24,24,0,0,0-2.9,6.3l-1.1,1.1c-3-2.3.5-7.6-2.4-9.2-1.2,3.2,0,6.4-.4,9.6a27.1,27.1,0,0,0,.1,2.9c-.2,1-.5,2.8-.6,3.8-1.8,4-6.6,5.9-8.8,9.8s-2.1,7.4-5.3,9.4S448,57,444,57.7s-4.8-1.6-7.4-.8-6.8-2-9.8.3c-2.5-2.9-5.4-7.7-9.8-5.4-2.1,3.4,7.1,2.6,3,7-3.3-2-6.3-4.6-9.6-6.6-.8,1.4.3,2.1,1.4,2.8,3.4,1.8,7.8,7.4,11.4,3.5a33.9,33.9,0,0,1,6.8,6.3,8,8,0,0,1-2.6,3.2L421,66.5c-2.2-1.3-4.8-4.3-7.5-3.1-2.8,4.5,3.9,6.4,6.9,7a2.9,2.9,0,0,0,2.7,1.3c1.1,2.1-.7,4.2-.1,6.5s-.7,3-.9,4.1c-4.5,1-11.6,1.5-13.7-3.6,1.1-1.4-.3-3.9-1.5-1.8s-4.7-.2-6.7-.7c-.1-1.2.7-3.5-1.4-3.2-2.8,3.2-8.1,2.2-11.9,1.9-.1.5-.1,1.4-.2,1.8,1,4.1-4.2-.9-5.3,1.7.9,1.5,4.1,2.9,1.3,4.8-.4,3-6.5,2.6-4.8,6,4.2.3,4.7,4.6,4.5,7.8s-5.2,1.8-5.2,4.7,4.4,1.8,5.9,3.7,5.9,1.9,8.7,3.2c.1,1.8,2.7,4,3.7,1.6,2.8-4.4,8.8-1.8,12.4,0s8.1,5.2,6.7,9.7,1.6,7.5-.6,11.1-5,5.7-8.9,6.5c-3.3,5.7,4.3,7.4,8.2,4.8s2.9,6.8.4,3.8,0,2.9-.4,4.2c-2.6,4.4-10.1,2.4-12.3,7.2-2.9-.6-4,3.8-1.6,5.1s3.4.6,4.6-.5a72,72,0,0,1,11.8-8,24.2,24.2,0,0,0,2.5,4,46,46,0,0,1,1.9,5.6c-1.6,1.7-5.2,3.1-6.1.1-3.2-.4-2.8,3.4-4.6,4.8s-4-1.8-6-.9c0,3,.2,7.5-3.9,7.4a2.8,2.8,0,0,0-3-1.2l-1.8-.6c.2,3.3-.8,7.7,3,9.3-.4,7.8-9.4,1.1-13.2,2.7,1.1,3,5.3,3.9,5.3,7.3s9.8-1.2,8.5,3c-3.4,2.3-6.9,5.6-11.3,5.6-2.5-.1-6.3,2.9-3.2,4.8,2.7,0,6-2.7,8.4.4s-1.4,5.9-3.9,7.3a31.2,31.2,0,0,0-7.3,1.8c-1,1.5,1.4,2.6,2.6,1.8,3-1.3,6.1-3,9.5-1.5,2-.5,3.4.6,4.2,2.4a4.2,4.2,0,0,0,2.2,3.8c0,1.8-2.8,5.1-1.1,6,3.3,1.9,4.6-4.9,7.5-1.7.2,2,.3,4,.4,6.1l-1.2,3.7c-1.2,2.9-3,5.7-3,8.9.1,1,.7,1.6,1.7,1,2.9-1.1,2.1-5.1,3.4-7.4,2.9-3,2.7-10,8.6-7.5,5.1.2,1.5,5.1,1.3,8.2v2.5c-.6,4-3,7.8-3.5,11.7,3.3,3,3.2-5.2,5-7.4,3.9-.9,4.8-4.6,5.3-8.3a58.7,58.7,0,0,1,9-6c9.2.2,16.3,8.5,17.5,17.1,4.2,1.8,3.6-5.5.6-6.7-2.5-3,1-4.4,3.4-2.3s2.9.6,2.5-1.4.1-5.1,1.7-7.3c1-6.8,8.2-2.7,10.7.7s5.6-.3,2-1.7c-5.6-4.4-8.3-13.4-2.9-18.9a5.1,5.1,0,0,0,3.1-1.5l2.8-.4c2,0,4.5.2,5.4,2.2s-2.8,6.8-.1,9.4c4-2.3,1.2-8.6,1.9-12.7l6.5,1.8c1.8-3.7-5.3-1-6.4-2.9-1.6-4.2,3.2-8.4,1.4-12.5s2.1-6.1,3.4-8.8a50.9,50.9,0,0,0,5.5.1,29.1,29.1,0,0,1,5.1,2.2c.8,2.5,1.5,5,2.1,7.6a2,2,0,0,0,.8,2.1c.5,2.8,2.2,5.5,5.3,5.9.7-3,1.2-7.3-1.6-9.4-3.2-5.1,1-9.5,4.8-12.6a21.9,21.9,0,0,0,4,2.1c.8-1.9-3-1.7-2.3-3.9,3.9-2,8.3-1,12.4-2.1,2.4,1.2,4.7,6,7.8,3.5.6-3.7,1.4-7.5,4.2-10.1,3.5-.4,8.9,4,10.7-.5a21,21,0,0,0-5.7-5c-.6-1,.1-2,.7-2.9,2.6-2.5,6.1.7,9.1.3a3.1,3.1,0,0,0,1.8-3.4c-.1-3.3-1.3-6.5-2.3-9.6a3.6,3.6,0,0,1,.2-1c3.6-.2,7.3-.5,10.9.2,1.1-2.8,3.3-5.6,6.9-4.6s5.9,1.4,5.2,4.1v.2a7.8,7.8,0,0,1-1.2,2.1,7.5,7.5,0,0,1-4.9,3c-1.4-.5-2.7-1.2-4-1.8a10.2,10.2,0,0,0,1.8,2.3l1.1,1a8.6,8.6,0,0,1,7.4,3.8h-2.9l2.4,2.3c-1.5,3.9-2.9,8-5.6,11.2-2.4.5-3.2,2.6-2.8,5v.5c-.3,2.2-1.3,4-4.1,2.6-2.2.1-3.7,3.3-1.3,4.7,3.8,4.1-2.9,12.1-7.6,7.1-1.5-1-3.4-1.3-5-1.8s-5.8-1.5-6.3.9c2.8,6.4,15.8,1.8,16.2,9.4.8,4.6-3.8,3-5.5,5.4,0,3.6,6.6,3.3,5,7-3.3,1.9-7.6,1.4-11.4,1.7s-4.8,5.7.1,4c2.8-1.4,6.4-3.4,9.1-.4-.3,8.7-9.8,7.3-15.9,8.4-1.6-.7-4.5,2.2-2.3,3.1,6.9,2.8,13.7-5,20.7-1.9,1.8,4.6,5.2,8.8,2.2,13.8a12,12,0,0,0-4.1,2.4,35.2,35.2,0,0,1-5.9,2.8c-3.1,1.2-2.6,6.6,1,5.5s11.5-7.2,14.7-1.7c2,3.3-4,4-3.1,7.5,2.7.9,5.2-1.1,7.9-.9.8,1.5,1.4,3.3,2.8,4.5a12.8,12.8,0,0,1-1.3,4.2,5.6,5.6,0,0,0-4.9,6.3l.7.8c.3.6,2.7,1.9,1.4,2-4.6-.1-1.5,7.9-5.5,9.1s-5.6-4.5-7.9-7.3c-2.1,1.4-.6,4.1-1.1,6.1-5-1.4-.7-8.8-5-11.1-1.4,3,.2,6.5-1.3,9.5s-4.7,5.3-5.4,9h-.6a3,3,0,0,0-2.6-.8c-2.6-1.8-2.9-6.2-5.9-7.7-3.1,3.9,3.3,5.6,3,9.3-.1,1.7-2.5,1-3.7,1.4s-3.3-3.1-5-4.7c-5,1,.2,6.5,2,8.2s2.3,6.2,4.6,8.4c-2.4,2.3-5.5,4.5-6.9,7.9a9,9,0,0,0-2,2.7c2,.9,4.2-1.3,6,.1s2.5,3.1,4.6,3.5l4,1.3.8.9c2.3.6,2,4.2,4,3.7l1-.5c2.9-.1,2.2,4.1,5.2,3.6-.3,2.1,1.7,1.9,3.2,2.1s0,2.6.8,3.8l.5-.2.3-.4c4.5-5.3,13.5-1,17.9-6.6l5.6.5c-.9-5.7,5.8-4.8,7-9.8,1.3-.4,1.7-1.6,1.2-3.4a9.1,9.1,0,0,1,.1-1.7,15.9,15.9,0,0,0,2.1-7.1c.2-5.3,6.5-.4,6.4,3,2.1.4,3.1-2.5,5.1-2.9s5.4,3,8.5,3.2c4.8-2.4,9.1-6.5,8.1-12.2,5.3-2.7,11.3-3.4,16.9-5,1.8,4.8-.4,10,.3,15,.9,1.2,2.5,2,3.7.8,2.5-2.8,1.4-6.7.8-10s1.3-4.8,2-7.1l.9-.6a4.2,4.2,0,0,0,3.5,1.1c.5,1.6,1.2,3.1,1.8,4.7a17.3,17.3,0,0,0,1.6,3c3.9,1.7,5.9,5,10.5,3.7,4.2,2.8,3-3.6,6.5-2.6,5.3,3.1,2.5-2.2,2.8-4,2.8-1.4.5-4.1,1.4-6.2,4.5-.2,3.5-5.6,1.8-8.3a17.4,17.4,0,0,0,1.8-3.3,3,3,0,0,0,2.6-2.3c5.9-1.4,11.4,4.1,11.7,9.8-.4,3.9,4.8,6.5,6.3,2.5s-2.4-4.7-2.8-7.3c-2.3-4.2-7.3-7.3-7.9-12.4.8-2.1,3.8-2.2,5.5-3.3l5.5,1.3,2.4,1.7,1.1.6c1.7,1.2,3.5,3.1,5.1,1.5,2.3-3.3,7.2-6.7,11-4.3a2.9,2.9,0,0,1,.3,1c.5,2,1.8,3.6,2.8,5.4s-2.2,7.4,2.4,7.3c2.6-2-.3-6.7,3.3-7.7s1.6,3.8,3.3,5.7c2.5-.1,6.3,1,7.7-1.9s7.3-2.9,7.1,1.4-1.1,8,2.7,9.7c3.7-3.2-2.8-8.8,1.2-12.4,1.1-.7,3.2-.1,3.5-1.7-.4-3.4,3.3-4,5.8-4.1s4.3,2.3,6.8,3c2.4-2-1.4-4.9.5-7.2s4.8-1.1,7.3-1.4c1.4-2.4-4.7-3.5-2.3-5.7s5.9.4,8.7,1.5c.2-3.7-7.1-4.5-5.7-9.1s-3.2-5.8-1.6-9.4c1.2-1.2,3.7-.3,4.8-1.9s.9-3.9,1.2-5.9c-2.3-.6-4.8-.1-7.1-.9-.5-2.2.5-4.1,2-5.7.7-3.6-7-3.4-3.4-7.9-3.6,1.2-7.8-1.2-5.5-5.5-2.8,2.1-8,1.7-6.1-3.3-1.3-4.1-4.2,4.2-6.8.3-2.7-.7-1.8-3.6-1.8-5.5-1.7-.7-3.6-.3-5.3-.3s-4.1,3.9-7,1.6c-2.9-.4-4,3.3-6.4,4.3a4.9,4.9,0,0,1-1.8-.8c5.3-2.5-3.1-5.7-5.5-3a4.9,4.9,0,0,0-3.5-.9l-.4-.4a2.1,2.1,0,0,0-1.4-2.7c-.6-2.8,3.3-2.6,5-3.4s1.6,3.9,2.9,2.1,5.1-1.1,7.4-.1c4.3,1.1,12-1.7,10.6-7,5.8-1.9-.7-8.1,2.5-12,.2-2.8-4.5.2-5.3-2.6s-4.5-2.8-7.1-4.6-3.2-3.3-3.1,1.3c-1.7,2.4-6.9-.6-6.6,2.9s-3.2,1.7-4.9,2.3,3.4,4.6-.2,4.5a53.9,53.9,0,0,1-2.5-4.8,5,5,0,0,0,1.2-3.4c2.7-2.3,6.1-5.1,5.3-9.1,0-7.6,8.5-10.8,14.6-13C734.6,154.2,735.2,148.7,732.1,148.7ZM408.2,105.2c-.9-1.3.8-3.1,1.6-4a36.2,36.2,0,0,1,10.4-.1C419.4,106,412.2,107.8,408.2,105.2ZM480,206.4c-1.5,0-2.9.1-1.5,1.6l-10.2-2.9c-2.3-1.6-3.3-4.7-.9-6.7,1.7-3.8,6.3-2.7,9.2-4.8,1-2-1-2.4-2.6-2.8s-3.9,1.1-5.8.3c-.1-2.5,2.3-3.2,3.5-4.8a4.4,4.4,0,0,0-3.8-1c-1.1-.8-2.7-1.6-2.3-3.2l7.3,2.1a6.6,6.6,0,0,1,6.5,4.3,29.1,29.1,0,0,1-.3,5.1,2.4,2.4,0,0,0-.5,2.5C477.7,199.7,479.8,202.9,480,206.4Zm-42.2-41.1-1.8-1.5c-.1-1.8-.2-4.7,1.9-5.3a5.4,5.4,0,0,1,.5,1.1C439,161.5,441.3,165.1,437.8,165.3Zm-4-9c-.4,2.9-2.7,9.2-6.6,5l-4.9-2.7c-2.4-.7-3.6-2.9-4.2-5.1s4.1-2.5,5.9-1.3S430.5,155.1,433.8,156.3ZM412,96.8c-1.2-2.7,2-5.6,3.5-7.7C420.5,90.4,415.2,97.3,412,96.8Zm136.1,56.6a14.5,14.5,0,0,1,1,4.1C545.6,157.3,545.4,148.5,548.1,153.4Zm169.6,39.4c1,1.9-1.8,3-3.2,2.2C711.5,193.6,716.5,190.1,717.7,192.8Zm-17.8,59.8c-.7-1-2.1-2.8,0-3.2S703.3,255,699.9,252.6Zm11.5-38.8c-1.2-1.6.1-5.4,2.4-4.3S714.3,215.6,711.4,213.8Zm-8,44.3c-1.5-1.1-.8-3.7,1.3-2.7S706.1,260.4,703.4,258.1ZM587.6,299.2c-.4,1-.9,1.9-1.4,2.9C581.6,301.9,585.8,296.2,587.6,299.2Zm-10.8-29.8c-1.9,2.2-2.5,6-5.9,6.2A26.9,26.9,0,0,1,568,274C570.2,272.1,573.4,266.9,576.8,269.4ZM690.8,153c-2.2,1.3-3.4,5.3-6.6,2.2s1.2-6.4,3-8.3C691.1,146.8,688.5,151.2,690.8,153Zm26.1,3.6c-4.6.8-6.8,8.2-12,5.5-4,1.2-4.1-4.8-.8-4.2,1.8.7,3.4,1.5,5.2,2.1,1.9-1.3,1.5-4.5,3.8-5.6S715.7,155.7,716.9,156.6Z"/><path class="cls-2" d="M133.1,398.8c-4.4-1.5-9.3-3-12.6,1s-5.9-6.7-8.5-3.4c2.8,6.9-5.9,8.4-10.5,11s2.9,8-2,10.4c-7.2,6.7,11.3,11.4,4.1,18.1,6.4.7,12.9,2.6,17.4,7,3.2-6.7,13.9-2.7,16-10.1,6.3-1.8,2.6-8.4,4.8-12.6,5.6-5.9-2.2-10.5-5.4-14.8C132.7,404.3,136.5,400.1,133.1,398.8ZM108.9,410c5.1,1.1,7.4-6.6,12.1-4.1,2.9,4.5,9.5,4.9,11.5,10.1.3,5.8-5.2,8.2-9.6,9.7-2.2,1.9-4.2,3.9-6.5,5.6s-5.5-2.2-8.3-3.3l-.5-2.1C103.7,421.8,104.2,413.3,108.9,410Z"/><path class="cls-2" d="M558.3,535c2.2-6.2,11.2,4.5,7,5.2-.8,3.3-7.6,4.4-7.6,1.9C555.3,540.9,554.9,534.7,558.3,535Z"/><path class="cls-2" d="M230.2,461c1.1,9.9,7.2,18.5,7.2,28.5-7.1-4.2-5.8-15.3-9.1-22.3C227.2,464.7,225.3,458,230.2,461Z"/><path class="cls-2" d="M650.1,604.2c-2.9,4.3-.2,8.8.6,13.2,2.4.3.5,8.1-2.9,5.6s-.3,5.1-2,7.3c-3.3-5-5-12,.3-15.5-1.3-3-1.5-6.3-1.7-9.4-2.4-2.2-5.6-1.3-8.4-2.3a21,21,0,0,1,8.2-2C647.5,596.4,663.9,608.8,650.1,604.2Z"/><path class="cls-2" d="M163.1,458c5.9,2.8,8.4,14,.6,15.7-5.4,3-12.3,1.3-14.1-5S156,450.9,163.1,458Z"/><path class="cls-2" d="M606,606.5c2.6-2.7,6.8-1.4,10.1-2.2,6.7.7,13.3-3.7,19.9-1.2C627.1,607.1,615.7,605.5,606,606.5Z"/><path class="cls-2" d="M124.4,522.1c.7-3.1,5-2.1,7.5-2.4C130.9,522.5,126.9,522.8,124.4,522.1Z"/><path class="cls-2" d="M593.2,661.7c3.8-2.3,11.1,2,16,1.6C608.3,670,596.1,663.2,593.2,661.7Z"/><path class="cls-2" d="M864,774.4c-.6,1.5-.5,5.5-2.9,3.3S861.2,772.1,864,774.4Z"/><path class="cls-2" d="M192.1,619.9c.2-2.7,2.9-4.9,5.6-3.9C197.5,618.6,194.7,620.8,192.1,619.9Z"/><path class="cls-2" d="M138.5,631.6c2.8-4.3,11.4-.3,15.8.2C149.4,633.9,143.6,632.4,138.5,631.6Z"/><path class="cls-2" d="M174.4,669.2c-.9-3.1-.2-6.7-2.7-9.6,1.8-6.2,9-11.1,14.9-11.3s8.3,7.9,13.9,10.5a58.6,58.6,0,0,1-6.3,11.2c.6,10.1-7.8-.3-10.9,4S179.3,667.1,174.4,669.2Z"/><path class="cls-2" d="M835.6,869.3c-.4,1.9,1,5.2-1.7,5.8C829.6,875.2,831.9,867.1,835.6,869.3Z"/><path class="cls-2" d="M818.8,870.9c-.8,4.6-6.9,1.1-9.2.5C810.2,867.4,817,870.5,818.8,870.9Z"/><path class="cls-2" d="M481.6,774.1c2.5,3.3-2,5.6-4.8,6.2C474.8,777.3,478.2,772.7,481.6,774.1Z"/><path class="cls-2" d="M238.1,755.6c-7.3-4.1-5.1-10.9-4.8-17.3,5.8-2,15.6-6.2,18.8,2.1C258.4,749,246,759.9,238.1,755.6Z"/><path class="cls-2" d="M321.1,777.7c7.8,1.3,15.6,1.6,23.3,3.3-7.5,3.1-16.8,1.7-25,1.3C316.3,781.2,318.6,777.8,321.1,777.7Z"/><path class="cls-2" d="M504.3,833.3c-2.8,4.3-10.6,1.7-15.2,3.4-1.6,1.3-4,.8-6,.5,4.9-2.2,2.2-13.4,9.8-10.5,3.2.8-4.4,8.1-.1,7.6S500.5,832.2,504.3,833.3Z"/><path class="cls-2" d="M371.8,792.4c-1.8,8.4-4.7,18.3-7.3,27-.5,1.7.2,6-2.7,3.9,0-9.5,6.6-17.3,7-26.8C369,794.9,369.5,791.6,371.8,792.4Z"/><path class="cls-2" d="M189.2,745.3c2.3-2.2,5.7-8.1,8.9-3.8-.4,4.6-3.3,8.4-6.9,11.1C186.9,757.6,183.4,745.6,189.2,745.3Z"/><path class="cls-2" d="M542.9,864.4c-7.8,9.9-21.5,11.4-29.9,20.6-1.6,1.6-3.8,1.5-5.9,1.3,4.2-10.2,15.7-15.6,25.1-21C535.5,863.8,539.3,862.3,542.9,864.4Z"/><path class="cls-2" d="M379.5,835.3c2.4-2.5,1.5-10.2,6.1-7.1-.3,4.2-.3,9.5-4.6,11.7C378.5,839.9,378.1,836.9,379.5,835.3Z"/><path class="cls-2" d="M206.8,791.1c-.1-4,3.6-5.4,7-4.7C212.3,789,210.4,793.4,206.8,791.1Z"/><path class="cls-2" d="M351.9,857c1.4-5.8,3.1-11.6,5-17.3,5.3-2.9-1.4,7.8-1,9.1-.9,9.9-4.2,19.4-7.1,28.9C341.4,875.2,352.3,862.7,351.9,857Z"/><path class="cls-2" d="M117.5,800c2.3-4,7.3-4.4,11.2-6,4.5-3.4,10.7-6.7,16.4-4.6-.5,3.6-3.9,5-7,5.9a61.1,61.1,0,0,1-17.2,9.3C118.4,805.8,116.5,801.9,117.5,800Z"/><path class="cls-2" d="M712.1,967.1c1.5,1.4.6,5.6-1.9,3.6C708.2,970.6,710.1,964.4,712.1,967.1Z"/><path class="cls-2" d="M258.1,839.2c3,.3,6-3.3,8.5-.6.9,2.9,2,6.3,6,6.3,5.9,4.4-1.6,12.7-6.5,14.9C252.6,864.9,249.6,844.8,258.1,839.2Z"/><path class="cls-2" d="M566.8,940.7c-.2-10.4,5.2-1.4,8.9-1.2,4.8-1.7,8.4,3.6,13.3,1.2-1.1,7,12.7,13.1,4.6,19-4.9,3-.8,12.5-6.4,13.1-4.3-2.2-4.1,5.9-8.5,3.4a4.5,4.5,0,0,0,2.8-4.7c-2.3-5.8-11.7-3.3-6.4,2-2.9,1.5-5.8-.2-8.7-1.1l-.3,1c-7.1-4.5-8.2-12.6-10.9-19.7C560.5,950.4,562,943.8,566.8,940.7Z"/><path class="cls-2" d="M701.5,980.3c2,2.4-1.1,4.8-2.1,6.9C693.4,987.4,697,978.2,701.5,980.3Z"/><path class="cls-2" d="M729.2,1002.9a13.6,13.6,0,0,1,1.1,8.9C726.8,1011.1,727.3,1002.6,729.2,1002.9Z"/><path class="cls-2" d="M103,659.5c1.4,4.3-.9,9.8-4.8,11.7C96.6,667.3,99.5,661.6,103,659.5Z"/><path class="cls-2" d="M63.2,649.3c3.3,3.2,8.3-1,11.2,2.7,3.2,2,1.6,8.7,6.6,7.9,3.4,3.3-5.2,6.8,0,10.7-2.9,3.5-7.6,4.9-9.7,8.8-4-3.2-11,1.1-13.7-3.8-7.2-5.4.1-13.6-5-19.6C57.7,656.4,59.2,650.7,63.2,649.3Z"/><path class="cls-2" d="M37.5,599.5c-7.5-6.9-7.6-26.3,5.2-26.9A45.3,45.3,0,0,0,53,577.8c1.9,2.3,5,4.2,3.3,7.4,5.4,6.2-4.7,6.9-3.7,12.2C48.2,601,42.4,598.6,37.5,599.5Z"/><path class="cls-2" d="M45.4,525.1c-4,2.5-8.6.6-12.9-.2-2.2-1.8-1-4.9-2.2-7.2a5.9,5.9,0,0,1,.2-1.3C33,522.3,41.5,520.2,45.4,525.1Z"/><path class="cls-2" d="M73.5,493.2c.9,2.8,3.3,5.2,3.1,8.2C75.8,498.8,72.5,496,73.5,493.2Z"/><path class="cls-2" d="M334.3,697.5c-2.7.2-4.4-4.5-2.4-6.2C334.3,691.2,336.1,695.9,334.3,697.5Z"/><path class="cls-2" d="M346.6,668.8c.5,2.2,2.4,6.4-.6,7.4-1.5-1.8-.4-4.4-.9-6.6C345.9,671.1,346.5,669.9,346.6,668.8Z"/><path class="cls-2" d="M300.7,683.7c.7-.7,2,.4,2.9.7s-.5,4.1-2.2,4.7c-2.8,2.3-9.1,2.2-9.2-2.4C294.2,684,297.7,684.2,300.7,683.7Z"/><path class="cls-2" d="M278.9,697.6c1.3,1.1,1.2,4.3-1,4.1C278.4,700.4,277.6,698.6,278.9,697.6Z"/><path class="cls-2" d="M367.2,621.8c.7.2,2.4,1,1.1,1.5s-3.6-.3-4.8-1.7C364.5,620.3,366,621.5,367.2,621.8Z"/><path class="cls-2" d="M246.1,717.7a4.6,4.6,0,0,1-1.4,6.8C240.6,724.9,242.9,717.2,246.1,717.7Z"/><path class="cls-2" d="M413.1,573.8a1.3,1.3,0,0,1,.1-1.8A1.4,1.4,0,0,1,413.1,573.8Z"/><path class="cls-2" d="M394,585c3,.1.1,5-2,4.9C393,588.6,395.8,586.9,394,585Z"/><path class="cls-2" d="M414.8,567.4c.4-.1.6.1.5.8l-1.9,3.2c-1.2-.3-2.2.9-3.5.5C412.4,571.5,413.1,568.8,414.8,567.4Z"/><path class="cls-2" d="M406.2,570.1c.8,1.4,2.3,1.6,3.7,1.8-1.6,1.1-2.9-.9-4.4-.7A4.1,4.1,0,0,0,406.2,570.1Z"/><path class="cls-2" d="M383.9,592c-1.6-.5-2.8-2-4-3.2C381.1,587.3,384,592,383.9,592Z"/><path class="cls-2" d="M393.3,582.5l1.8-1A1.1,1.1,0,0,1,393.3,582.5Z"/><path class="cls-2" d="M384.6,567.5c1.3-2.3,0-5.4,2.9-6.6,3,.5,4.9-5,8-2.5a13,13,0,0,1,8,5.2c-2.7,2.1,2.4,3.8.1,5.9-.4,1.2.7,2.5-.8,3.3v.3c-.6,1.3.2,2.3,1.5,2.6s.1,4.5-1.6,2.8-3.9-2.6-5.4-1.4-2.8,2.3-2.3,4.4c-1.6-.9-2.5-2.4-.2-2.8l-1.5-1.6c-2.7,2.3-3.3-1.9-5.8-2.4S382.7,570.3,384.6,567.5Z"/><path class="cls-2" d="M403.5,573.1l2-1.9C405.5,572.3,404.6,573.6,403.5,573.1Z"/><path class="cls-2" d="M288.3,650.5c1.4-1.8.2-3.8-.3-5.7-2.6-1.6-5.9-2.4-8-4.7a15.3,15.3,0,0,1,8.9,3.8c1,.2,2,1,3.1.9,2-3.4,5.5,0,8.4-1.4.8,2.8,4.4.3,4.9,2.8s1.4,4,.8,6.1,2.1,3.2.1,4.6c-1.6,3.7-6.3,3-8.7,5.8-2.4,1-3.5-1.9-5.6-2.1s-2.8-2.6-4.2-4.1C288.4,654.5,286.9,652.4,288.3,650.5Z"/><path class="cls-2" d="M245.3,706c.9.6.9,2.4-.2,2.7s-2,.6-2.6-.3S243.9,705,245.3,706Z"/><path class="cls-2" d="M454.8,522.9c1.2,1.8-1.7,3.6-2.7,4.9C452.2,526.1,452.9,523.1,454.8,522.9Z"/><path class="cls-2" d="M449.4,525.3a3.4,3.4,0,0,1-1.2-3.8C449.8,522.1,451.3,524.1,449.4,525.3Z"/><path class="cls-2" d="M436.2,511.5c-.7,2.4,2.2,2.6,3.1,4.1.7,3,3.8,1.5,5.9,1.4s1.7,1.1,2.8.3,2.9-2.4,2.3-4.3,3.3-.5,2.8-2c-2.8-.5-1.4-3.7-1.4-5.7s-3.1-.7-2.9-2.8c-.7-3.7-6,1.3-6.7-2.4a10.8,10.8,0,0,1-5.8,4.1C437.8,506.7,434.3,509.3,436.2,511.5Zm5.2-3.1a33.1,33.1,0,0,1-.4-3.3c0-1.3,1.8-1.3,2.7-1.9l.8.3a4.4,4.4,0,0,1,4.9,3.7c-1.4,1.4.6,3.7-1.2,4.7s-3.6,2-5.7,1.6S441,510.2,441.4,508.4Z"/><path class="cls-2" d="M314.1,624.3c.9-.5,2.9.6,2.1,1.6,1.6,2.1-3.7,2.7-3.1,1.2C312.2,626.2,313.3,623.8,314.1,624.3Z"/><path class="cls-2" d="M407.9,535.7c-3.4-1.7-7.5-1.5-10.7-3.6,2.8-1.4,6.1,1.3,9.1,1.7C407.3,533.9,409.9,534.7,407.9,535.7Z"/><path class="cls-2" d="M275,641.2c-.8-1.8-2.8-1.9-4.4-2.5s-2.7-1.5-1.2-2.1-1.6-1.2-1.9-2.2c2.3,0,4.9.9,4.9,3.3a11.1,11.1,0,0,1,3.4,1.4c1.2-.3,1.6-1.5,2.5-2.2a8.4,8.4,0,0,1-1.1,3C278,642,270.6,644.7,275,641.2Z"/><path class="cls-2" d="M422.1,508.1c2.9.5,4.4,5.8.6,6.6-2.1,1.3-6.2-.2-5.2-3.1A3.7,3.7,0,0,1,422.1,508.1Z"/><path class="cls-2" d="M282,630.2c-1.6,2-1.6,5.1-3.7,6.7.5-3.7,3.4-7,5.1-10.4C283.7,627.9,282.4,629,282,630.2Z"/><path class="cls-2" d="M409.3,491.9c-.7-.9,0-2.3.8-2.9C411,489.9,409.7,491,409.3,491.9Z"/><path class="cls-2" d="M175.5,673.2c1.2-.1,1.8,1.2.5,1.7S174.3,673.6,175.5,673.2Z"/><path class="cls-2" d="M151.3,646.1c-.5-.5-1.9-.8-1.5-1.8S152.8,645.4,151.3,646.1Z"/><path class="cls-2" d="M19.6,388.6c1.6-2.2,6.2-.4,6.2,2.3S19.6,391,19.6,388.6Z"/><path class="cls-2" d="M32.9,416.8c-1.9-1.1-6.3-2.5-5.1-5.4,2.3.1,3.6,2.7,5.5,3.7C31.7,414.7,32.2,415.9,32.9,416.8Z"/><path class="cls-2" d="M55.6,364.2c.7,3.3-1.8,5.8-3.4,8.4.1,1-1.6,1.2-2.4,1.7-2.4.1-2.8-3.1-2.1-4.8C47.9,365.9,52.1,361.2,55.6,364.2Z"/><path class="cls-2" d="M53.9,343.5c.7,1.3,2.5,1.9,2.4,3.5C54.6,347.3,52.3,345,53.9,343.5Z"/><path class="cls-2" d="M52.6,463.2c1.2-1.2,2.6-2.5,4.4-2.5.3,1.6-1.6,2-2.6,2.7S52.1,464.5,52.6,463.2Z"/><path class="cls-2" d="M58.9,303.6c2.4-3.3,6.6,3.5,4.1,5.6C60.5,309.2,58.1,306.1,58.9,303.6Z"/><path class="cls-2" d="M59.9,529.6a1.2,1.2,0,0,1,1.2,1.3C60.5,530.7,59.9,530.3,59.9,529.6Z"/><path class="cls-2" d="M61.9,503.1c.2,1.6-.3,4.8,2.3,4.7C62,510.1,60.4,504.6,61.9,503.1Z"/><path class="cls-2" d="M66.8,525.7a4.2,4.2,0,0,1,.4,1.2c-1.6-.3-2.7.6-3.8,1.5C63.7,526.5,66,526.9,66.8,525.7Z"/><path class="cls-2" d="M65.6,495.6c1.5-.8,3.4-.7,5.1-.8C71,496.7,65.5,495.7,65.6,495.6Z"/><path class="cls-2" d="M66.5,509a14.6,14.6,0,0,1-.5,2A1.1,1.1,0,0,1,66.5,509Z"/><path class="cls-2" d="M64.2,521.8c-2.1,1.2-3.4-2.9-1-3.1s4.6-1.2,4.6-3.1S68,512,66,511c1.8-.6,3.5-.3,2.3,1.7h2.2c0-3.7,3.6-1.2,5.6-2.8s6.6-.7,7.4,2.5,4,3.5,3,6.6.4,6.9-3.4,7.6a12.6,12.6,0,0,1-9.2,2.5c.2-3.4-4.5-.7-4.5-3.8-.6-1.1-2.4-1.1-1.9-2.8h-.3C66.6,521,65.3,521.1,64.2,521.8Z"/><path class="cls-2" d="M66.8,522.9v2.8C66,524.9,65.7,523.4,66.8,522.9Z"/><path class="cls-2" d="M72.3,316.3c-1.1.3-2.4-.9-1.9-2s.9-1.9,1.9-1.7S74,315.9,72.3,316.3Z"/><path class="cls-2" d="M68.5,589.2c1.1,1.3,2.9,3.8,1.8,5.4C68.2,594.2,68.7,590.9,68.5,589.2Z"/><path class="cls-2" d="M75.7,590.5c-1.5.9-4,.6-3.7-1.5A3.4,3.4,0,0,1,75.7,590.5Z"/><path class="cls-2" d="M86.3,419.4c1.3-.1,2.4,2.3,1.5,2.6s-2.4,1.8-2.7.5C82.6,422.3,85.6,417.9,86.3,419.4Z"/><path class="cls-2" d="M141.6,285.1c.6.1,2.1-.4,1.5.7S141,286.4,141.6,285.1Z"/><path class="cls-2" d="M179.5,285.7c.7,0,1.8-.9,2.3.1S179,287.3,179.5,285.7Z"/><path class="cls-2" d="M181.8,291.7c1.8-.1,1.1,2.5,1.2,3.4C181.4,295.3,181.8,292.4,181.8,291.7Z"/><path class="cls-2" d="M374.3,429.9c0,2-2.3,2.1-3.8,2.7C371.7,431.8,372.6,429.1,374.3,429.9Z"/><path class="cls-2" d="M394.7,430.5a13,13,0,0,1,2.6-1.4,8.7,8.7,0,0,1,6.2,1.7l-2.9,11.6c-3.2.1-5.7-3-8.9-1.1l-1.4.4c3,2.5-1.3,4.1-2.8,1.3-2.6,1.3-4.8-2.5-2.8-4.6a3.3,3.3,0,0,1,4.9.2c2,1,3.9,1.4,4-1.1-.2-.6-.5-1.1-.7-1.7A8.7,8.7,0,0,1,394.7,430.5Z"/><path class="cls-2" d="M337.8,279.7c1-2.1,6.3-8.7,5-3.2C341.1,277,337,284.4,337.8,279.7Z"/><path class="cls-2" d="M317.1,239.5c-.4,1.6-3.6,1.7-2.7-.4,2.2-6.4,4.8-12.8,7.1-19.2,1.3-.4,1.6,0,1.1,1.2C320.6,227.2,318,233.1,317.1,239.5Z"/><path class="cls-2" d="M215.7,209.5c-.8-5.5-3.8-10.4-4.1-16a1.8,1.8,0,0,1,2.2,1.5c.3,5.8,3.7,10.9,4,16.8C216.2,212.2,216,210.6,215.7,209.5Z"/><path class="cls-2" d="M466.6,406.3c-.1-.2.1,0,.1-.2s-.3-.4-.2-.7-.3.1-.1.2-.2,0-.3.1h0c.2-.1.1-.4.3-.4s-.2-.1-.2-.2-.1.1-.2.1.1-.1.1-.2h-.2c-.1-.1-.1-.2-.2-.2s.1.1.3,0-.6-.4-.3-.7-.6.1-.3-.1-.2,0-.3,0,.1-.1.2-.3.1-.1,0-.4.1.3.2.4,0-.3.1-.4.1-.2-.1-.4l-.5.5h-.1c-.1-.1.1-.3-.1-.5s-.2.2-.4.2.4-.2.3-.3.3-.1.3.1a.2.2,0,0,0,0-.3c0,.2-.4-.1-.5.2h-.4c.2-.2.1-.3.4-.5s0-.2-.1-.3h-.3c.2.1.1.2.1.3s-.3.1-.4-.2-.1.2-.2.2h-.1a.4.4,0,0,0,.3-.4h-.6c0-.1-.1-.2.1-.3s-1,0-.9.1-.4,0-.6.2.1.2.2.2-.1.1-.1.2,0-.2-.2-.1a.4.4,0,0,1,.1-.3c-.1-.1-.6.1-.4.2a2.2,2.2,0,0,0-1-.5c.2.2,0,.4-.1.3s-.2-.2.1-.4-.8-.1-.9.3-.2-.3-.5-.3.1.1.1.2-.4-.1-.6-.1-.1.1,0,.2-.2-.1-.3-.2a.3.3,0,0,0-.1.2c-.2.1,0-.1-.2-.2s-.2,0-.3,0,.1-.3-.1-.4l-.5.3c.1-.2,0-.2-.1-.1s.1-.2,0-.3a.3.3,0,0,1-.4,0c-.2.1.1.1.1.2s-.5-.1-.6-.1,0,.5-.3,0,.3-.1.1-.3-.4.4-.7.2,0,.2-.1.2-.5.4-.6-.1-.1.2-.1.2-.2-.3-.3-.2,0,.3.1.2-.2,0-.3.2-.2-.3-.1-.4-.8.5-1,.1-.4.2-.7.4-.5-.3-.5-.5-.1.2-.4.2,0,.2.1.3-.1,0-.2.1,0-.3-.1-.4,0,.1.1.2h-.8c-.3-.4-.7.1-1-.1s-.1.1-.2.1-.5,0-.2.3h-.3c0-.1.1-.1,0-.2s-.7-.2-.8.3.1-.4-.2-.4a.1.1,0,0,0,0,.2h-.4c0-.2.2,0,.3-.1s0-.2,0-.3-.4.2-.6.1-.3.2-.5.1.3,0,.2-.1-.3.1-.3.2-.3.1-.7.1-.2-.2-.2-.4-.2,0-.2-.1-.6.6-.8.4-.4.5-.8.6h.2c-.1-.1-.2-.2-.3-.1s0,.1.1.2-.3-.5-.5-.3-.4.6-.6.5.2,0,.1-.1-.1.1-.2,0a.4.4,0,0,0,.2.4h-.1c-.3.2-.4.1-.7.1s-.1-.2-.1-.3-.6.1-.6.4,0-.4-.2-.4a2,2,0,0,1-.9.5c0,.2.1.2.2.1h0c-.1.2-.2-.1-.3.1h0c-.2,0-.5,0-.4-.2s-.1.4-.4.2.4.3.4,0,0,.2.1.4-.3,0-.6,0-.1-.2.1-.3-.1.2-.3.2l.3.3c-.2.1-.4-.2-.3-.3s-.1.1-.2.1.1-.5-.2-.8a.6.6,0,0,1-.1.4c-.2-.4-.7-.3-1.3-.3s.3.2.3.3-.5-.4-1-.3-.2.2-.2.3.1-.3.2-.5-.4.2-.2-.1-.7.5-1,.7.4.1.5.3,0-.3-.1-.4.2.1.4-.1a.2.2,0,0,0,.2.2l-.5.4a.4.4,0,0,1,.4.2c-.1.1-.5,0-.3.3s.1.1.3.3.6-.1.4.2.4,0,.6.3.3.1.3-.1-.1.2.1.3-.2-.1-.3,0,.5.6,1,.9h-.2c0,.3.2.4.3.7s.1-.3.2-.1,0,.1-.2.2.3.3.6.3-.1.1-.1.2.2.2.3.1.1.5.2.8-.1-.3.1-.3-.1.4.2.3.1.2-.2.4.2,0,.2.2.2-.2.1-.3.2-.1.3.1-.2.1,0,.3.4.1.6.3-.2-.4,0-.5.4.2.7.3.1-.2.3-.3.1-.3.3-.5-.1-.1-.2-.1.3-.3.1-.5.3-.4.4-.7.1.2.3.3,0-.3-.2-.3.3-.1.4,0,.1-.3.2-.1,0-.1,0-.2.3,0,.5-.2-.2.3-.2.5.2-.4.4-.5.1.1.2.2,0-.2.1-.3.1.1.2.2.7-.2.7-.6.4,0,.4.3a.7.7,0,0,1,.4-.3c-.2-.3-.3.3-.5,0s.6-.1,1-.4-.2.2-.2.3.7.1.6-.2.1.5-.1.6.2-.1.3-.2.1.1.2.2V406c.1-.1.2.2.4.1s.2.2,0,.4.1-.2.3-.2-.3-.4-.1-.5.1.3.3.3-.1-.1-.1-.3.4-.4.3-.5h.1c.1-.1,0,.2.2.2s.1-.2.2-.1-.2.7,0,.9.3.3.5.1-.2-.1-.2-.2.1-.1.2-.2a.4.4,0,0,0,.2.5c.2-.2.4-.3.5,0h.2c-.1-.3-.4,0-.5-.3s-.1.1-.1.2-.2-.1-.2,0,.1-.1.2-.3-.3-.1-.4-.3.3.3.5.1.1-.2,0-.3.2.4.4.2l-.3-.4c.2,0,.2.1.2-.1h.1c-.1.2,0,.2,0,.4s0-.2.1-.2.2.3.1.3.3-.1.4.1.3-.1.4-.2h.1c0,.1-.3-.1-.2.2s.6-.3.6.1-.1-.2-.3-.2,0,.2-.2.3l.2.2c.1,0,0-.1.1-.1s-.1.1.1.2.1-.1.2,0l.2.2c-.2,0-.3-.1-.4.1s.5,0,.7.3,0-.2.1-.2.2,0,.3.1h-.2c0,.1.1,0,.2.1a.4.4,0,0,0-.1-.3c.2,0,.3.2.4.3s.1-.5-.2-.5a.1.1,0,0,1,.1-.1c.1-.1.1.1.2.1s.1.4.2.4-.1.1,0,.4.6.4.4-.1.1.3.4.3.9-.2,1.2-.4-.2.2,0,.4h.1c.1-.1-.1-.1-.1-.2s0,0,.2-.2,1.2,0,1.1-.5h-.3a.8.8,0,0,1,.4-.4c0,.2.1.2.2.4l.3-.2a.1.1,0,0,0-.1-.1c.5.1.5-.3.7-.6s.1.1.2.2-.1.1-.2.2.2.4.4.3.1.3.1.5l.2-.2c0-.1,0,0,.1,0s.1.2,0,.3.2-.1.3,0-.3-.1-.1-.2a.7.7,0,0,1,.3.7c.3-.1.1-.3.1-.5s.1.1.2,0v.2h.1c.1.3.3-.1.4.1s0-.1-.1-.2.5.1.6.4.1,0,.1,0,.2-.1.3-.2l.3.3a.2.2,0,0,0,0-.3h.2c-.1.2.3.1.3.3h.2c-.1.4.5.2.7.3s0-.2.2-.2.3.3.6.4.4-.4,0-.5a1.2,1.2,0,0,1,.8.4c0-.3.4-.3.3-.5s.5,0,.7.2.2-.1.1-.2.2.2.4.2-.1-.2-.1-.4h.4c0-.1.1-.2.1-.1s.2,0,.4-.1,0,.1.1.2.4-.2.5-.4.2.1.4,0-.3.1-.3-.2.3-.2.1-.3.1-.1.1-.2.1.2.3,0-.1-.1,0-.1S466.6,406.5,466.6,406.3ZM436.2,404c-.3.1.2.3-.2.5s-.1-.1-.1-.2.1-.2,0-.1S436.1,403.8,436.2,404Zm4,2.1c0-.1,0-.1-.1,0s-.1-.3-.2-.3-.1.3-.1.4-.2-.2-.4,0a.1.1,0,0,1,.1.1c-.5.1-.3-.3-.7-.2s.2-.3.1-.4-.2,0-.3-.2.1-.1-.1-.3l.5-.2c0-.3-.4-.1-.2-.3h.3c-.1,0,.1-.1.1-.1s-.1-.3-.3-.3.2.1.3-.1a.7.7,0,0,0,.2.6c-.1,0-.3-.1-.3.1s.5-.1.6.1h-.1c.1.1.1,0,.2-.1s0,.4.1.2,0,.2,0,.3S440.4,406,440.2,406.1Zm.1-.3c-.3.1,0-.2-.2-.5S440.3,405.8,440.3,405.8Zm7.3-.8h-.3a.1.1,0,0,1-.1-.1C447.3,405.1,447.7,404.8,447.6,405Zm3.1.4h-.2a.4.4,0,0,1-.1-.3Zm1.9.7c-.2.2-.5,0-.3-.1S452.5,405.9,452.6,406.1Zm2.1.8h0c-.1.1-.1.3-.2.1l.3-.2C454.9,406.8,454.9,407.1,454.7,406.9Zm1.5-1H456c0-.3-.2,0-.3-.2S456,405.9,456.2,405.9Zm.3.2c-.5.3-.5,0-.2-.1S456.4,406.1,456.5,406.1Zm6.6-4.6c-.2.1-.3,0-.4,0S463,401.4,463.1,401.5Zm.2,1.8c-.2.2-.2,0-.3,0s-.1-.2.1-.3,0,.2,0,.3Zm.1.5c-.1-.2.1-.3.1-.4S463.5,403.7,463.4,403.8Zm.9-.4c.1.1.1.1.1,0s.2.2.1.3S464.1,403.6,464.3,403.4Zm.3-.2c-.2.1-.3-.1-.3.2l-.3-.2c.3-.1.2.1.4-.1Z"/><path class="cls-2" d="M462.7,408.3h-.1C462.6,408.2,462.7,408.2,462.7,408.3Z"/><path class="cls-2" d="M462.5,408.3h0Z"/><path class="cls-2" d="M434,403.4h-.4c-.1-.1.2-.2.3-.1s-.4,0-.4-.2.1.3.3.5-.3-.1-.5-.1.1-.3-.1-.4.1.5,0,.7l-.2-.2c-.1.4-.3-.1-.4.2s.1-.5-.3-.2.2-.3-.1-.4.2.1.3.1-.4-.6-.3-.8-.1.2-.2.2-.1-.5,0-.7-.5-.4-.7-.4-.2,0-.3,0,.1.1.2.2a.5.5,0,0,1-.5-.3c-.1.1,0,.2,0,.3s0-.3,0-.4-.2-.2-.4-.1l.2.2c-.3.1-.6,0-.4.2s-.2,0-.4.2-.1-.2-.3-.2h.2a.2.2,0,0,0-.3,0c0-.2-.2-.1-.3-.3h.1a1,1,0,0,0-.4.2h.4a.4.4,0,0,1-.5-.2c-.2,0-.2.1-.1.2s-.5-.3-.4,0l-.3-.2c-.1.2-.1,0-.3.1a2,2,0,0,1-.1.5.5.5,0,0,1-.4-.3h.2c0-.2-.3-.1-.3.1h0c0-.1,0-.1-.1,0h-.1c.2.2-.2.1-.2.3h.1c-.1.2-.6.1-.9-.1h-.2c-.1.1,0,.1.1.2s-.1-.1-.2,0-.2-.4-.4-.7,0,0-.2-.1l-.2.2c0-.3-.2-.2-.4-.4s.3.2.5.1-.2,0-.2-.2-.3-.1-.5,0,.1,0,.1.1h0c-.4-.3-.1,0-.4,0s0-.3-.2-.2a.3.3,0,0,0,.1.2c0,.1-.1.2,0,.2s-.3-.1-.4-.3,0,.1-.1.3l-1.9-.2c0-.1.1-.1.1,0s0-.1-.1-.1.1,0,.2-.1h-.3c0,.1.1,0,.1.2s-.3,0-.4-.1-.1.3,0,.1,0,.1,0,.2h-.2c-.1-.1-.1-.1,0-.2h-.4c-.1-.1.1-.2-.1-.3s0,.4.2.3-.3,0-.1.3-.2-.3-.3-.3.1.2.1.3-.2-.2-.4,0v-.3h-.5a.2.2,0,0,0,.1.3c-.1.1-.2.1-.1.3s-.1,0-.1.1a.1.1,0,0,1-.1-.1h0c-.2,0-.2-.3-.4-.2s-.2.5-.5.3-.2.4-.1.6-.2-.1-.2.3-.2-.2-.5-.1,0-.1.1-.2-.4.6-.1.4-.2,0-.2.2-.1-.2-.1-.4-.4-.1-.7,0,.4-.2.2-.4-.3.1-.5.1.1-.2.2-.1-.2-.1-.2-.3,0,.2.1.2h-.3c0-.1.3-.1.1-.3s-.3.1-.4,0,.2.1.3,0-.2-.4,0-.4-.6-.6-1-.8.2,0,.1-.2-.2,0-.3.3h-.4c0,.1.1.1-.1.2s0-.3,0-.4h0c-.2.1-.2-.1-.4,0v-.4h-.2c.1.2.2.2,0,.2s.1.2.1.2-.3.3-.5,0,.4,0,.3-.2-.8,0-1.1.4-.2-.3-.2-.6-.3,0-.1.3-.2-.3-.4-.1-.5-.2-.2-.4-.2,0-.3,0,.1.2,0,.2-.4-.2-.4-.4-.2.1,0,.1h-.5c.2-.2.2.2.3,0s0-.2-.2-.2h.3c-.1,0-.1-.1,0-.2s-.3-.1-.6,0-.1.2.1.4-.8,0-.7-.5,0,.4-.3.5,0-.5.3-.6-.1.1-.2,0,0,.3-.3.3.3-.1,0-.3l-.5.3c.1-.2,0-.4-.2-.2a.3.3,0,0,1,.1-.2c-.2-.1-.2.2-.6,0s.2,0,.2.2-.5-.4-.5-.6-.2.1-.2.1,0-.1,0-.2H407c-.1.3.3.2.3.5s-.3-.2-.2-.2,0,.3-.3.3,0-.2.1-.2-.6.2-.9-.1-.5-.1-.5.1l-.3-.4c-.1.3-.5.2-.2.4s-.3-.1-.2-.2-.4.2-.5-.1-.1.2-.2.3-.3-.2-.2-.3h-.2c.1.1.2.1,0,.2s0-.2-.2-.2-.5-.1-.5.2,0-.2-.2-.3,0,.2-.2.2,0-.1-.1-.3h-.1c0,.2.1.2.2.3s-.1.1,0,.1-.4-.3-.7-.7.1.4-.2.3a.2.2,0,0,1,0-.3c-.1-.2-.3-.1-.1.1s-.3,0-.3.2h-.2c.1-.2,0-.2-.1-.4s-.2.4-.4.2-.5,0-.4.3-.1-.2-.2-.3,0,.2-.1.2.1-.2-.1-.4-.3.2-.4.1-.1.1,0,.2l-.3-.2c-.1.2-.5.2-.8.3s.1-.1.2-.1-.4-.3-.7-.3.3,0,.4.3h-.5a.2.2,0,0,0-.2-.2c.1-.2-.1.1.1.2s-.3-.1-.4,0,.1.1-.2.1h.2c-.2,0-.5.1-.5-.2s-.5.1-.7.2-.2.1-.1.4-.2-.3-.1-.4-.1.1-.2-.1-.1.3-.2.4h-.2c.1-.1-.4,0-.5-.1s.1-.2,0-.4-.2.3-.4.5-.3-.3-.2-.6-.1,0-.3,0-.3-.8-.6-.9.4-.4.3-.8.3-.1.2-.3h.4c0-.1-.1-.1-.2,0s.1-.1,0-.3h.4c0-.1-.1-.1-.2-.2s.3.1.5-.1,0-.2-.2-.3h.4c.1-.1,0-.2-.1-.3s.3,0,.2-.2.1.2.3,0,.2-1-.3-1.2.2,0,.2.1-.2-.2.1-.3-.1,0-.2,0,0-.3.2-.3,0-.5-.2-.8,0-.3.3-.4.1-.1,0-.3.1.1.1,0,.1-.3,0-.5,0,.1.1.1.2-.4.5-.7l-.3-.7c.2.1.1,0,.4,0H396c-.2,0-.2-.4-.4-.4s-.1.2-.1.3a1.1,1.1,0,0,0-1-.1c-.1-.1.1-.2.2-.2s-.1-.1-.2,0-.2-.3.1-.4-.2,0-.3,0,.1-.3.2-.4.1-.5-.3-.6.2-.1.2,0,0-.2.2-.2-.2-.1-.3-.3h0c-.1-.2.2-.5-.1-.7s0,.2-.2.3-.1-.3-.1-.5.2,0,.3-.1-.4.1-.5,0a.1.1,0,0,0,0-.2h-.3c0-.1.1-.2.4-.2s-.3-.4-.5-.2,0-.4-.2-.2.1-.3-.1-.4,0,.2,0,.4-.1-.3-.2-.2-.1.1-.1.2-.2.3-.6.4.1.5-.1.3,0,.1.1.2-.6.3-.9.1v.2c-.1.1-.1-.2-.3,0s.1.1,0,.1.1.1.1.2h-.3c-.2.1-.2.3-.4.3a1.1,1.1,0,0,0,.2-.7c-.1,0-.2.2-.3,0s0-.6.3-.8,0-.7,0-1,0-.4-.3-.5.1-.1,0-.3.1.2.3.1-.7-.2-.4-.5a.1.1,0,0,0-.2,0c0-.1,0-.2.2-.2s-.1-.5-.3-.7h.1c.2-.1,0,.2.1.2s.1,0,.1-.1a.1.1,0,0,1,.1.1.5.5,0,0,1,.2-.7c-.1-.2,0-.2-.1-.4s.2-.1,0-.2.2,0,.2.1.3-.2.3-.7.2.1.3,0,.2-.2.3-.4a1.1,1.1,0,0,1,.1-.5c.4-.1.9.4,1.2.2s-.1.1-.1.2.2.1.1.2.1-.1.2-.2v.2c.1,0,.3-.1.3.1s0-.2,0-.2l.6.4a.2.2,0,0,1-.2.2c.1.1.4-.1.5-.1s-.2-.1-.2.1l.7.2c-.4.2.2,0,.1.2h.1c.1.2.5,0,.5.3s.1-.2.2-.2a.1.1,0,1,1-.1.2c0,.2.2,0,.3.1s-.1-.1,0-.2.2.2.4.3h0s.1,0,0,.1a2.1,2.1,0,0,0-.3,1.3h0c.2.1.4.2.4,0s0,.2-.1.2.2.2.3.1-.1.1-.2.2.4-.2.4.2.1-.3.2-.4.2.1.4,0-.1-.2-.2-.3.3-.3.6-.4h.1c-.1.3.3.4.1.6a.2.2,0,0,0,.2-.2.1.1,0,0,0,.1.1H398c0,.2.2,0,.3.1a.1.1,0,0,1-.1.1c.2-.2.6.3.7.2a.6.6,0,0,1,.3.5c.2-.3.2,0,.4,0v.2l.2-.4h-.4l.2-.2c.4,0,.4.3.7.3s-.3-.1-.1-.3h-.3c0-.3.1,0,.2-.1s0-.3-.2-.4.2-.3.1-.4.3,0,.2.1,0-.1.1-.2-.3-.1-.6-.4.3-.1.3-.3h-.4c0-.2.1-.2.1-.4s-.4-.4-.4-.6a1,1,0,0,1-.6-.5c-.3,0-.3-.2-.5-.2h0a.2.2,0,0,1,.3,0c0-.1-.2-.2-.3-.3v-.4c-.2-.1,0-.2-.2-.3s-.3.2-.2.3a.1.1,0,0,1-.1.1h-.2c-.1-.2-.1-.2,0-.4h-.3c.1-.1.2-.2.3-.1s0-.1-.1-.1.1-.1,0-.2l-.3.2c0-.2,0-.2-.2-.4s.1,0,.1-.1-.4-.2-.4-.4a.1.1,0,0,0,.1.1.1.1,0,0,1,.1-.1c.1-.2-.4-.4-.3-.1s-.4-.7-.7-.7h.1l-.2-.2c.1,0,.3-.1.3.1h.3a.5.5,0,0,1,.2-.4c.1,0,.1.1.1.2s.4-.6.8-.6a.1.1,0,0,1-.1-.1.4.4,0,0,1,.5.2c.1,0,.3-.4.6-.2s0-.1-.1-.2.5.3.8-.1-.1.4-.3.5.5-.1.1.2.1.1.2.2h.3c0,.1-.2.2-.3.3s0,.1-.2.2a.2.2,0,0,0,.3,0c0,.2-.3.1-.3.2s.2.2.3.1-.3.2-.3.3h.2c.1.1-.2.1-.2.2s.1.1.1.3.3-.2.2-.4h.3v.2c.1.1.2-.2.2-.3h.4c-.1-.1-.1,0-.1,0s0-.2-.1-.1v-.4c.1-.1.2.2.1.2s.1-.1.3-.1l-.5-.4c.2-.1.2.2.4.1v-.3c-.3-.2-.1-.7.2-1s-.2-.5.2-.6.1.2.2.2-.1-.3-.1-.4-.1-.3.2-.4h.1a.1.1,0,0,1-.1.1c0,.1.1,0,.2-.1h-.2c.3-.3-.1-.3-.1-.6s.4-.1.4-.2-.1,0-.3.1-.2-.4-.4-.7-.6-.3-1-.2-.1.2-.2.3-.2-.1-.2,0-.1-.2-.2-.1-.2.2-.3.4-.1-.2-.2-.2l-.2.3h-.3a1,1,0,0,0-.2-.7c-.2.2.2.3.1.5s-.2-.1-.3-.2-.1.2-.2.1l-.2.3c-.1-.2-.1-.1-.2.1s.1-.2-.1-.4-.2,0-.3-.1-.1.5-.4.5v.2c-.2-.2-.3,0-.6,0s.1.4-.1.5-.1-.2-.2,0-.4,0-.5-.2-.2.2-.4.1.1.1.1.2-.4-.2-.2.1-.4.1-.4,0-.2.2-.2.3l-.3.2c-.3-.1-.6-.2-.5,0s-.3-.2-.3-.3-.1.1-.1.2-.7-.5-1-.2,0-.1,0-.2l-.2.2c-.2-.1,0-.2-.3-.2s-.1.2-.2.3-.4-.4-.4-.1-.1-.2-.1-.4,0,.4-.1.3.1.1.1.2h0c-.1-.2-.1-.1-.3-.1s0,.2.1.3-.4-.1-.4.1,0-.2,0-.3-.6.1-.5-.1h-.2c0,.2,0,.1-.1.3h-.3c.1.2-.2.2-.2.3s-.4-.1-.4-.2-.2.1-.3.2-.3-.2-.3.1-.2-.1-.4-.2h.1c-.3.2-.2-.2-.4-.1h-.2c0-.1-.1-.2-.3-.1s-.1-.4-.3-.3,0-.1,0-.2-.4-.8-.9-1.2-.1-.1-.1-.2,0-.1.1-.1-.4-.8-1.1-1.1.2.1.2-.1-.1,0-.1-.1-.3-.2-.4,0,0-.2.1-.4-.5,0-.5-.3l-.2.2c0-.4-.9-.3-.9-.8s-.3-.2-.4,0,0-.1.1-.3-.3,0-.4,0,0-.3,0-.4-.1.2-.3-.1-.2-.1-.3-.4a.4.4,0,0,1,.1-.3c-.3.1-.6-.3-.4-.4s-.2-.1-.3,0v-.2c-.5-.1-.5-.4-.7-.6s.1-.2.2-.2-.1-.2-.2-.5a1,1,0,0,0-.1.3.5.5,0,0,1,.2-.6h-.1c0-.1,0-.1.1-.1s-.2.1-.2.2.1-.1,0-.2.2-.1.2-.2.3-.4.4-.6.1.2.1.3,0-.2.1-.2-.1.3.2.3-.1-.2,0-.3-.1.4.2.4.1-.2.2-.4.5.2.5.5.2-.1.2,0,.2-.3,0-.4h.1a.1.1,0,0,1,.1.1.5.5,0,0,0,.3-.5c.3-.1,0-.5.7-.5s-.2-.1,0-.2,0,.2,0,.3.1.2.3.1-.2-.1-.2-.2.3.2.4-.1-.2,0-.3,0a.2.2,0,0,1,.1-.4c.2.4,0-.4.3-.3s.1-.7-.3-.8a.4.4,0,0,0,.1-.3c-.3-.1-.4-.7-.6-1a1.3,1.3,0,0,0,.1-.6c-.2-.1-.2.1-.3-.1s.1-.1.2-.1-.3-.3-.5-.4h.1c.1,0,0,.2.2.2a1.5,1.5,0,0,0-.1-.7h-.4c.3-.2-.1-.3-.3-.5s0-.2.1-.4-.1.2-.3.1a.3.3,0,0,1,.1-.2c-.1-.1-.2,0-.2.1s-.4-.8-.6-.9-.2-.4-.1-.5-.2.1-.1.2-.1-.2-.3-.2h.2c-.2-.1-.2.1-.2-.2s-.6-.9-.5-1.3h-.2v-.2c.1-.2.3.2.3-.1s-.3-.1-.3,0-.4-.4-.3-.9-.4,0-.2-.2a.4.4,0,0,0-.5-.3c-.1,0,.3-.2,0-.2s.3,0,.3-.3a.1.1,0,0,0-.1.1c-.3,0,0-.2-.2-.2s-.1.1-.1.2-.2-.1-.2-.3.3.1.3-.1-.2.1-.4,0,.1-.3.1-.4-.1.1-.2-.1h.2c0-.1-.1-.1-.2-.1a.3.3,0,0,0,0-.5l.3-.2c-.3-.3.3-.3-.3-.5s.2,0,.3,0a.2.2,0,0,0-.2-.2c.2-.1.2-.3.3-.4s.2-.7-.1-1,.2-.2.3-.1.3-.5,0-.7.2-.2.3-.2,0-.2-.2,0,.1-.2,0-.3.3-.4.5-.6-.2.2-.3.2h-.1c.1-.1.4-.1.2-.2s.2-.3.4-.2.1-.2.1-.5h-.2c.1-.2.3,0,.3-.3h-.3c.1-.2.6-.1.5.1s0-.2,0-.3h-.2c.1-.5-.2-1.1-.1-1.7s-.5-.1-.4-.5-.1.1-.1.2-.5-.4-.5-.8-.2,0-.2.1.1-.2,0-.3-.3.1-.5,0,.1,0,.1-.2-.2.1-.2-.1-.5-.3-.7.1.2-.1.1.1-.1-.1-.1-.2h-.4c.4.3-.3,0-.2.5s-.4-.1-.5-.3-.5.2-.8.4-.1-.2-.3-.1a.1.1,0,0,1,.1-.1c.1-.2-.5,0-.2,0s-.3-.1-.4-.2-.5-.4-.9-.5.1-.2.1-.3,0-.2-.3-.2-.3-.1,0-.4-.1,0-.2,0,.1-.6-.2-.7.3.2.3-.1-.1-.3-.4-.3l.3-.4c-.1,0-.1-.1,0,0s-.3,0-.4-.1a1.6,1.6,0,0,0,.5-.9c0-.1-.4-.5-.1-.2s-.1-.4-.2-.2-.3-.1-.2-.5-.4-.2-.5-.6-.4.2-.3,0-.6-.2-.9.1a4.9,4.9,0,0,0-2.1-3.2.5.5,0,0,1,.2-.4c0-.1-.3-.1-.1-.3s-.2-.6.1-.4l-.5-.2h.2s.1.2.2,0-.2,0-.4,0a3.1,3.1,0,0,0,.2-.7c-.4.1-.2-.3-.2-.5s-.2-.6-.6-.5.1-.1.1-.3-.7-.6-1.2-.9,0,0,.1-.3-.1.1-.1.2-.6-.6-.8-.5-.2-.4-.3-.6a.1.1,0,0,0-.1.1c-.1-.2-.1-.7-.3-.6s-.1-.3,0-.2-.6-.3-.6-.6-.5,0-.4-.3-.9.6-1.3.4.2.3.2.3-.3,0-.2-.1-.5-.2-.8,0a.3.3,0,0,0-.3-.3h.1c.1-.2-.4-.2-.4-.1s0-.3-.1-.4-.3-.1-.2-.3-.3.1-.3.6.3.1.1.2.4.2.4.4-.1,0-.2,0,0,.3.2.3-.2.3-.5.5-.1-.2-.4-.3-.3.1-.3.5-.1-.3-.3-.3-.3,0-.4.2-.8-.1-1-.3-.5-.1-.7,0,0-.1,0-.2-.6-.4-.8-.1-.1-.2-.1-.3-.1.1-.1,0-.8,0-.6-.3a1.5,1.5,0,0,1-.9-.4v.2c0-.3-.3-.1-.2-.4a2.1,2.1,0,0,1-1.3-.3c-.1.1,0,.1,0,.2s-.3-.1-.2-.2,0,.4-.3.2-.1-.1,0-.2-.2,0-.2.2-.1-.2-.3-.3-.3,0-.3.2-.1-.2-.2-.1-.1-.1-.1-.2-.4-.1-.6.1h-.2c0,.1.1.1,0,.3s0-.3-.2-.3h0c0,.3-.4.1-.4.4s-.1-.3,0-.2-.6-.3-.6,0H350v-.2h-.3c.1.2.2.2.3.2s-.3,0-.4-.1l-.2.4c-.2,0-.1-.2-.1-.2s-.1.1-.2.2,0-.2-.1-.2-.4.3-.6.4-.4-2.4-.5-3.5a7.9,7.9,0,0,1,5.3-4.3c3.9-2.8,13.6-1.5,12.8-7.7-5.2-3.2-10.7,1.8-15.8,3.6l-1,.3c-6.4-.8-12-6.1-14.7-11.9-.1-2-.1-4-.1-6l.8-1.3c1.7-2.7-.1-6.2.5-9,.9-1.2,2.4-3.2,0-3.5a2.5,2.5,0,0,0-2.9.8V287a2.1,2.1,0,0,0-2.3,2.2l-.4.8c-2.3,2.9-5.1,7.4-7.4,2.4l-1-1.4a5.2,5.2,0,0,0-.1-4.4c.9-1,1.8-1.9,2.6-2.9,4.3-3,4.2-8.7,6.7-12.9,1-1.9-1.1-1.4-2-.6-2.9,4.6-7.8,7.5-11.5,11.4h-.6a38.2,38.2,0,0,0-7.5.8c-6.1,1.5-8.7-4.8-13.6-6.4-1.1-1.6-2.1-3.3-3.1-4.9-1.6-3.9,1.4-9-1.3-12.3-6.9-.4-3,9.2-2.4,13.2,0,2.2-.9,8.3-4.5,6.3s-6.9-1.5-8.5-4.7c-3.7-.3-9.6,2.9-11.8-1.6,1.5-4.2,5.5,1.5,8.2,0-2.1-1.7-2.6-4.2-2.4-6.8,1.9-.6,3.9-.2,5.8-.2-.1-1.3-1.3-2-2.2-2.8-1.9-3,1.9-6,5-4.8-1.2-1.4-3.4-1.8-4.4-3.5s1.6-5.7,1.9-8.6c-1.9-2.7-5.4-4.4-4.8-8.4-3.7.3-5.9-2.4-8.1-4.8-4.4-.5-8.5-2-12.8-2.3s-2.9,5-4.6,7.3l-6.9,1.2c2.4,5.8-7.1,7.6-2.8,13.9-2.3,2.3-2.7,5.1,1,6.5s-1.2,5.3-3.2,4.9c-5.6-4.4-3.3-19.3-13.3-15.4a12.4,12.4,0,0,0,2.5,7.3c4.8,7.3,8.5,15.3,13.6,22.4,0,2,.1,4,.1,5.9-1.6,3.4-3.5,8.8-8.1,7.1s-1.9,5.1-4.8,6.6c-2.2,5.7-9.6,6.8-15,7.5-1.5-1.6-3.5-1.1-5.5-.6s-4.3.4-6.3-.6a17.6,17.6,0,0,0-3-2.4l-.2-.2c1.4-2.1,3.9-4.8,1.7-7.2-2.6-.8-.4,5-4,3.1.7-2.4,1.8-4.8,2.5-7.3-1-.2-1.3.6-1.5,1.4-.5,2.5-3.4,6.4-.2,7.9-.1.4-.3.7-.4,1.1l-2.6-1.6a9,9,0,0,0-2.3-.2c.6-1.5,1.4-3.3.4-4.6-3.4-1-3.4,3.6-3.2,5.7a1.8,1.8,0,0,0-.4,2c-1.2,1-2.8.3-4.1,1.1h-2.8c-1.3-2.2-2.6-5.8-1.2-8.2,2.2,1.4,4.5,2.7,7.3,2.6.1-1.8-1.8-2.2-3-2.9l-2.3-.9c.6-.3.9-1-.1-1.3s-.8-3-.8-4.4,2.4-.2,1.8-1.5c-2.5-1.2-2.9-4.8-3.4-7.3l-1.1.3c-2.5,1.3-.2-2.9-2.1-3.1s-1.1,3.1-2.9,1.6c-1.9.3-2.8-3.6-4.6-1.9.5,2.7-2.1,3.8-4.2,4.3s-2.1-3-4-2.5-.3,3.1-1.3,4.4-.1,4.2-.4,6.2c-1.2.4-2.1,2.4-.4,2.6,3.3,1,2.7,5.3,2.2,7.9s-1.8,6.2-5,6.1-4.5,2.4-7.2,1.6a7.9,7.9,0,0,1-5.7-4.5c-4.3-1.1-4,4.1-1.7,6.1s-3.8,3.1-2.3,1-1.9.5-2.8.4c-3.3-.8-3.3-5.9-6.8-6.5-.2-2-3.2-1.9-3.6-.1a3.3,3.3,0,0,0,1.2,2.8,53.9,53.9,0,0,1,7.2,6.1,11.6,11.6,0,0,0-2,2.4,23,23,0,0,1-3.3,2.1c-1.4-.6-2.9-2.7-1.2-3.8-.3-2.1-2.7-1.2-3.9-2.1s.4-2.9-.5-3.9-4.7,1.4-5.4-1.3a1.7,1.7,0,0,0,.1-2.1,4.9,4.9,0,0,0,.1-1.2c-2.1.7-5,.8-5.3,3.5-5.2,1.2-2.5-5.8-4.2-7.9-1.7,1.2-1.5,4.1-3.7,4.7s2.5,6.1-.4,6c-2.1-1.8-4.8-3.4-5.6-6.3s-3-3.5-3.7-1.1,2.9,3.3,1.3,5.4-4,.2-5.4-1.2a22.6,22.6,0,0,0-2.4-4.3c-1.2-.4-1.4,1.3-.7,2s3,3.3,2.7,5.8a2.4,2.4,0,0,1-.8,3.1,3,3,0,0,0-2.1,2.1c-1.1.3-3.8-.9-4,.4s4,2.1,2.4,4.5l-3.8,1.3H75.2c-2.1-.2-4.2-.9-6.2-.3s-.9.8-.4,1.3,3.7.4,5.4.9,6.9-.2,6.4,4.1-3.1,1.9-5.1,2.3l-1.6.4c-2.7.4-5.5-.5-8.1-.1-1.3,2.7,3.9,1.1,5.7,1.9,1.3,2.3,3.8,2.2,6.2,1.9a35.1,35.1,0,0,1,5.5,4.7,11.7,11.7,0,0,1-2.2,9.7l-2.9-2c-.7-.6-1-.4-1,.5a38.1,38.1,0,0,1,3.2,2.4,16.3,16.3,0,0,1-4.9,3.7c-.4,2.9,4.2,1.3,4.3-.9s3.1-.1,2.2,1.8.1,2,1.3,1.4,3.3-.9,5-.3h.2a.7.7,0,0,0,1.1-.1c2.9.5,1.7,5,.2,7s1.1,3.5,1.4,1c1.8-4.4,7.1-7.8,11.6-5.3a3.1,3.1,0,0,0,1.5,1.7,8.9,8.9,0,0,0,.8,1.7c.4,1.3.7,3-.5,3.9s-4.8-.6-6,1.7c2.2,2,5.7-.9,8.5-1.2v4.5c2.7.5-.3-3.5.7-4.6s5.9.5,8.2-1.3l.3-.2-.3,2.5c-.1,4.3-4.8,4.8-6.7,7.7-1.2.5-2.5.8-3.8,1.2s-5.6-2.6-8.2-1.5c-1.6,4.5,5.4,3.7,8.2,4.1s5.2,2.1,3.3,4.1c-.1.1-.2.1-.2.2.4-1.4-2.5-1.3-2.4-.4-1.5.8-2.9,2.3-4.8,1.6.3-5.6-2.6,1.8-.5,2.5a7.8,7.8,0,0,0,1.6,2.8c0-1.1-.6-2.2-.1-3.3a11.2,11.2,0,0,0,3.3-1.6,2.2,2.2,0,0,0,1.3.6c-.8,1-1.5,2-2.9,2.3a33.3,33.3,0,0,0-.5,3.7,9.9,9.9,0,0,0-1.1-1.7,5.2,5.2,0,0,1-5,.4h0l1.4-1.2H97.3a22.9,22.9,0,0,1,.9-2.8c-.9-.2-1.6.5-2.3.9-2.3.7-3.6-2.3-2.2-4.1-1.2.5-1.8,1.9-3.1,2.3s-3.4-2.2-5.3-2.9-2.5,1.5-3.8,1.8-.2-.3-.4-.4a54.6,54.6,0,0,0-5.7.4c-1.6,1.4-4.5.3-5.3,2.8s-3.1,6.7-1.5,10.4c-.2,2.4,2.6,1.4,3.5,2.9a5.3,5.3,0,0,0,2.2,1.8c-.1,1.2-.3,2.6-.4,3.4,4.3-.5,3.7,6.1,8.6,4.4,1.1,1.9,2.9,2.7,4.5.5s3.2,1.8,2.6,3c-3.9,2.9-13.2-1.3-12.5,5.9a8,8,0,0,0,5.3-.3c2.4-.8,4.9-1.4,7.4-2l.2.3c1.8,2.3,6.7,6,3.8,9.1s-3.3-1.8-5.4-.6c-.1,1.9,1.7,3.1,2,4.8a12.5,12.5,0,0,0-2.4,2.7,9.5,9.5,0,0,1-2.9-.1,3.7,3.7,0,0,0-4.9-2l-.4.6c-.3.3-.8,2-1,1.2-.8-2.9-5.3.5-6.9-1.9s2-4.3,3.3-6.3c-1.3-1.1-2.7.3-4.1.4,0-3.5,5.5-2,6.2-5.2-2.2-.4-4.2,1.3-6.3.9s-4.2-2.1-6.7-1.9v-.4a2.3,2.3,0,0,0,.1-1.8c.7-2,3.4-2.9,3.8-5.1-3-1.3-3,3.1-5.4,3.5s-1.1-1.4-1.6-2.1,1.5-2.6,2.2-4c-1.6-3-4.2,1.2-4.9,2.7s-3.6,2.7-4.6,4.5a9.1,9.1,0,0,1-1.6-1.1c.3-.1.5-.3.5-.8a11.5,11.5,0,0,0-2.6-.3,7.3,7.3,0,0,0-2.5-.8,5.8,5.8,0,0,0-2.2-.8,2.6,2.6,0,0,0,.5,1.7,20.1,20.1,0,0,1-4.9-.2,1.1,1.1,0,0,0-1.4,1.1,26.6,26.6,0,0,0,6.9.2,2,2,0,0,1,0,1.1c-.2,1.3-1.6,2.1-1.5,3.5a26.2,26.2,0,0,1-.1,2.8l-.4.8c0,1.5-2.3,2-1.7,3.2s.4.4.5.5c.6,1.8-2.2,2.2-1.4,4-1.3.2-.9,1.4-.7,2.4s-1.7.5-2.3,1.2l.2.3h.3c4.3,1.9,3.1,8.4,7.5,10.3.3,1.2.4,2.4.7,3.7,3.5-1.6,4.1,2.8,7.5,2.7.5.7,1.3.8,2.4.1l1.1-.2a10.2,10.2,0,0,0,4.9,0c3.5-.8,1.5,4.1-.7,4.7.1,1.4,2.2,1.5,2.7,2.7s-.9,4-.4,6.1c2.3,2.6,5.8,4.6,9.2,3,2.7,2.9,4.2,6.5,6.3,9.9-2.8,2-6.6,1.5-9.6,2.9-.6.7-.8,1.9.1,2.4s4.6-.2,6.6-1.2h4.9l.6.4a2.5,2.5,0,0,0-.1,2.5l-2.7,2a7.7,7.7,0,0,0-1.6,1.5,7.5,7.5,0,0,1-.4,1.6,6.3,6.3,0,0,0-2.5,2.3,6,6,0,0,1,2.1-.9,4.9,4.9,0,0,0,.3,4.4c-1.1,3.2,2.8,1.3,2.8,3.8s1.9,1.2,3.1,1a1.5,1.5,0,0,0,1.3.6,25.3,25.3,0,0,0,1.2,3.6c-2.8,0-5.7.5-8.5-.1-.7-.2-1.3.5-1.3,1.2,3.3.7,6.8-.1,10.2.1,2.2,6.3,4.9,12.4,7.5,18.5.2,3.3,1.4,6.4,2.5,9.6a63.7,63.7,0,0,0-5.9,5.7c-4.8-1.2-9.6-2.4-14.4-1.2a40.6,40.6,0,0,1-13.7-3.4,5.6,5.6,0,0,1,.3-4.2c-1.1.7-.9,2.3-1.9,3.1a.6.6,0,0,1,.1.4l-7.7-3.4c-5.6.5-1.1,6.2-1,9.7,6,1.9,11.7,4.2,16.8,8,1.7,1.7,5.3,3.1,4.1,6.1-1.6,8,.2,18.7-8.6,22.8,9.6,3.7,13.4,13.8,11.1,23-3.7,7.5-12.4,7-19.1,4.5-1.6-6-8.2.9-12.3.3s2.2,11.4-4.7,8.4c-2.5-1.1-4.7-4.3-7.7-3.3,1.1,3.1,2.3,6.1,3.5,9.2-.9,1.6-1.8,3.1-2.6,4.8s-1.4,3-.4,4.4c5.5,2.1,8.4,7.8,12.2,11.8,4.8-1.5,9.4-1.3,13.8,1.3,2-2.1,2.1-7,6.4-6.1,9.3-.3-9.8-10.2,2.2-10.4,2.7-3,6.4-.5,9.5-1.5,1.7-5-7.7-1.5-8.2-6.4-6.2-7.8,6.4-9.9,10.8-12.4,1.9.6,3.4,2.4,5.6,2.2h1a57,57,0,0,0,5.6,6.4,13.7,13.7,0,0,1,.1,4.5c-1.9,5.4,5.6,8.7,4.1,14s-5.6,7.6-4.7,12.3c2.8,1.1,3.8-2.1,5.3-3.8.9.3,3,.1,2.1,1.7-.6,5.2-3.8,10.2-2.1,15.4,4.1-4.9,5.1-13,5.9-19.7,1.4-2.1,4.3-1.1,5.9.4,1.8,5.2-6.6,11.4-.2,14.8,6.3-3.7.6-14,8.5-16.7,4.8-1.9,10.8-5.8,15.2-.6,8.4,3.9.9,16,9.6,19.5,2.7-.7,3.6-3.6,3.9-6s.6-7.8,4-9.1a35.1,35.1,0,0,0,5.6.1c-.8.6-1.8,1.5-.8,2.4s2.2-1.6,2-2.6a9,9,0,0,0,2.1-.8c3-.1,4.4,1.7,5.5,3.7-1.2,1.6-2.9,2.8-4.9,2.5-.4-1.2-2.3-1.2-1.6.2s-1.7,2.6-2.8,3.5-1.7-1.7-2.3-.4-1.7,5.3-3.2,7.4l1,.7c2.6.9-2.1,2-1,3.5s3.1-1.1,3.2,1.1-.9,4.5,1.6,4.8c1.7-2.2,4.2-.9,6,.3s-.9,3.5.7,4.6,2.6-1.8,4.2-2,3.2-2.6,4.9-3.7c1.1.6,3.2,0,2.3-1.5-1.5-3.1,2.1-5.5,4.4-6.9s5.8-2.7,7.8-.3,4.8,1.8,6.1,4.4a8.5,8.5,0,0,1,.4,7.3c2,3.8,5.7.2,5.6-2.9s4.9.8,2.3,1.1,1.6,1.1,2.2,1.8a3.9,3.9,0,0,1,.3,2.1c-1.6,1.1-2.5,4-2.8,6.1a21.9,21.9,0,0,0-3.8,4.2c-3.4,1.7,1.4,8.4-.4,12.4a42.9,42.9,0,0,0,15.6,6,16.1,16.1,0,0,0,4.7-2.9,3.3,3.3,0,0,1,1.7.4c2.3.6,2.8-5.9,4.7-3.7.1,2.8.7,5.9-.9,8.4s-.6,4.5,1.5,3.4.6-4.3,3.3-4.5,2.8,2.9,2.6,4.8a26,26,0,0,0-1.6,4.7c.5,1.1,2,.2,2-.8s.5-4.4,2.5-5.9a2.4,2.4,0,0,1,2.9-1.4,2.9,2.9,0,0,0,3,.1c.9.7,1.8,3.4,2.9,2.8s-1.1-4.4,1.7-4.8l3.6,2,1.6,2c1.3,1.7,2.1,3.7,3.9,4.9s1.2.1,1.2-.7-2.1-3-2.9-4.5-4.7-5.1-1.1-7.6c1.9-2.7,3.4,1.1,5.1,2.3l1.3.9c2.1,1.8,3.3,4.5,5.3,6.2,2.9-.8-1.7-3.7-2.4-5.5.9-2.5-.7-4.4-2.6-6a34.3,34.3,0,0,1-.2-7.2c3.4-5,10.6-6,15.9-3.6,2.5-1.7-1.8-4-3.5-2.7s-2.1-2.2-.1-2.8,1.4-1.4.1-1.9-2.8-1.9-3.5-3.6c-3.4-3,1.5-5.5,4.3-5.7s1.8-3.2-.3-1.7c-4.4,1.5-10.4-.2-11.6-5.2a3.6,3.6,0,0,0,.3-2.3,8.7,8.7,0,0,0,.7-1.7c.8-1.1,1.8-2.4,3.3-2.2s2.7,4,5.2,3.4c.1-3-4.4-3.7-6.5-5.6l3.4-3c-1.4-2.4-2.5,2.6-4,2.5s-3.5-4.8-6.4-5.3-2.7-3.3-3.7-5a32.8,32.8,0,0,0,2-3.1l2.5-1.7a12.9,12.9,0,0,0,1.6,4.1c.3.8,1.5,1.2,2,.5a6.2,6.2,0,0,0,1.2-3.6l.8.2a1.1,1.1,0,0,0,1.4.4c1.8.7,3.9.7,5.3-.9-1.5-1.4-3.7-3.3-5.9-2.5a4.8,4.8,0,0,1-1.8-.4c-.6-2.5-1.6-5-2.1-7.5l1.2-.8c-.4-.5-.8-.3-1.3-.1a11.3,11.3,0,0,1,0-2.6c1.6-3.2,6.2-1.2,8.3-3.9,1.3-.7,1.4-2.4,1.8-3.7a3.6,3.6,0,0,1,3.9-1.3c-1.4.8-5.4,3.2-3.6,4.7.9-1.6,3.6-3,3.8-4.6,1.6.5,3.1,1.7,4.9,1.9s1.2-2.9.4-4.2c1.7-1.8,3.3-4.1,5.3-4.2a22.5,22.5,0,0,1,0,2.6c.7-.3,1.4-.6,2,.1.6,2.8-.9,7.7,2.9,8.4,2.4-1.3,1.8-3.9,1.1-6.3.9-.4,1.7-.6,2.4.3-.1,2.6-2,4.8-3.1,7s1.4,4.8,2.2,1.4.4-4.8,3-5.2c4.9,3.3.6,8.1-.9,11.9-1,.7-.4,3.4.9,2.4,4-2.9,2.1-9.5,6.4-12.3,3.1.7,6.7.3,8.4,3.8a11.5,11.5,0,0,0-.1,3.2,33.4,33.4,0,0,1-.5,4.3c-.5,2.1,2.7,3.7,3.4,1.4s.1-9,4.3-8.9c2.6.1.9,3.7,3.1,4.4,1.5-1.1,1.3-3.3,2.3-4.7a8.7,8.7,0,0,0,3.6,0,10.6,10.6,0,0,1,1.9,2.3,3.8,3.8,0,0,0,1.7,5h.7c.5,0,2.1-.8,1.7-.1-1.7,2.6,3.8,3.7,3.1,6.4s-4.5,1.5-6.9,1.8c0,1.7,2,1.8,3,2.8-2.6,2.3-5.2-2.8-8.1-1.2,1.3,1.8,3.8,2.2,4.9,4.1s1.3,4.6,3.1,6.3l-.3.3a2.2,2.2,0,0,0-1.4,1.2c-1.9.8-4.4-.7-6.4.5,1.1,3.1,4.3.2,6.3,1.7s-.3,1.7-.5,2.5-3,.8-4.5,1.1c-1.2,3.2,3.7,2.3,5.3,1.9s4.4.9,6.4.5c.4,2.1.5,4.6,1.9,6.6a5.4,5.4,0,0,0,.8,2.1c1.3-.8.8-2.8,2.2-3.3s2.7-.3,3.7-1.3l2.1-1.8h.8c1.2-1.1,3.1.4,3.5-.9a2.2,2.2,0,0,0,.1-.8c1-1.6,3.1.3,3.9-1.6,1.1,1,1.7-.2,2.3-1a7,7,0,0,0,2.4.9v-.7c-1.4-4.4,4.2-7.9,2.7-12.4.7-1,1.6-1.9,2.3-2.9-3.5-1.6-.6-5-3-7.4.3-1-.2-1.6-1.5-2l-.8-.6a10.6,10.6,0,0,0-3.3-3.7c-2.9-2,2.2-3.8,4-2.5,1-1.1-.3-2.7.3-3.9s3.5-2,4.8-3.7c.3-3.5-.4-7.4-3.9-8.9.4-3.9,2.1-7.5,3.2-11.2,3.4.7,5.5,3.8,8.6,5.2.9-.1,2-.7,1.7-1.8s-3.2-3.2-5.3-4l-3.2-3.7a1.7,1.7,0,0,1-.1-.7,2.6,2.6,0,0,0,1.9-1.6l3.3.7,2.2.2c2.4-1.6,5-1.5,5.9-4.6,3.1-1.3-1-2.9.9-4.6,3.6-1.8-.3-2.2-1.3-2.9s-2.1-1.8-2.9-3c1.5-2.7-1.9-4-4-4a11.4,11.4,0,0,0-1.2-2.2,2,2,0,0,0-.4-2.3c1.4-3.9,6.4-5,9.7-3.1s5.4-.3,3.7-2.6-3.5-.3-5.1-1c-3.2-.3-6.7,1.4-9.8-.1-.9-1.1.2-2.9.1-4.3l2.8-2.5a4.9,4.9,0,0,1,1.8-.8l.7-.4c1.3-.5,3-.9,2.7-2.3s-1.2-6.5,1.5-7.7l.7.2a18,18,0,0,0,4,.3c1.4,1.1,3.3,3.9,5,1.3-.2-2.2-3.9-2.2-3.1-4.6s2.6.5,4.3.3,2.8-3.2,1.7-5,1-5.2,3.3-3.6,4.2,3.6,6.5,2c-.5-3.2-5.9-1.6-6.6-5.1.1-.8,1.1-1.9.4-2.5s-1.1-3.4-.3-4.8,2.9-1.6,4.2-2.7c-.3-2.1-3.3-1-3.9-2.9s1.1-3.1,1.9-4.5c-.9-1.7-3.7,1.3-4.1-.8s2.4-3.2,4-4.4c-2-1.4-5.1,2.4-7.2,0-.6-1.4-1.8-1.5-2.9-1.5a11.6,11.6,0,0,1,.4-1.8c.7-2.2-3-2.7-2.4-5.1s-4.9-4.8-6.6-7.7c.1-2,2.7-3.7,2.2-5.7l-.4-1.1c-1.2-3.1,3.3-5.9,5.5-7.4,3.8-2.1-2.9-3.2-3.2-5.8s-2-5.4-.1-7.9,9.1,2.7,9.1-3.1c-2.8-4.1-8,1.8-10.6-2.8a16.5,16.5,0,0,1,1.5-6.9,5.5,5.5,0,0,0,3.1-1c1.9-.6,4.6.6,5.8-1.2-.5-2.9-3.7.6-5.5-.3s-4.7-.3-7-.4c-.6-2.2-2.1-3.5-3.9-4.8.6-2.3-.9-4.4-1.1-6.7,1.5-1.4,3-2.8,4.4-4.3s4.6-4.2,2.8-6.5a18.1,18.1,0,0,0-5.7.5,45,45,0,0,0-.8,5.1,1.6,1.6,0,0,0-.2,1.2c-1.4.6-3.7,2.1-4.6.3a21.8,21.8,0,0,0-1.1-4.4c.5-1.6,2.3-2.3,3.5-3.2s3.6-1.7,5.3-2.7a16.7,16.7,0,0,0,3.1-2.8l-2,.6h0c.3-.2.1,0,.1-.3a.1.1,0,0,1,.2,0c0-.1.1-.2.1-.3l-.2.2c-.1-.1.2-.3,0-.3s0-.3.2-.4.2-.1.4-.2-.1-.1-.2-.1h.2c.1-.1.1.1.2.2l.4-.4c0,.2.3-.1.2.1s-.1-.3.2-.3h-.2c.4-.3.3-.1.7-.2s-.1-.1-.2-.2.3-.2.3.1.3-.2.4,0,0-.2.1-.3.3.3.4.1.2.1.1.1,0-.2.1-.2.3.4.4.5.3-.2.7-.5,0,.3.2,0-.1.2,0,.3.1-.2.2-.3.5.2.6,0,.2.3.3,0,.1.1.1.3h.3c-.1-.1-.2,0-.2-.1h.6c.1,0,0-.2,0-.2h.2c.1.2.1-.2.2,0s-.1-.2-.1-.4.1.3.2.4a.6.6,0,0,0,.5-.2c-.1-.1-.3.1-.4.1h-.1c.1-.2.6-.2.8,0s0-.2-.1-.4.2.3.3.3,0-.3.2-.2v.2h.3c0-.2-.1-.2,0-.4h.2c.2.2.1.1.1.4s.5-.3.7-.5.1.1,0,.2.3,0,.5-.3,0,0,.1.1.2,0,.1,0,0-.3.1-.1-.3-.2-.4-.4l.8.2H383c.1-.2.4.1.4-.1l.3.2c0-.2.3-.1.4-.1s0-.3.1-.4.3.2.5,0,.4.7.2.1,0,.1.2.3v-.3h0v-.3h.2c0,.1,0,.2-.2.2h0c.1.1.2.2.3.1s0-.3.1-.3.1.1.2.1,0-.1-.1-.3.3.1.2-.1.1.1.3.2.1-.3.2-.1.1-.4.4-.4h-.2a1.3,1.3,0,0,0,.3.5c.2,0-.1-.1-.2-.3s.3,0,.4.1l.2-.2c-.1-.1-.2,0-.2-.2l.3.2c.1-.1-.1-.2-.1-.3s.3-.1.3.2.3,0,.4,0-.3-.3,0-.4,0,0,.1.1v-.2a.2.2,0,0,1,.2.2.2.2,0,0,0,0-.3c.1,0,.1,0,.1-.1s.1.4.4.2,0,.2.1.3h.2c.1.2,0,.3.1.5s.3-.4,0-.4.2.1.3.3.2,0,.2-.1.1.1.2,0-.3.2-.3.3.3-.1.6-.1a.3.3,0,0,1-.3-.3c.3.4.2-.5,0-.6s.4-.6.3-1,.2.2.5.1-.3-.1-.1-.3h.2c-.1-.2.2-.4,0-.7s.3-.1.3-.3h.4c.1,0,.1-.5-.2-.4s.5-.4.8-.4-.1.2,0,.3.3-.1.2-.4.2,0,.1-.2.4-.1.5,0a.4.4,0,0,0,.1-.3c.3.2.3-.3.6-.1s-.3-.2-.2-.5.1.2.2.2.2-.4.4-.2.1-.3-.1-.3.4-.1.2-.4.2.1.3.2,1.2-.2,1.3-.6h.2c.1.2-.1,0-.2.2s.1.1,0,.2l.4-.2c.1.2-.1.2.1.3s.3,0,.2-.3.2.2.1.3.3,0,.4.2l.3-.3c.3.2.4.1.7.1s0-.1.1-.2h.4c.1-.1-.1,0,0-.2h.3c-.1.3,0,.2.2.3s-.3,0-.2.2.4-.3.7-.3.6,0,1.1.2a.2.2,0,0,1,0-.3h-.2c0-.3.5-.1.2-.4l.8-.3c.1.2-.1.2,0,.3s0-.2.1-.3.3.2.6.1v.2h.3a.1.1,0,0,1-.1-.1.1.1,0,0,0,.2,0c-.2.4.2.2.4.4s.6-.3.3-.3.1-.1.2-.2,0,.1,0,.2.1-.2.1-.3.2.2.1.2.1-.3.3-.3,0,.1.1.3.4.1.6-.2-.2.3,0,.5,0-.2.1-.3.6-.3.9,0,.4-.3.6-.4.2.2.2.3.3-.3.6-.4l.2.3a1.1,1.1,0,0,1,1.6,0,2.6,2.6,0,0,1,1.1-.3c.1-.1-.2-.1-.1-.1s.2.1.1.1.2-.2.1-.4.1.2.4.1-.1-.1-.2-.1.2-.1.2-.1l.3.6h.2c.1,0,0-.1,0-.1s.1,0,.1-.2l.3.3s.1-.2.2-.1-.2,0,0,.3.4-.2.4.1.1-.1.1-.2.2-.1.2.1,0-.2-.1-.2.5-.1.5-.4-.2.2-.1.4.2-.4.3-.1a.4.4,0,0,0,.1-.3c.2-.1.3.2.6,0s-.1-.5.2-.6.1.3-.1.4a.4.4,0,0,0,.4.2h.2s.2.5.5.4,0-.4-.3-.4.4.1.5,0v.2c-.2-.1-.2,0-.2.1s.3,0,.5-.1-.2.1-.1.3.1-.2.4-.2a.2.2,0,0,1-.1-.3c.1-.1.1.3.2.1s0,.2-.1.2.4-.4.5-.5h.4c-.1.1.1.2-.1.3s.2.1.2.3.4-.3.4-.7h.3v.4c.1-.1.1-.1.1-.2s.1.1.4.2h.1c.1,0,0-.1,0-.1h.2c.1.2,0,.2.1.3h.2c-.1,0-.1-.1.1-.1s.1.1.2.2.2-.3.3-.2-.1,0-.2.1.4,0,.5.2.2-.5.5-.6v.3c.2-.1.3,0,.5-.2s.1.1.1.4.3-.2.4.1.6-.3.8-.6l.3.2c-.1.3,0,.1.1.4s.1,0,.2,0-.2-.2-.2-.4l.3.2c.1,0,.1-.3.2-.1s-.2-.3-.2-.1.1-.2-.1-.3a.1.1,0,0,1,.2,0h.1s.1-.3.3,0h0c-.1-.2,0-.3.1-.4s.2.3.4.2,0,.2.1.3.2-.3,0-.3.5,0,.7.1-.2-.1-.1.1-.1,0-.1-.1h-.2c0,.1.3.3.4.4s-.1-.2,0-.2.2.3.4,0v.6a.8.8,0,0,0,.2-.4c.1-.1.2.2,0,.3s.2.1.2.2,0-.2,0-.4.2.2.3,0a.4.4,0,0,1-.1.3c.2.1.1-.3.4-.2s-.1-.2,0-.3.3.2.5.5,0-.4.2-.2.1-.1.1-.2.2.2.3-.1.3.2.1.3.4-.1.5-.3-.2.2,0,.4.4.1.3-.3h.2c.2-.2-.3-.1-.2-.3l.4.2.5-.2c0-.3-.3.2-.3-.1s.3-.1.3-.2h.2c.1.1-.2.2-.1.3s.1-.2.5-.2,0,.2.1.3.1-.2,0-.3.4,0,.5.2-.1-.1-.2,0,.3.1.1.2.2-.1.2-.1a.1.1,0,0,0,.2,0c.1.1,0,.1.1.3s.3-.2.3-.1-.1-.1-.1-.3.1.3.4.5h0a.2.2,0,0,1,.2-.2h-.1c.2,0,0,.3.1.3s.3-.2.5-.2a.1.1,0,0,0,0,.2c.5-.2.1-.4.5-.6s0,.3.1.5h.2c.1-.2.5-.3.4-.5a1.7,1.7,0,0,1,1.2-.1C433.3,403.4,433.7,403.8,434,403.4ZM67.7,447.9l-2.1-.4C64.9,444.6,69.3,446.2,67.7,447.9Zm310.8-34.5-.2.3C378.1,413.5,378.4,413.3,378.5,413.4Zm-1.8-30.3Zm-.5.1v-.3a1,1,0,0,0,.5.4h0C376.6,383.1,376.4,383.1,376.2,383.2Zm-.1-.1h0c0,.1-.1,0-.2.1S376.1,383.2,376.1,383.1Zm-3.3-.1h0c-.2.3-.2.1-.3,0s.4-.3.7-.2l.4-.3c.1.2-.2.1-.2.3s.1,0,.2,0,0-.1.1-.2.2-.2.6,0-.2-.1-.4-.2.4-.1.4.1.1-.2.2-.3.1.2.2.1.6.3.7.1,0,.3,0,.3h.2c.2.1-.2.2.2.2s-.1-.1,0-.2.4.2.1.3a.1.1,0,0,0,.1.1h-.4c.2.1,0,.2,0,.4s-.3-.2-.3-.4-.1.3-.2,0,0,.2-.2.2.2-.3,0-.5,0,.2-.2.2,0-.2-.2-.4-.2.3-.1.5-.2-.5-.4-.3.1.1.2.2-.4-.1-.4.1a.4.4,0,0,1-.4-.2c-.1.1.1.3.2.3s-.4,0-.4.2S372.9,383.2,372.8,383ZM171.2,299.9c0,3.4-5.3,1.2-5.6-.9C167.1,297.7,169.6,299.3,171.2,299.9ZM372.1,383s.1.1.2-.1,0,.2.2.2-.4.1-.2.4S372.3,383.2,372.1,383Zm-.2,0h0ZM218,657.8l-1.4.6c-1.1-.6-2.8-1.7-2.3-3.1l.8.2C216.3,655.8,219.2,655.8,218,657.8Zm-6,4.5c-1.1.7-2.2,1.2-3.3,1.8a4.6,4.6,0,0,1-4.4.6c-1-1.2.1-3.2,1.4-3.8s4-2.6,5.8-4.1C213,658.1,215.7,661.7,212,662.3ZM101.9,504.6a6.3,6.3,0,0,1,2.6-2c1.5.1,2.1,2,3.1,2.9s.1,2.5.2,3.8a4.2,4.2,0,0,1-.4,1C105.1,509.3,103.4,507.1,101.9,504.6Zm24.5-176.8.6-1.4c1.2-.4,3-.9,3.8.3l-.6.5C129.1,327.9,127.2,330.1,126.4,327.8Zm238.7,91.5h.2c-.1-.3.3-.1.2-.5a1.7,1.7,0,0,0,1,.1c-.1.1-.1.1,0,.2a1,1,0,0,0-.5.4Zm10.2,76c-.8.8-1.4,1.9-2.2,2.7l-1.6-.4a4.1,4.1,0,0,1-1.3-2.3,1.5,1.5,0,0,0-1.7-.3c.1-1.6.7-4.1,2.6-2.7S375.1,493.7,375.3,495.3Zm-10.9,45.6c1.5-1.5,3.3,1,1,1.7S363.1,541.7,364.4,540.9Zm-5.1.5c.4-2.4,4.4,0,1.9,1.1C360.3,542.6,358.8,542.7,359.3,541.4Zm-12.5,80.7a11.8,11.8,0,0,1,1.1,1.9C346.2,626.5,344.5,622.1,346.8,622.1ZM342,519.3l.3-.2a18.2,18.2,0,0,1,1.1,3C342.1,522,340.6,520.1,342,519.3Zm-5-1.9a1.2,1.2,0,0,1-.8-1.5,27,27,0,0,1,3.6.9,1.8,1.8,0,0,0-.5.7H339A1.3,1.3,0,0,0,337,517.4ZM326.3,617.5c.5,1.8,2.4,3.6,1.3,5.5l-1.9,1.1C325.4,622.2,323.6,618.5,326.3,617.5Zm-52.4-12.7a8.4,8.4,0,0,0-2.4,1.8l-.2-.5a5.4,5.4,0,0,0,.4-4c.6-.6,1.6-.7,3.2.2l1.3.7A2.8,2.8,0,0,1,273.9,604.8ZM242.3,648c1.8-1.1,1.8-2.9,1.4-5a5.9,5.9,0,0,1,2.3-.1,17.1,17.1,0,0,1,2.7,2,1.6,1.6,0,0,0,1.3,1.2c1.6,1.8,4.2,1.8,6.2,2.9-.5.8-1,1.7.4,1.4l-5.3,4.7c-1.8.7-3.9.2-4.1-1.9s.7-4.5.6-6.9-1.7-.3-2.5.4-.8,2.6-1.9,3.4A2.2,2.2,0,0,1,242.3,648Zm-4.9.4,2.5-2.2a4.1,4.1,0,0,0,.7,1.1,2,2,0,0,0-.6.9C239.2,648.5,238.2,649.1,237.4,648.4Zm-32.6,20.1a2.7,2.7,0,0,0-1.1-.5,12.1,12.1,0,0,0,.1-1.9,11.4,11.4,0,0,0,3.2,0c1.2.4,2.5.5,3.8,1a4.9,4.9,0,0,1-.1,2.1A11.4,11.4,0,0,0,204.8,668.5Zm-32.7-18a21.7,21.7,0,0,1,3.6-5.8c2.5,2.1.9,6.8-2,8.1C172.7,652.9,172.3,651.3,172.1,650.5Zm-3.4-4.1h.6c-.2-1.4-.4-2.7-.7-4.1,1.8-.1,3,3.9,1.8,5.3A2.5,2.5,0,0,1,168.7,646.4ZM94.8,512.5c1.1-.7,1.9-2,3.2-2.6l1.5-1.9a30,30,0,0,1,.8,6.7c.3,2.5.8,5.6-2.8,4.7A21.4,21.4,0,0,0,94.8,512.5Zm-6.4-14.7h0c1,2.9,4.2,1.2,5.7-.4l.6.2a35.1,35.1,0,0,1,3.7,7.2,7.1,7.1,0,0,1-4.1,3.7,3.1,3.1,0,0,0-1.4.7c-1.1-2-2.3-4-3.2-6a.6.6,0,0,0,.2-.7h-.4A11.9,11.9,0,0,1,88.4,497.8Zm-3.6-62.2c-1.7-.8-4.3-.5-5-2.6a14.2,14.2,0,0,1,.5-2.2C81.9,431.9,85.8,433,84.8,435.6Zm13-33.9c-1.1,3.6-2.5,7.2-6.6,8-1.3-2.4.3-5.6,3.3-5.2S95.7,400.7,97.8,401.7Zm1.7,9.6,3.9,1a23.7,23.7,0,0,1,2.8,2.7c-2.3,1.8-4.3,4.1-7.7,3.2a8,8,0,0,0-2.3-2.2c-.9-.9-1.7-1.9-2.6-2.9A57.6,57.6,0,0,0,99.5,411.3Zm3.5-21.2a2.9,2.9,0,0,1-2.3,2.1c-2.3-1.6,1.2-3.1,1.5-4.9A5.7,5.7,0,0,0,103,390.1Zm7.5-37.4c2.8.5,2.9,3.6,4.8,5.1h.6a7.5,7.5,0,0,0,.7,1.2v.3h-.8a1.5,1.5,0,0,0-1.8.2c-2.4,0-4.1,1.9-6.3,2.7-.3-1-.5-1.9-1.3-.7.1-2.3.1-4.7,0-7S108.8,351.6,110.5,352.7Zm10,4.2-1.3-2a6.3,6.3,0,0,0-1.9-2.6c.6.3,1.1.8,1.8,1.1a2.9,2.9,0,0,0-.1-2.7c.3-.8.6-2,1.7-2,0,1.6-.1,3.3-.1,5A4,4,0,0,1,120.5,356.9Zm11.8-40.3c-.8,2.3-.6,4.7-.8,7.1-2,.2-6.4-.1-4.4-3.3a22.2,22.2,0,0,1,.9-3.7,4.2,4.2,0,0,1,2.4-3.6C132,313.1,132.8,315.3,132.3,316.6Zm30.2-18.2a23.8,23.8,0,0,1,1.8,6.6c-3.2.4-5.7-3.9-4.7-6.9C160.2,297.2,161.7,298,162.5,298.4Zm28.6,3.5a18.9,18.9,0,0,1-1.7,2.8,4.6,4.6,0,0,1-2.5-1c-.1-1.4-.2-2.7-.2-4.1v.2A17.2,17.2,0,0,0,191.1,301.9Zm4.2,4.4v.2a4.3,4.3,0,0,1-.2-1.2A3,3,0,0,1,195.3,306.3Zm54.1-34.5c-5.5-.1-11.2-.7-14-6.1,3-2.8,8.1-1.8,8.7,2.6S250,268.4,249.4,271.8Zm128.5,80.4c0,.2-.4.3-.3,0S377.7,352,377.9,352.2Zm.1,30.4h.1v.2l-.2-.2-.5.4c0-.1.1-.1,0-.2s-.2.2-.3.1.2,0,.2.2v.2c-.1,0-.1-.1-.1-.2s0-.1-.1-.1-.1-.2-.3-.3h.4c.1-.1-.1-.1-.2-.1s.4-.3.5-.2-.4-.1-.3-.5-.2.1-.3.3.2-.4-.2-.3-.2-.6-.4-.6a.1.1,0,0,1,.1-.1c.1-.2-.2-.2-.2.1s0-.3-.1-.5-.6-.2-.8-.3,0-.4.2-.6.1.3,0,.3.3,0,.4-.2.2-.3-.2-.3h.3c0-.2,0-.3.2-.3l-.2-.3c.2-.1.2.1.4,0s-.3.2-.1.4.2-.7.7-.6v-.2h.2c0-.1-.1-.2-.1-.3s.2.2.4,0,0,.1.1.1-.3-.1-.3.2h.4c-.1,0,0-.1-.1-.2h.3c0,.1.1.2.2.3s-.2,0-.2-.1,0,.3.2.4,0,.5-.4.5.1.1.2.1-.4-.1-.5,0-.5.2-.2.4-.1,0-.3,0,.3.2,0,.2.3-.1.4.1-.2.2-.4.1,0,.3.2.2l-.2.2c.3-.1.3.2.1.3s-.2.2-.2.4.2-.3.1-.3h.2c-.1.3.3.1.1.5s.4.3.4.5.5,0,.3.3-.1-.2-.2,0h.5Zm3.4-2c-.1.1-.1.1,0,.1s-.2.3-.4.5h-.3c-.1-.1-.1-.1-.2,0h0c0,.1,0,.1-.1.1h0c0-.2.3-.1.3-.4s.2,0,.1.2.3-.2.4-.4S381.3,380.6,381.4,380.6Zm.6-1.9-.2.3s-.3,0-.2-.2S381.8,378.7,382,378.7Zm1.6.5v.2c-.2,0-.3.1-.4.3s-.2-.2-.4,0h.2l-.4.4c-.1,0-.1-.2-.2-.2s-.1-.1-.2.1,0,.1.1.2-.3-.2-.5-.1,0-.1,0-.2,0,.1-.1.1.2.3,0,.5-.2,0-.3-.3a1.7,1.7,0,0,1,.2-.5c-.1.1-.2.1-.3.3s.2-.4,0-.6.4-.3.2-.4.3-.2.5-.1a.2.2,0,0,0,0-.3c.1,0,.4.1.4-.2s1,.5,1,.9Zm12.2,10.7c.1.2,0,.2-.1.4S395.8,390,395.8,389.9Zm7,15.6c0,.1,0,.1-.2.2s-.3-.1-.2-.2S402.8,405.4,402.8,405.5Zm11.2-1.3c-.2.1-.3.2-.4,0h.4Zm3.8-1.4c-.2.2-.4,0-.6-.1S417.6,402.9,417.8,402.8Zm7.3,1.4c0,.1-.1.1-.2.1S425.1,404,425.1,404.2Z"/><path class="cls-2" d="M392.2,416a.4.4,0,0,0-.5,0,.3.3,0,0,0-.6-.1c-.1-.4-.3-.4-.5-.7s0-.1,0-.2-.1-.5,0-.7h-.2a10.8,10.8,0,0,1,0-1.8c.2.1.4.1.6.3s-.1.1-.1.2,0,.3.3,0h.2c-.1.3.1.3.3.5s.2.3.1.5.1,0,.2,0,0,.5.3.6S392.6,415.5,392.2,416Z"/><path class="cls-2" d="M397.7,386.9c-.1-.2-.2.2-.3.2a.1.1,0,0,1,0-.2C397.6,386.7,397.9,386.7,397.7,386.9Z"/><path class="cls-2" d="M398.1,386.1c-.3.1-.2.3-.1.3s-.2,0-.3.1v.2a.2.2,0,0,0-.4.2h-.3l.2.3c-.2-.1-.2.2,0,.1h-.5a.2.2,0,0,0,.2.2l-.3.2c-.1-.4,0-.2.1-.5s-.3-.2-.2-.6.1.2.2.2-.2-.4-.3-.4.3-.5.1-.7.3-.3.2-.5-.2.3-.1.1.3-.1.1-.2.2.1.3-.1-.1-.1-.1-.3.1.4.4.2v-.2h.3c0,.1-.2.2-.1.3l.3-.2s.3.2,0,.3.1-.3,0-.2a.2.2,0,0,0,0,.3c.1.1.1-.2.2,0a1,1,0,0,0,.1.9C397.8,386.1,398,386,398.1,386.1Z"/><path class="cls-2" d="M404.6,372.6l-.3-.3c-.1.2.2.3.2.6s-.1.3-.1.4-.1.1-.2.1.1-.3-.1-.2H404c.1.2-.6.3-.3.7s-.1-.3-.4-.4-.2.4-.3.4-.2-.3-.1-.5-.1,0-.1.1-.2.2-.3.4h.2c.1-.1.2-.2.3-.1s-.5.1-.7,0,0,.1-.1.2-.1-.2-.2-.1.3-.6.1-.9.2.1.3-.1-.2.3.1.2.1-.3,0-.6.1-.1.1-.2.4-.1.8-.1l-.2-.6c.2-.1.3,0,.3-.2s0,.3.1.3,0-.2.1-.2-.3.1-.3.4-.1,0-.1.1.3.2.6.4,0-.2-.2-.4.3-.1.3-.2.2.2.4.1,0,.3.1.5.1,0,.1-.1h0c.1.1.1.2.3.2Z"/><path class="cls-2" d="M376.2,379.8c0-.2-.2,0-.3-.2s.3,0,.3-.1S376.2,379.8,376.2,379.8Z"/><path class="cls-2" d="M377.5,299.4h-.2a.1.1,0,0,1-.1-.1c0-.2.2,0,.2-.2h-.2c-.1-.1-.2-.5.1-.6l-.4-.5c.1,0,.2.1.4,0h-.4c-.2-.2.2,0,.2-.2s-.3-.2-.1-.4,0,.1.2,0a.2.2,0,0,0-.3-.1c.1-.2.2-.2,0-.1s.1-.2.2-.2.1.2.2.1-.3-.2-.4-.1.2-.3-.1-.4h.2c0-.3.2,0,.3-.3s-.4.2-.3-.2-.1.1-.2.3.2-.3-.1-.4.3,0,.3-.2-.2-.3-.5-.4.2-.1.1-.2.1-.1.2-.4-.3,0-.2-.3-.1.1-.2,0,0-.1,0-.1-.1.1-.1.1-.1,0-.1-.1.3-.1.3-.3h-.3c-.3,0,0-.2-.3-.3s-.1-.1-.3-.1.2-.4-.1-.4v.2c-.1-.4-.6-.7-.7-.9s-.2.2-.3.2,0-.2,0-.3-.4-.2-.6,0-.5-.5-.6-.4h0c0-.1.3,0,.3-.2h-.5c.1-.2.2-.1.2-.3s-.2.1-.3.1-.1.1-.1.4a.1.1,0,0,1,0-.2c-.1-.2-.5.1-.4-.3s-.2,0-.2.2-.6-.4-.8-.6l-.2.4c-.1-.4-.3-.2-.5-.4s-.1.3-.2.2.1-.3-.1-.6.1.3,0,.4V291a.6.6,0,0,1-.1.4c-.1-.3-.3-.2-.7-.3s-.3.2-.5.4,0-.2,0-.3h-.3c.1.3-.1.2-.2.4s-.1-.3-.4-.3.1.2,0,.3h.2a1.2,1.2,0,0,0-.4.8q0,.2-.3,0c-.1.4.1.5-.3.7s.1-.2,0-.2h-.1c0,.3-.3.1-.3.3s.1.2.5.3-.2,0-.3-.1-.1.3-.1.5h-.2c0-.1.1-.1.1-.2s-.3.2-.4.4-.2-.2-.1-.3h-.4c-.1.2,0,.1.1.2h0c-.1,0-.1,0,0-.1s-.1.1-.1.2h-.2c-.1,0,0-.1,0-.2s.5.6.3,1-.1,0-.1.1a.4.4,0,0,1-.1-.3c-.2,0,0,.3.1.4s-.1.5,0,.6-.3.3-.4.6.2-.2.3,0l-.3.2c.2.3.2.4-.1.7s.3.4.4.7-.1,0-.2,0,.1.3,0,.5h.3c-.3.1-.1.3-.4.2v.3h.2c-.2.1-.1.3-.2.5s0,.2.3.3,0,.5.2.6-.2,0-.2.2.2.1.3.2-.2,0-.2.2h.1c0,.1.1.1.2.1s-.1.3.2.2-.1.3-.2.4.4.3.6.6.1,0,.1,0,.2.2.1.4.4,0,.2.2.1-.1.2-.1-.1.2,0,.3.1,0,.2-.1,1,1.2,1.3,1.1a.1.1,0,0,1,0,.2c.3.3.6.1.6.4s.2-.1.2-.2.5,0,.5.3h.5c.1,0-.1.1,0,.2s.2.1.3-.1.5,0,.5.4h.5a.2.2,0,0,0-.2-.2c.1-.2.5,0,.8,0a.3.3,0,0,1-.1-.2h.2c.1.1-.2.4.1.4s-.1-.4.2-.3.1-.2,0-.4.4-.1.6.2,0-.2.1-.3,0,.2.1.2,0-.2,0-.3.1.1.1.3.1-.5.3-.3,0,.1,0,.2h.2c0-.2.2-.2.2-.4s0,.3.2.2a1.4,1.4,0,0,1,1.2-.6c0-.2-.1-.2-.1-.4s.1.3.3.1.1-.2.3-.2-.2-.1-.3-.1a.4.4,0,0,0,.1-.3c0-.2.1.1,0,.1s.6-.5.5.1.1-.4.1-.5h-.3c0,.1-.1.1-.1.2s.1-.8.1-1.1h.1c.1-.1.1-.3-.1-.2s.2-.2,0-.3.2-.1.3-.3l-.2-.3c.1,0,.3.2.4-.2s0-.2-.2-.2.3-.1.3.1S377.5,299.5,377.5,299.4Zm-7.2-7.8c-.2,0-.2.1-.2.3s-.1-.5,0-.5S370.4,291.4,370.3,291.6Z"/><path class="cls-2" d="M398.2,296.3c-.1-.1.1-.3-.1-.4s.1.2.3.2.6-.5.2-.5.1.2,0,.3-.1-.2-.3-.2.3-.1.3-.3-.1-.1-.3-.2.1-.3.4-.3h-.6c.2-.1.5-.7.3-.9s.2-.1.3-.1.1-.4-.1-.5-.1.2-.1.4a1.7,1.7,0,0,1,0-1c0,.1,0,.1.1.2s.1-.3.1-.5l.3.2c-.1-.2-.3-.4-.1-.7a.6.6,0,0,1-.6.3c-.1-.3.2-.3.3-.6h-.3c0-.2.5-.1.1-.2h.4c.2-.1-.2-.1-.2,0v-.2c.3.1.4-.3.5-.5s0,.4-.4.4.2-.1.1-.3-.1.3-.4.1.3.1.3-.2-.3,0-.5-.2.2-.1.2-.2-.2,0-.2.1.1-.1.1-.3H398c.1,0,.1-.1,0-.1a1.1,1.1,0,0,0,.2-.6h-.3c.1-.2.3-.2.5-.2h-.1c-.1,0,0-.1,0-.1s-.4.1-.6-.1.4,0,.5-.3-.3-.1-.3.1h-.2c.2-.3,0-.2.1-.5s-.2,0-.3,0,.2-.2.3-.4h-.4c0-.3.3,0,.4-.2s-.4.1-.8.3.2-.1.1-.3-.3-.1-.4,0-.1-.3.1-.2-.2,0-.4-.1.3-.1.5-.1-.4-.1-.5-.3.1.3-.2.2.2-.3-.1-.3-.1.3,0,.4h-.2a.4.4,0,0,1,.1-.3c-.2-.2-.2,0-.3,0s.1-.5,0-.7,0,.3-.2.2.1.2.1.4l-.4.2c-.1-.1,0-.4-.1-.4s-.7-.3-.7-.4.1-.1.1-.2-.5,0-.4.3-.6-.1-.7-.5a.1.1,0,0,1,.2,0c0-.3-.1-.1-.3-.1a1.5,1.5,0,0,0,.1.7c-.2.1-.3-.5-.5-.1s.4-.3.3-.6l-.5.4c-.2-.1.1-.3-.1-.3s-.1.3-.2.4-.3-.1-.5-.2.1.1.1.2-.3-.4-.5-.5,0,.3-.1.4h-.3c-.1.3-.7.2-.8.1s0,.4-.2.2a.4.4,0,0,0,.2.4c-.1,0-.1.2-.3.1s-.1.2-.1.5-.3-.1-.6-.2-.9.7-.7,1.1h-.3c0,.1,0,.3-.1.3s.3.1.3-.1-.1.2-.1.5h0c.1,0,.1-.3.3-.1s-.3.3-.5.5-.1-.1-.1-.2h.2c.1-.2,0-.3,0-.5a.4.4,0,0,1-.6.1h0a.1.1,0,0,1,.1.1l.2-.2c.3.2-.7.9,0,1.1s-.2.1-.5.5.2.2.2.3-.2.1-.2.3-.3-.2-.4,0,.2-.1.2.1-.3.1-.3.3.2.4.3.6-.2.2-.3.4.4.2.2.3.3.2.3.3,0,.1-.2.4.3.1.4.2-.1.3-.2.3.2,0,.3-.1-.2.2-.1.5.1,0,.1-.1a1.3,1.3,0,0,1,.1.6h.2a.5.5,0,0,1,0,.5c.1.2.2.5.5.4l-.3.4c.2,0,.2-.2.3-.2s-.2.3-.2.5.1-.3.3-.4.3.4.3.7.1-.1.2-.1,0,.2,0,.3.1-.2.2-.1-.1.1-.1.3.4-.1.2.2.4.1.6,0,.1.2.1.5,1,0,1.3.6.1-.2.2-.1.3.2.2.4h.3c.1-.1,0-.1,0-.2s.1,0,.2,0a.4.4,0,0,0,.2.4c-.1-.5.1-.1.3-.5s-.3.3-.4,0,.2.1.2-.1.3.3.5.4.3-.4.2-.7.2.3.5.3-.1.2,0,.4.2-.4.1-.4.1.1.2,0,.1-.3-.1-.3.3,0,.2-.2.2.1.4.3.4-.4.5-.1.1-.3,0-.3.1-.1.2,0,0,.1,0,.3h.5c0-.1-.4-.1-.3-.2s.6-.4,1.1-.4,0,.3.2.3.1-.1.1-.3h-.2a.8.8,0,0,1,.2-.5c.2.1.1.2.3.2s.5-.2.8-.1h0c.2.1,0-.1.1-.2H398c0-.1.1-.1.1-.2l.2.2c.1,0-.1,0-.1.1s.3-.2.3-.4h.1c.2,0-.2.3.1.3s.2-.4.3-.6-.2,0-.2.2S398.4,296.2,398.2,296.3Zm-.5-8.1-.3.2C397.3,288.2,397.5,288.2,397.7,288.2Zm.3,4.9c.3,0,0-.5.3-.5s-.1.2,0,.2S398.1,293.3,398,293.1Zm0,3.1c.1.1-.2.3-.1.1h-.1a.2.2,0,0,1,.1-.3C397.8,296.3,398,296.1,398,296.2Z"/><path class="cls-2" d="M385.6,356.1c-.1.2.4.2.4.5s.3-.2.3-.1.5.8.7,1.1h-.1l.5.6c-.1-.2-.5.5-.4.8s-.3.4-.6.2-.2.1-.2.3.5-.1.5.1h-.6c.1-.1.1-.2,0-.2s-.6-.3-.5-.4-.5-.1-.8-.2,0-.5-.2-.3.2.1.2.2-.3-.3-.1-.4h-.3c.2-.2-.1-.2,0-.3s.1.1.1,0,.1-.8-.3-.9.3-.1.4-.1.3-.5.4-.7l.3.2C385.3,356.1,385.4,356.1,385.6,356.1Z"/><path class="cls-2" d="M372.6,323.6c0-.2-.2-.3-.3-.5a3.1,3.1,0,0,1,.3-1.3l.4.2c.1-.3.2-.1.3,0s.1-.5.1-.3.2.3.2.5.4.6.5.8.2-.1.3,0,.2.4,0,.1,0,.8.4,1.3-.2-.2-.2-.2-.3,0-.3.1-.1.2,0,.4-.4,0-.5.2-.2-.3-.2-.5-.4-.6-.8-.5a.7.7,0,0,0-.1-.5C372.7,323.5,372.7,323.6,372.6,323.6Z"/></g></g></svg>