<svg id="レイヤー_1" data-name="レイヤー 1" xmlns="http://www.w3.org/2000/svg" viewBox="0 0 70 57.8"><defs><style>.cls-1{fill:#231815;}.cls-2{fill:#e62980;}.cls-3{fill:#32afd7;}.cls-4{fill:#dccc34;}.cls-5{fill:#1eac4b;}.cls-6{fill:none;stroke:#3e3a39;stroke-miterlimit:10;stroke-width:0.5px;}.cls-7{fill:#3e3a39;}</style></defs><title>logo</title>

<!-- wa -->
<path class="cls-1" d="M100,95.7l-1.7,4.2h-.2l-1.3-3.3-1.3,3.3h-.2l-1.7-4.2H94L95.4,99l1.3-3.3h.2L98.2,99l1.4-3.3Z" transform="translate(-93.6 -48.5)"/><path class="cls-1" d="M104.4,99.1v.3l-.8.5h-.3v-.4a2.7,2.7,0,0,1-1.3.5,1,1,0,0,1-1.1-1.1,1.1,1.1,0,0,1,.6-1,3,3,0,0,1,1.8-.4v-.6c0-.5-.3-.8-.9-.8a2.7,2.7,0,0,0-1.3.5v-.4a2.7,2.7,0,0,1,1.3-.5,1.2,1.2,0,0,1,.9.3.9.9,0,0,1,.4.8v2.5c0,.2,0,.2.1.2Zm-1.1-.1V97.7a2.6,2.6,0,0,0-1.4.3.9.9,0,0,0-.6.8.5.5,0,0,0,.3.5l.5.2A2.1,2.1,0,0,0,103.3,99Z" transform="translate(-93.6 -48.5)"/>
<!-- waEND -->

<!-- ku -->
<path class="cls-1" d="M111.5,93.6v6.2h-.4V93.6Zm2.9,2.1-2.2,2,2.6,2.1h-.6l-2.6-2.1,2.3-2Z" transform="translate(-93.6 -48.5)"/><path class="cls-1" d="M118.4,99.8v-.7h0a1.7,1.7,0,0,1-.6.6l-.7.2a1.4,1.4,0,0,1-1.1-.5c-.3-.2-.4-.6-.4-1.2V95.7h.4v2.5a1.2,1.2,0,0,0,.3.9,1.1,1.1,0,0,0,.8.3h.7l.6-.7V95.7h.5v4.1Z" transform="translate(-93.6 -48.5)"/>
<!-- kuEND -->

<!-- no -->
<path class="cls-1" d="M126.2,95.7v.7h0a1.6,1.6,0,0,1,1.3-.8,1.3,1.3,0,0,1,1.1.5,1.6,1.6,0,0,1,.4,1.2v2.5h-.4V97.5c0-1-.4-1.4-1.1-1.4a1.6,1.6,0,0,0-1.3.8v2.9h-.5V95.7Z" transform="translate(-93.6 -48.5)"/><path class="cls-1" d="M132.6,95.6a2,2,0,0,1,1.4.6,2.3,2.3,0,0,1,.6,1.6,2,2,0,0,1-.6,1.5,2,2,0,0,1-1.4.6,2.1,2.1,0,0,1-2.1-2.1,2.3,2.3,0,0,1,.6-1.6A2,2,0,0,1,132.6,95.6Zm0,3.8a1.5,1.5,0,0,0,1.1-.4,2.1,2.1,0,0,0,.5-1.2,2.1,2.1,0,0,0-.5-1.3,1.5,1.5,0,0,0-1.1-.4,1.6,1.6,0,0,0-1.2.4,2.1,2.1,0,0,0-.5,1.3,2.1,2.1,0,0,0,.5,1.2A1.6,1.6,0,0,0,132.6,99.4Z" transform="translate(-93.6 -48.5)"/>
<!-- noEND -->
<!-- so -->
<path class="cls-1" d="M144,96v.5a2.4,2.4,0,0,0-1.2-.5l-.6.2a.6.6,0,0,0-.2.5c0,.2,0,.3.1.4a1.9,1.9,0,0,0,.9.4l.9.6a1.4,1.4,0,0,1,.2.6.8.8,0,0,1-.4.8,1.3,1.3,0,0,1-1,.4,2.8,2.8,0,0,1-1.2-.4v-.4l1.3.3c.3,0,.5,0,.6-.2a.5.5,0,0,0,.3-.5c0-.1-.1-.2-.2-.4l-.8-.4a1.7,1.7,0,0,1-.9-.6.5.5,0,0,1-.3-.5,1,1,0,0,1,.4-.8,1.3,1.3,0,0,1,1-.4A3,3,0,0,1,144,96Z" transform="translate(-93.6 -48.5)"/><path class="cls-1" d="M147.3,95.6a2,2,0,0,1,1.5.6,2.3,2.3,0,0,1,.6,1.6,2.1,2.1,0,1,1-4.2,0,2.3,2.3,0,0,1,.6-1.6A2,2,0,0,1,147.3,95.6Zm0,3.8a1.7,1.7,0,0,0,1.2-.4,1.9,1.9,0,0,0,.4-1.2,1.7,1.7,0,0,0-.5-1.3,1.4,1.4,0,0,0-1.1-.4,1.7,1.7,0,0,0-1.2.4,2,2,0,0,0-.4,1.3,1.9,1.9,0,0,0,.4,1.2A1.7,1.7,0,0,0,147.3,99.4Z" transform="translate(-93.6 -48.5)"/>
<!-- soEND -->
<!-- to -->
<path class="cls-1" d="M157.3,94.4v1.3h1.1v.4h-1.1v2.4a1.7,1.7,0,0,0,.1.8c0,.1.2.1.5.1a1.1,1.1,0,0,0,.7-.2v.5l-.8.2a.9.9,0,0,1-.7-.3.6.6,0,0,1-.3-.6V96.1h-1.1v-.4h1.1v-1l.3-.3Z" transform="translate(-93.6 -48.5)"/><path class="cls-1" d="M161.5,95.6a2,2,0,0,1,1.5.6,2.3,2.3,0,0,1,.6,1.6,2.1,2.1,0,0,1-2.1,2.1,1.8,1.8,0,0,1-1.4-.6,2,2,0,0,1-.6-1.5,2.3,2.3,0,0,1,.6-1.6A1.8,1.8,0,0,1,161.5,95.6Zm0,3.8a1.6,1.6,0,0,0,1.2-.4,1.9,1.9,0,0,0,.4-1.2,2,2,0,0,0-.4-1.3,1.6,1.6,0,0,0-1.2-.4,1.5,1.5,0,0,0-1.1.4,2.1,2.1,0,0,0-.5,1.3,2.1,2.1,0,0,0,.5,1.2A1.5,1.5,0,0,0,161.5,99.4Z" transform="translate(-93.6 -48.5)"/>
<!-- toEND -->
<!-- 中黒 -->
<path class="cls-2" d="M108.1,97.8a.8.8,0,0,1-.8.8.7.7,0,0,1-.8-.8.8.8,0,0,1,.8-.8A.9.9,0,0,1,108.1,97.8Z" transform="translate(-93.6 -48.5)"/><path class="cls-3" d="M122.8,97.8a.7.7,0,0,1-.8.8.8.8,0,0,1-.8-.8.9.9,0,0,1,.8-.8A.8.8,0,0,1,122.8,97.8Z" transform="translate(-93.6 -48.5)"/><path class="cls-4" d="M138.4,97.8a.7.7,0,0,1-.8.8.8.8,0,0,1-.8-.8.9.9,0,0,1,.8-.8A.8.8,0,0,1,138.4,97.8Z" transform="translate(-93.6 -48.5)"/><path class="cls-5" d="M153,97.8a.7.7,0,0,1-.8.8.8.8,0,0,1-.8-.8.9.9,0,0,1,.8-.8A.8.8,0,0,1,153,97.8Z" transform="translate(-93.6 -48.5)"/>
<!-- 中黒END -->

<!-- 四角 -->
<rect class="cls-6" x="21.5" y="6.3" width="30.3" height="30.31"/>
<!-- 四角END -->

<!-- 四角ペイント -->
<path class="cls-7" d="M114.8,52.9h.3c0,.2-.5.3-.4.6l.5.2c.1.3-.1.2-.3.2s.6,1.4,1.5,2.2h-.6l.3.5.4.5c-.9-.2-.1.8-.3,1.2a1.7,1.7,0,0,1-1.4,0,6.9,6.9,0,0,1,.7,1.5l-.5-.4c-.3.1-.2.4.2.7s-.4.2-.6.2a6.7,6.7,0,0,0,1.4.9,8.5,8.5,0,0,1,1.5.9,3.5,3.5,0,0,1,.6,1.4,4.1,4.1,0,0,0-1.5-.2l-1.1-.2c-.5-.7-2-1.6-1.6-2.2l-1.3-.4c0,.5,1,.9,1.1,1.4a10.5,10.5,0,0,1-2.9-2.3v.4c-.4-.7-1.1-1.6-1.7-2.5l-.8-1.2a2.6,2.6,0,0,1-.3-1.1,6.5,6.5,0,0,1,0-1.4,5.3,5.3,0,0,1,.3-1.2,2.7,2.7,0,0,1,1-1.4c.4,1.3.8,0,1.1.1s0,1,.3.9a1.5,1.5,0,0,0,.1-.9c-.1-.2,0-.4.3-.5s.7.6,1.1.7a3.4,3.4,0,0,1,1,0c.4.1.4.4.5.7s.1.5.5.3.2,0,.3-.2S114.8,52.7,114.8,52.9Z" transform="translate(-93.6 -48.5)"/><path class="cls-7" d="M118.6,64.9c.4.7,0,.7-.2,1s-.2.7-.8.2a.9.9,0,0,1-.3-.6c.6.1-.3-1.3.4-1.2S118.3,64.7,118.6,64.9Z" transform="translate(-93.6 -48.5)"/><path class="cls-7" d="M111.9,66.4c0,.4-.3.7-.6.6s-.4-.4-.6-.7.2-.7.5-.7" transform="translate(-93.6 -48.5)"/><path class="cls-7" d="M112.3,67.8c0-.3.2-.2.3-.3s.3.7.4.9l-.4.5A1.8,1.8,0,0,1,112.3,67.8Z" transform="translate(-93.6 -48.5)"/><path class="cls-7" d="M125.9,62.5c0-.1-.2-.2-.3-.3s0-.4,0-.5.4,0,.6,0,.8.8.6,1.1-.5.4-.7,0Z" transform="translate(-93.6 -48.5)"/><path class="cls-7" d="M118.8,72.8h.1v-.2l.2-.4a2.9,2.9,0,0,0,.2-.9c-.2-.1-.2-.3-.2-.7s.1-.7,0-.9-.5-.3-.7.1-.1.7-.2,1.1a1.3,1.3,0,0,1-.1.9c.4-.5.3.7.4,1.1h.2Z" transform="translate(-93.6 -48.5)"/><path class="cls-7" d="M114.5,70.4c.2.4-.4.5-.7-.1v-.7C114.2,69.9,114.4,70,114.5,70.4Z" transform="translate(-93.6 -48.5)"/><path class="cls-7" d="M111.9,76.6" transform="translate(-93.6 -48.5)"/><path class="cls-7" d="M127.1,72.4c.1.5-.7,1.2.3,1.6a1.9,1.9,0,0,1,.8.3s.1,0,0,.1a11.4,11.4,0,0,0-.8,1.6,1.7,1.7,0,0,0-.3.7v.2h0c0-.1,0,.2-.1-.2h0c.1.3.2.3,0,.1h-.2a2.4,2.4,0,0,0-1.1-.6L125,76h-.1c.3,0,1,.3,1.4,0a9.7,9.7,0,0,1,1.5,1c.2-.1-.1-.3.2-.4s-.2,1.5-1,1.6l.2.2a1.1,1.1,0,0,1-1.2-.2l-.8-.7c-.3-.3-.4,0-.6,0s.2-.8-.5-1.3h-.7c.2-.2.8,0,.6-.5l-.6-.6c.7-.2-.2-1.4.5-1.5s.7-.2.7-.5l.3.5c.2-.5.7-.4,1.2-.4l.2.3C127.1,73.5,126.7,72.5,127.1,72.4Z" transform="translate(-93.6 -48.5)"/><path class="cls-7" d="M120,58.3c.7.2.8,1.2,1,1.8A4.1,4.1,0,0,1,120,58.3Z" transform="translate(-93.6 -48.5)"/><path class="cls-7" d="M128.6,78.9c-.2,0,0-.5-.2-.8s.2.2.2-.1-.2-.1-.1-.3.3.3.4.3v-.3c.2.4.5.9.4,1.3s-.3,0-.4.3S128.6,79.1,128.6,78.9Z" transform="translate(-93.6 -48.5)"/><path class="cls-7" d="M127.6,76.1c0-.2-.1-.6.2-.5a.5.5,0,0,1,0,.8C127.8,76.3,127.7,76.2,127.6,76.1Z" transform="translate(-93.6 -48.5)"/><path class="cls-7" d="M128.6,67.7c-.4.1-.9-1.1-1.4-1s.4-.2.5.2,0-1.1-.4-1.8.5-.2.8-.7.6.6.8.6h0c.3.6.4,1,.9,1.2v-.2c0,.4-.1.1-.3.3s.2.6.3.6a3.8,3.8,0,0,0,0,1.5C129.3,67.3,128.8,68.7,128.6,67.7Z" transform="translate(-93.6 -48.5)"/><path class="cls-7" d="M131.6,66.9a.4.4,0,0,1,.4.4c0,.3-.2.4-.4.3A.9.9,0,0,1,131.6,66.9Z" transform="translate(-93.6 -48.5)"/><path class="cls-7" d="M134.3,65.2c-.3-.2-.4.2-.4.5-.3-1.4-1.2-.9-1.8-1.2s-1.9-3-2.9-4.7c-.1,0,0,.2,0,.3s-.5-2.3-.9-3.5c.8.9.4-.5.4-.9a5.5,5.5,0,0,1-1.8-1.9l.9.9c.4-.2,1.1.2,1.1-.4s-.5-.5-.5-.8l.6.5c.4-.3.2-1-.2-1.8a5.8,5.8,0,0,0,3.4,1.2v-.3c-.1.5.8.8,1,1.3s2,2.6,3,2.8.9,2.2,1.5,3.7h0c1,2.7-.4,3.6-.1,5.6-1-.9-1.2.4-2.3-.6l-.3.8C134.5,66.1,135,65.7,134.3,65.2Z" transform="translate(-93.6 -48.5)"/><path class="cls-7" d="M119.6,55.2c0,.5-.3.2-.4-.1S119.5,54.9,119.6,55.2Z" transform="translate(-93.6 -48.5)"/><path class="cls-7" d="M117.9,59.1a1.1,1.1,0,0,1,.3,1.3c-.2.2-.8-.3-.7.2s-1.2-1.3-1.1-2.1S117.4,58.3,117.9,59.1Z" transform="translate(-93.6 -48.5)"/><path class="cls-7" d="M118.9,63c.1-.3.3.3.3-.1s.5.7,1.1.9.1.6.2.5,0,.8-.2,1-.6-.4-.6,0-.6-.7-.7-.6a7.8,7.8,0,0,1-.5-1.4c0-.2.6-.1.3-.5A.3.3,0,0,0,118.9,63Z" transform="translate(-93.6 -48.5)"/><path class="cls-7" d="M141.3,56.3c-.1-.6,0-.7-.1-1.5s.8.8,1.2.5c.8,1.3,1.1,1.9,1,2.8s-.5.1-.7.1S141.8,56.8,141.3,56.3Z" transform="translate(-93.6 -48.5)"/><path class="cls-7" d="M139.9,55.7a3.9,3.9,0,0,1-.4-.9c0-.2.3.4.3.2l.9,1.7c0,.2-.1.1-.1.1A7.2,7.2,0,0,1,139.9,55.7Z" transform="translate(-93.6 -48.5)"/><path class="cls-7" d="M134.7,53.5c-.1-.3,0-.5-.1-.8s.8-.2,1.7.8.7,1,.6,1.4-.3.5-.7.3A6.1,6.1,0,0,1,134.7,53.5Z" transform="translate(-93.6 -48.5)"/><path class="cls-7" d="M114.2,64.7c.3,0,.6.4.9.6s.3.6.2,1-.5-.6-1.2-.6a3.7,3.7,0,0,1,.1-1.1Z" transform="translate(-93.6 -48.5)"/><path class="cls-7" d="M135.9,49.7c-.4-.7-.4-1.5.2-1.1s.9.8,1.3,1.3.1,1.1-.3,1.1A2.6,2.6,0,0,1,135.9,49.7Z" transform="translate(-93.6 -48.5)"/><path class="cls-7" d="M123.3,72.1c-.2-.1-.8-.1-1-.7s.2-.5.3-.7S123.5,71.7,123.3,72.1Z" transform="translate(-93.6 -48.5)"/><path class="cls-7" d="M117.5,76.2a1.3,1.3,0,0,0,1,.3c.1.2-.1.3.2.6s1.7,1.5,2.5,1.4-.7-.1-.8.2a3.5,3.5,0,0,0,1,1.2c-.5-.3,0,.4-.1.5s1.8,1.4,2.3,2.1-1.4-1.3-1.9-1.2.5,1.3.6,1.7l-.4-.4c-.1.4-.9.4-.3,1.2s-2.7-.5-4.1-1-1.5-1.9-2.2-2.8H115a6.1,6.1,0,0,0-1.3-3.1c-.1-.6,0,.4.1-.1s.9-.7.9-1.1.8-.3,1.4-.7S117.3,75.6,117.5,76.2Z" transform="translate(-93.6 -48.5)"/><path class="cls-7" d="M136.2,74.3c-.1,0-.1.1,0,.2l2.1.4-.2.2,3.4,2.3c1.5,1.9,1.5,3.8,2.8,5.5s-.5-.4-1.2-.5-.8.4,0,.8-1,.1-1.6,0l.3.6c-.8-.3-1.3-.8-2-.6s.8.6,1,1.3c-.9-1.4-2.4-1.7-3.5-3.1v.5c-.6-.7-.4-1.6-1.4-2v.3a32.5,32.5,0,0,1-1.5-4C133.7,74.4,135.2,74.7,136.2,74.3Z" transform="translate(-93.6 -48.5)"/><path class="cls-7" d="M121.5,70.6a.4.4,0,0,1,0,.5c-.4,0-.7-.4-.8-.8S121.3,70.2,121.5,70.6Z" transform="translate(-93.6 -48.5)"/><path class="cls-7" d="M122.4,72.4c.2.2-.1.1-.1.2s-.4-.5-.2-.6S122.3,72.2,122.4,72.4Z" transform="translate(-93.6 -48.5)"/><path class="cls-7" d="M131,75.8c-.1.3-.5-.1-.6-.4A.7.7,0,0,1,131,75.8Z" transform="translate(-93.6 -48.5)"/><line class="cls-7" x1="46.3" y1="31.1" x2="45.8" y2="30.6"/><path class="cls-7" d="M139,79.7c-.3.2.3.4.4.5s-.6-.8-1.3-1.1A1.8,1.8,0,0,1,139,79.7Z" transform="translate(-93.6 -48.5)"/><path class="cls-7" d="M122.3,78.1c.2.4,0,.5-.2.5a1,1,0,0,1-.6-.9C121.7,77.5,122.1,77.9,122.3,78.1Z" transform="translate(-93.6 -48.5)"/><path class="cls-7" d="M120.2,80.4l.4.6c-.6-.2-.5,0-1.1-.1s-.6-.6-.7-1.1a.4.4,0,0,1,.5-.3C119.7,79.8,120.6,80.2,120.2,80.4Z" transform="translate(-93.6 -48.5)"/><path class="cls-7" d="M133.5,84.4c-.2.2-.7-.4-.5-.5A.8.8,0,0,1,133.5,84.4Z" transform="translate(-93.6 -48.5)"/><path class="cls-7" d="M132.5,84.8c-.2.1-.3-.2-.5-.4S132.4,84.4,132.5,84.8Z" transform="translate(-93.6 -48.5)"/><path class="cls-7" d="M152.9,85.1c1.6,1,3.5-1.1,4.6-1s-.4.3-.3.5c2-1.2.9,1.1,3.1.1l-.9.6c.2.5.8.3,1.3.3s-.6,0-1,.3,0,.4-.3,1-.1-.1-.2-.1a6.4,6.4,0,0,1-2.2,2.1c-.2-.1-.3.3-.5.1s-.6.5-1.8,1a2.8,2.8,0,0,1-3.4-.7c-1.3.2-1.3-1-2-1.6a1.2,1.2,0,0,1-.5-1.6C149.8,85.1,150.9,85.4,152.9,85.1Z" transform="translate(-93.6 -48.5)"/><path class="cls-7" d="M157,79.9c.2.8-1-.3-.7-.5A.9.9,0,0,1,157,79.9Z" transform="translate(-93.6 -48.5)"/><path class="cls-7" d="M156.2,83.4c-.7-.5-1.2-.1-1.7-.9A2.4,2.4,0,0,1,156.2,83.4Z" transform="translate(-93.6 -48.5)"/><path class="cls-7" d="M157.4,82.3l.6.7c-.6.4-2.1-.1-2.5-.5S156.8,82.1,157.4,82.3Z" transform="translate(-93.6 -48.5)"/>
<!-- 四角ペイントEND -->

<!-- ミュージアム --><path class="cls-1" d="M117.7,105.5h-.1v-.2a.1.1,0,0,1,.1-.1l2.5.7h0v.2a.1.1,0,0,1-.1.1Zm.3-1h-.1v-.2c0-.1,0-.1.1-.1l1.9.5v.4h-.2Zm.1-1.1c-.1,0-.1,0-.1-.1v-.2h.1a7.3,7.3,0,0,1,2,.5h0v.2h-.1Z" transform="translate(-93.6 -48.5)"/><path class="cls-1" d="M122.6,103.8H124a.3.3,0,0,1,.3.3,7.8,7.8,0,0,1-.2,1.6h.4v.2h-2.2v-.2h1.4a7.7,7.7,0,0,0,.2-1.5h-1.3a.1.1,0,0,1-.1-.1v-.2C122.5,103.8,122.5,103.8,122.6,103.8Z" transform="translate(-93.6 -48.5)"/><path class="cls-1" d="M129.3,104.3a.2.2,0,0,1,.2.2v.2h-3.3v-.2a.2.2,0,0,1,.2-.2Z" transform="translate(-93.6 -48.5)"/><path class="cls-1" d="M131.2,103.3h1.4v.2h-1.4Zm0,.9c0-.1,0-.1.1-.1h1.2c.1,0,.1,0,.1.1v.2h-1.4Zm.3,2.1h-.1v-.4a2.8,2.8,0,0,0,2.1-2.1h.4A3.6,3.6,0,0,1,131.5,106.3Zm1.9-3.3h.1l.2.4h-.3l-.2-.4c0-.1,0-.1.1-.1Zm.4-.2h.1l.2.4c.1,0,.1.1,0,.1H134c-.1,0-.1,0-.1-.1l-.3-.4h.2Z" transform="translate(-93.6 -48.5)"/><path class="cls-1" d="M135.7,103.2c0-.1,0-.1.1-.1h3v.3a4.5,4.5,0,0,1-.9,1c-.1.1-.1.1-.1,0h-.2v-.2a1.8,1.8,0,0,0,.7-.8h-2.6Zm1.3.8h.4a3.2,3.2,0,0,1-.9,2.3h-.2V106A2.8,2.8,0,0,0,137,104Z" transform="translate(-93.6 -48.5)"/><path class="cls-1" d="M140,105.9c0-.1,0-.1.1-.1h.2l.7-2.7h.3c.1,0,.1,0,.1.1l-.7,2.5,1.7-.3-.2-1c0-.1,0-.1.1-.1h.3l.4,1.8c0,.1,0,.2-.1.2h-.3v-.4l-2.4.4H140Z" transform="translate(-93.6 -48.5)"/>
</svg>